{
.appVersion = "937";
copyright = "Copyright (c) 2012, The Raleway Project Authors (matt@pixelspread.com)";
customParameters = (
{
name = description;
value = "Raleway is an elegant sans-serif typeface family. Initially designed by Matt McInerney as a single thin weight, it was expanded into a 9 weight family by Pablo Impallari and Rodrigo Fuenzalida in 2012 and iKerned by Igino Marini. It is a display face and the download features both old style and lining numerals, standard and discretionary ligatures, a pretty complete set of diacritics, as well as a stylistic alternate inspired by more geometric sans-serif typefaces than its neo-grotesque inspired default character set.";
},
{
name = fsType;
value = (
);
},
{
name = trademark;
value = "Raleway is a trademark of Matt McInerney.";
},
{
name = year;
value = 2012;
},
{
name = license;
value = "This Font Software is licensed under the SIL Open Font License, Version 1.1. This license is available with a FAQ at: http://scripts.sil.org/OFL";
},
{
name = licenseURL;
value = "http://scripts.sil.org/OFL";
},
{
name = "Use Typo Metrics";
value = 1;
}
);
date = "2016-08-19 06:56:35 +0000";
designer = "Matt McInerney, Pablo Impallari, Rodrigo Fuenzalida";
designerURL = "http://pixelspread.com";
familyName = "Raleway Slanted - v4014";
featurePrefixes = (
{
automatic = 1;
code = "languagesystem DFLT dflt;\012languagesystem latn dflt;\012languagesystem cyrl dflt;\012languagesystem latn CAT;\012languagesystem latn ROM;\012languagesystem latn MOL;\012languagesystem latn KAZ;\012languagesystem latn TAT;\012languagesystem latn TRK;\012languagesystem latn CRT;\012languagesystem latn AZE;\012languagesystem cyrl SRB;\012languagesystem cyrl BGR;\012";
name = Languagesystems;
}
);
features = (
{
automatic = 1;

glyphs = (
{
glyphname = A;
lastChange = "2016-11-11 06:11:37 +0000";
layers = (
{
anchors = (
{
name = bottom;
position = "{334, 0}";
},
{
name = ogonek;
position = "{630, 0}";
},
{
name = top;
position = "{475, 707}";
}
);
background = {
anchors = (
{
name = bottom;
position = "{347, 0}";
},
{
name = ogonek;
position = "{655, 0}";
},
{
name = top;
position = "{337, 707}";
}
);
paths = (
{
closed = 1;
nodes = (
"18 0 LINE",
"40 0 LINE",
"151 254 LINE",
"522 254 LINE",
"633 0 LINE",
"655 0 LINE",
"346 710 LINE",
"328 710 LINE"
);
},
{
closed = 1;
nodes = (
"159 274 LINE",
"337 681 LINE",
"513 274 LINE"
);
}
);
};
layerId = "DC0D5209-C0CE-4187-A591-293A64199C8F";
paths = (
{
closed = 1;
nodes = (
"18 0 LINE",
"39 0 LINE",
"200 254 LINE",
"556 254 LINE",
"609 0 LINE",
"630 0 LINE",
"484 710 LINE",
"467 710 LINE"
);
},
{
closed = 1;
nodes = (
"212 274 LINE",
"469 681 LINE",
"552 274 LINE"
);
}
);
width = 649;
},
{
anchors = (
{
name = bottom;
position = "{335, 0}";
},
{
name = ogonek;
position = "{642, 0}";
},
{
name = top;
position = "{481, 708}";
}
);
background = {
anchors = (
{
name = bottom;
position = "{348, 0}";
},
{
name = ogonek;
position = "{667, 0}";
},
{
name = top;
position = "{339, 708}";
}
);
paths = (
{
closed = 1;
nodes = (
"10 0 LINE",
"106 0 LINE",
"189 208 LINE",
"487 208 LINE",
"571 0 LINE",
"667 0 LINE",
"377 710 LINE",
"301 710 LINE"
);
},
{
closed = 1;
nodes = (
"207 278 LINE",
"339 606 LINE",
"467 278 LINE"
);
}
);
};
layerId = "A8272220-FCE5-4C48-BDEF-D37440F7149C";
paths = (
{
closed = 1;
nodes = (
"10 0 LINE",
"105 0 LINE",
"229 208 LINE",
"512 208 LINE",
"547 0 LINE",
"642 0 LINE",
"520 710 LINE",
"443 710 LINE"
);
},
{
closed = 1;
nodes = (
"262 278 LINE",
"458 606 LINE",
"508 278 LINE"
);
}
);
width = 652;
},
{
anchors = (
{
name = bottom;
position = "{332, 0}";
},
{
name = ogonek;
position = "{644, 0}";
},
{
name = top;
position = "{476, 710}";
}
);
background = {
anchors = (
{
name = bottom;
position = "{345, 0}";
},
{
name = ogonek;
position = "{669, 0}";
},
{
name = top;
position = "{334, 710}";
}
);
paths = (
{
closed = 1;
nodes = (
"-2 0 LINE",
"197 0 LINE",
"239 139 LINE",
"428 139 LINE",
"471 0 LINE",
"669 0 LINE",
"423 710 LINE",
"245 710 LINE"
);
},
{
closed = 1;
nodes = (
"268 269 LINE",
"334 489 LINE",
"397 269 LINE"
);
}
);
};
layerId = "CD86D743-087E-48CD-95ED-391136C80322";
paths = (
{
closed = 1;
nodes = (
"-2 0 LINE",
"196 0 LINE",
"264 139 LINE",
"439 139 LINE",
"447 0 LINE",
"644 0 LINE",
"586 710 LINE",
"367 710 LINE"
);
},
{
closed = 1;
nodes = (
"321 269 LINE",
"434 519 LINE",
"436 269 LINE"
);
}
);
width = 642;
}
);
leftKerningGroup = A;
rightKerningGroup = A;
unicode = 0041;
userData = {
org.robofab.fontlab.mark = 0;
};
},
{
glyphname = AE;
lastChange = "2016-11-11 06:11:37 +0000";
layers = (
{
anchors = (
{
name = top;
position = "{679, 707}";
}
);
layerId = "DC0D5209-C0CE-4187-A591-293A64199C8F";
paths = (
{
closed = 1;
nodes = (
"-29 0 LINE",
"-5 0 LINE",
"212 254 LINE",
"485 254 LINE",
"431 0 LINE",
"885 0 LINE",
"889 20 LINE",
"455 20 LINE",
"526 353 LINE",
"899 353 LINE",
"903 373 LINE",
"530 373 LINE",
"598 690 LINE",
"1023 690 LINE",
"1027 710 LINE",
"577 710 LINE"
);
},
{
closed = 1;
nodes = (
"228 274 LINE",
"576 678 LINE",
"490 274 LINE"
);
}
);
width = 1079;
},
{
anchors = (
{
name = top;
position = "{739, 708}";
}
);
layerId = "A8272220-FCE5-4C48-BDEF-D37440F7149C";
paths = (
{
closed = 1;
nodes = (
"-25 0 LINE",
"72 0 LINE",
"242 208 LINE",
"484 208 LINE",
"439 0 LINE",
"899 0 LINE",
"917 80 LINE",
"545 80 LINE",
"597 322 LINE",
"908 322 LINE",
"925 402 LINE",
"615 402 LINE",
"664 630 LINE",
"1027 630 LINE",
"1044 710 LINE",
"569 710 LINE"
);
},
{
closed = 1;
nodes = (
"300 288 LINE",
"564 605 LINE",
"495 288 LINE"
);
}
);
width = 1080;
},
{
anchors = (
{
name = top;
position = "{761, 710}";
}
);
layerId = "CD86D743-087E-48CD-95ED-391136C80322";
paths = (
{
closed = 1;
nodes = (
"-26 0 LINE",
"179 0 LINE",
"280 139 LINE",
"472 139 LINE",
"442 0 LINE",
"913 0 LINE",
"949 170 LINE",
"672 170 LINE",
"695 276 LINE",
"912 276 LINE",
"949 446 LINE",
"732 446 LINE",
"752 540 LINE",
"1021 540 LINE",
"1058 710 LINE",
"545 710 LINE"
);
},
{
closed = 1;
nodes = (
"398 309 LINE",
"534 495 LINE",
"494 309 LINE"
);
}
);
width = 1088;
}
);
leftKerningGroup = AE;
rightKerningGroup = E;
unicode = 00C6;
userData = {
org.robofab.fontlab.mark = 0;
};
},
{
glyphname = B;
lastChange = "2016-11-11 06:11:37 +0000";
layers = (
{
layerId = "DC0D5209-C0CE-4187-A591-293A64199C8F";
paths = (
{
closed = 1;
nodes = (
"624 218 CURVE SMOOTH",
"624 284 OFFCURVE",
"591 344 OFFCURVE",
"532 364 CURVE",
"610 398 OFFCURVE",
"669 478 OFFCURVE",
"669 565 CURVE SMOOTH",
"669 639 OFFCURVE",
"628 710 OFFCURVE",
"548 710 CURVE SMOOTH",
"250 710 LINE",
"99 0 LINE",
"412 0 LINE SMOOTH",
"516 0 OFFCURVE",
"624 104 OFFCURVE"
);
},
{
closed = 1;
nodes = (
"604 215 CURVE SMOOTH",
"604 119 OFFCURVE",
"510 20 OFFCURVE",
"416 20 CURVE SMOOTH",
"122 20 LINE",
"192 348 LINE",
"492 348 LINE SMOOTH",
"562 348 OFFCURVE",
"604 286 OFFCURVE"
);
},
{
closed = 1;
nodes = (
"544 690 LINE SMOOTH",
"611 690 OFFCURVE",
"649 631 OFFCURVE",
"649 562 CURVE SMOOTH",
"649 468 OFFCURVE",
"564 368 OFFCURVE",
"470 368 CURVE SMOOTH",
"196 368 LINE",
"265 690 LINE"
);
}
);
width = 719;
},
{
layerId = "A8272220-FCE5-4C48-BDEF-D37440F7149C";
paths = (
{
closed = 1;
nodes = (
"649 221 CURVE SMOOTH",
"649 289 OFFCURVE",
"616 344 OFFCURVE",
"558 364 CURVE",
"641 399 OFFCURVE",
"696 481 OFFCURVE",
"696 565 CURVE SMOOTH",
"696 639 OFFCURVE",
"656 710 OFFCURVE",
"578 710 CURVE SMOOTH",
"241 710 LINE",
"85 0 LINE",
"405 0 LINE SMOOTH",
"529 0 OFFCURVE",
"649 89 OFFCURVE"
);
},
{
closed = 1;
nodes = (
"561 224 CURVE SMOOTH",
"561 148 OFFCURVE",
"493 78 OFFCURVE",
"423 78 CURVE SMOOTH",
"192 78 LINE",
"244 322 LINE",
"482 322 LINE SMOOTH",
"531 322 OFFCURVE",
"561 277 OFFCURVE"
);
},
{
closed = 1;
nodes = (
"529 632 LINE",
"575 632 OFFCURVE",
"603 592 OFFCURVE",
"603 540 CURVE SMOOTH",
"603 461 OFFCURVE",
"540 395 OFFCURVE",
"472 395 CURVE SMOOTH",
"261 395 LINE",
"312 632 LINE"
);
}
);
width = 737;
},
{
layerId = "CD86D743-087E-48CD-95ED-391136C80322";
paths = (
{
closed = 1;
nodes = (
"679 223 CURVE SMOOTH",
"679 297 OFFCURVE",
"646 344 OFFCURVE",
"590 364 CURVE",
"677 400 OFFCURVE",
"727 484 OFFCURVE",
"727 562 CURVE SMOOTH",
"727 638 OFFCURVE",
"688 710 OFFCURVE",
"611 710 CURVE SMOOTH",
"218 710 LINE",
"61 0 LINE",
"389 0 LINE SMOOTH",
"542 0 OFFCURVE",
"679 65 OFFCURVE"
);
},
{
closed = 1;
nodes = (
"488 236 CURVE SMOOTH",
"488 191 OFFCURVE",
"457 164 OFFCURVE",
"426 164 CURVE SMOOTH",
"291 164 LINE",
"317 283 LINE",
"458 283 LINE SMOOTH",
"477 283 OFFCURVE",
"488 263 OFFCURVE"
);
},
{
closed = 1;
nodes = (
"496 544 LINE SMOOTH",
"512 544 OFFCURVE",
"524 532 OFFCURVE",
"524 504 CURVE SMOOTH",
"524 450 OFFCURVE",
"492 435 OFFCURVE",
"465 435 CURVE SMOOTH",
"351 435 LINE",
"376 544 LINE"
);
}
);
width = 752;
}
);
leftKerningGroup = I;
unicode = 0042;
userData = {
org.robofab.fontlab.mark = 0;
};
},
{
glyphname = C;
lastChange = "2016-11-11 06:11:37 +0000";
layers = (
{
anchors = (
{
name = bottom;
position = "{298, 0}";
},
{
name = top;
position = "{450, 707}";
}
);
layerId = "DC0D5209-C0CE-4187-A591-293A64199C8F";
paths = (
{
closed = 1;
nodes = (
"48 294 CURVE SMOOTH",
"48 141 OFFCURVE",
"138 -6 OFFCURVE",
"295 -6 CURVE SMOOTH",
"399 -6 OFFCURVE",
"530 52 OFFCURVE",
"600 159 CURVE",
"583 164 LINE",
"508 60 OFFCURVE",
"394 14 OFFCURVE",
"303 14 CURVE SMOOTH",
"160 14 OFFCURVE",
"67 143 OFFCURVE",
"67 294 CURVE SMOOTH",
"67 478 OFFCURVE",
"226 694 OFFCURVE",
"445 694 CURVE SMOOTH",
"532 694 OFFCURVE",
"618 657 OFFCURVE",
"649 553 CURVE",
"669 559 LINE",
"646 649 OFFCURVE",
"574 714 OFFCURVE",
"453 714 CURVE SMOOTH",
"219 714 OFFCURVE",
"48 487 OFFCURVE"
);
}
);
width = 707;
},
{
anchors = (
{
name = bottom;
position = "{290, 0}";
},
{
name = top;
position = "{448, 708}";
}
);
layerId = "A8272220-FCE5-4C48-BDEF-D37440F7149C";
paths = (
{
closed = 1;
nodes = (
"39 294 CURVE SMOOTH",
"39 141 OFFCURVE",
"129 -6 OFFCURVE",
"288 -6 CURVE SMOOTH",
"394 -6 OFFCURVE",
"529 53 OFFCURVE",
"595 159 CURVE",
"530 200 LINE",
"472 112 OFFCURVE",
"380 75 OFFCURVE",
"310 75 CURVE SMOOTH",
"197 75 OFFCURVE",
"130 178 OFFCURVE",
"130 300 CURVE SMOOTH",
"130 451 OFFCURVE",
"252 633 OFFCURVE",
"428 633 CURVE SMOOTH",
"496 633 OFFCURVE",
"569 603 OFFCURVE",
"589 513 CURVE",
"670 559 LINE",
"647 650 OFFCURVE",
"571 714 OFFCURVE",
"450 714 CURVE SMOOTH",
"214 714 OFFCURVE",
"39 490 OFFCURVE"
);
}
);
width = 698;
},
{
anchors = (
{
name = bottom;
position = "{293, 0}";
},
{
name = top;
position = "{455, 710}";
}
);
layerId = "CD86D743-087E-48CD-95ED-391136C80322";
paths = (
{
closed = 1;
nodes = (
"22 301 CURVE SMOOTH",
"22 144 OFFCURVE",
"120 -6 OFFCURVE",
"292 -6 CURVE SMOOTH",
"408 -6 OFFCURVE",
"557 54 OFFCURVE",
"620 159 CURVE",
"482 254 LINE",
"446 190 OFFCURVE",
"383 167 OFFCURVE",
"334 167 CURVE SMOOTH",
"257 167 OFFCURVE",
"220 235 OFFCURVE",
"220 315 CURVE SMOOTH",
"220 414 OFFCURVE",
"289 541 OFFCURVE",
"414 541 CURVE SMOOTH",
"463 541 OFFCURVE",
"520 522 OFFCURVE",
"529 453 CURVE",
"701 559 LINE",
"675 652 OFFCURVE",
"586 714 OFFCURVE",
"456 714 CURVE SMOOTH",
"206 714 OFFCURVE",
"22 496 OFFCURVE"
);
}
);
width = 709;
}
);
leftKerningGroup = O;
rightKerningGroup = C;
unicode = 0043;
userData = {
org.robofab.fontlab.mark = 0;
};
},
{
glyphname = D;
lastChange = "2016-11-11 06:11:37 +0000";
layers = (
{
anchors = (
{
name = bottom;
position = "{346, 0}";
},
{
name = center;
position = "{420, 355}";
},
{
name = top;
position = "{492, 707}";
}
);
layerId = "DC0D5209-C0CE-4187-A591-293A64199C8F";
paths = (
{
closed = 1;
nodes = (
"317 0 LINE SMOOTH",
"551 0 OFFCURVE",
"722 188 OFFCURVE",
"722 439 CURVE SMOOTH",
"722 591 OFFCURVE",
"642 710 OFFCURVE",
"468 710 CURVE SMOOTH",
"250 710 LINE",
"99 0 LINE"
);
},
{
closed = 1;
nodes = (
"702 435 CURVE SMOOTH",
"702 217 OFFCURVE",
"560 20 OFFCURVE",
"321 20 CURVE SMOOTH",
"122 20 LINE",
"265 690 LINE",
"464 690 LINE SMOOTH",
"622 690 OFFCURVE",
"702 584 OFFCURVE"
);
}
);
width = 773;
},
{
anchors = (
{
name = bottom;
position = "{345, 0}";
},
{
name = center;
position = "{423, 355}";
},
{
name = top;
position = "{483, 708}";
}
);
layerId = "A8272220-FCE5-4C48-BDEF-D37440F7149C";
paths = (
{
closed = 1;
nodes = (
"320 0 LINE SMOOTH",
"558 0 OFFCURVE",
"736 186 OFFCURVE",
"736 437 CURVE SMOOTH",
"736 590 OFFCURVE",
"653 710 OFFCURVE",
"476 710 CURVE SMOOTH",
"241 710 LINE",
"85 0 LINE"
);
},
{
closed = 1;
nodes = (
"644 423 CURVE SMOOTH",
"644 241 OFFCURVE",
"525 80 OFFCURVE",
"338 80 CURVE SMOOTH",
"192 80 LINE",
"312 630 LINE",
"457 630 LINE SMOOTH",
"581 630 OFFCURVE",
"644 544 OFFCURVE"
);
}
);
width = 778;
},
{
anchors = (
{
name = bottom;
position = "{345, 0}";
},
{
name = center;
position = "{423, 355}";
},
{
name = top;
position = "{460, 710}";
}
);
layerId = "CD86D743-087E-48CD-95ED-391136C80322";
paths = (
{
closed = 1;
nodes = (
"323 0 LINE SMOOTH",
"567 0 OFFCURVE",
"753 181 OFFCURVE",
"753 430 CURVE SMOOTH",
"753 587 OFFCURVE",
"665 710 OFFCURVE",
"479 710 CURVE SMOOTH",
"217 710 LINE",
"61 0 LINE"
);
},
{
closed = 1;
nodes = (
"552 401 CURVE SMOOTH",
"552 277 OFFCURVE",
"473 170 OFFCURVE",
"360 170 CURVE SMOOTH",
"292 170 LINE",
"374 540 LINE",
"441 540 LINE SMOOTH",
"513 540 OFFCURVE",
"552 484 OFFCURVE"
);
}
);
width = 777;
}
);
leftKerningGroup = I;
rightKerningGroup = D;
unicode = 0044;
userData = {
org.robofab.fontlab.mark = 0;
};
},
{
glyphname = Eth;
lastChange = "2016-11-11 06:11:37 +0000";
layers = (
{
background = {
components = (
{
name = D;
transform = "{1, 0, 0, 1, 7, 0}";
}
);
paths = (
{
closed = 1;
nodes = (
"318 347 LINE",
"318 367 LINE",
"35 367 LINE",
"35 347 LINE"
);
}
);
};
components = (
{
name = D;
transform = "{1, 0, 0, 1, -64, 0}";
}
);
layerId = "DC0D5209-C0CE-4187-A591-293A64199C8F";
paths = (
{
closed = 1;
nodes = (
"293 347 LINE",
"297 367 LINE",
"39 367 LINE",
"35 347 LINE"
);
}
);
width = 718;
},
{
background = {
components = (
{
name = D;
transform = "{1, 0, 0, 1, 6, 0}";
}
);
paths = (
{
closed = 1;
nodes = (
"342 323 LINE",
"342 391 LINE",
"34 391 LINE",
"34 323 LINE"
);
}
);
};
components = (
{
name = D;
transform = "{1, 0, 0, 1, -64, 0}";
}
);
layerId = "A8272220-FCE5-4C48-BDEF-D37440F7149C";
paths = (
{
closed = 1;
nodes = (
"315 323 LINE",
"331 391 LINE",
"50 391 LINE",
"34 323 LINE"
);
}
);
width = 722;
},
{
background = {
components = (
{
name = D;
transform = "{1, 0, 0, 1, 4, 0}";
}
);
paths = (
{
closed = 1;
nodes = (
"374 287 LINE",
"374 427 LINE",
"28 427 LINE",
"28 287 LINE"
);
}
);
};
components = (
{
name = D;
transform = "{1, 0, 0, 1, -58, 0}";
}
);
layerId = "CD86D743-087E-48CD-95ED-391136C80322";
paths = (
{
closed = 1;
nodes = (
"347 287 LINE",
"379 427 LINE",
"60 427 LINE",
"28 287 LINE"
);
}
);
width = 720;
}
);
leftKerningGroup = I;
rightKerningGroup = D;
unicode = 00D0;
userData = {
org.robofab.fontlab.mark = 0;
};
},
{
glyphname = Dcroat;
lastChange = "2016-11-11 06:11:37 +0000";
layers = (
{
background = {
components = (
{
name = D;
transform = "{1, 0, 0, 1, 7, 0}";
}
);
paths = (
{
closed = 1;
nodes = (
"318 347 LINE",
"318 367 LINE",
"35 367 LINE",
"35 347 LINE"
);
}
);
};
components = (
{
name = D;
transform = "{1, 0, 0, 1, -64, 0}";
}
);
layerId = "DC0D5209-C0CE-4187-A591-293A64199C8F";
paths = (
{
closed = 1;
nodes = (
"293 347 LINE",
"297 367 LINE",
"39 367 LINE",
"35 347 LINE"
);
}
);
width = 718;
},
{
background = {
components = (
{
name = D;
transform = "{1, 0, 0, 1, 6, 0}";
}
);
paths = (
{
closed = 1;
nodes = (
"342 323 LINE",
"342 391 LINE",
"34 391 LINE",
"34 323 LINE"
);
}
);
};
components = (
{
name = D;
transform = "{1, 0, 0, 1, -64, 0}";
}
);
layerId = "A8272220-FCE5-4C48-BDEF-D37440F7149C";
paths = (
{
closed = 1;
nodes = (
"315 323 LINE",
"331 391 LINE",
"50 391 LINE",
"34 323 LINE"
);
}
);
width = 722;
},
{
background = {
components = (
{
name = D;
transform = "{1, 0, 0, 1, 4, 0}";
}
);
paths = (
{
closed = 1;
nodes = (
"374 287 LINE",
"374 427 LINE",
"28 427 LINE",
"28 287 LINE"
);
}
);
};
components = (
{
name = D;
transform = "{1, 0, 0, 1, -58, 0}";
}
);
layerId = "CD86D743-087E-48CD-95ED-391136C80322";
paths = (
{
closed = 1;
nodes = (
"347 287 LINE",
"379 427 LINE",
"60 427 LINE",
"28 287 LINE"
);
}
);
width = 720;
}
);
leftKerningGroup = I;
rightKerningGroup = D;
unicode = 0110;
userData = {
org.robofab.fontlab.mark = 0;
};
},
{
glyphname = E;
lastChange = "2016-11-11 06:11:37 +0000";
layers = (
{
anchors = (
{
name = bottom;
position = "{331, 0}";
},
{
name = ogonek;
position = "{540, 0}";
},
{
name = top;
position = "{481, 707}";
},
{
name = topleft;
position = "{175, 710}";
}
);
layerId = "DC0D5209-C0CE-4187-A591-293A64199C8F";
paths = (
{
closed = 1;
nodes = (
"122 20 LINE",
"193 353 LINE",
"555 353 LINE",
"560 373 LINE",
"197 373 LINE",
"265 690 LINE",
"678 690 LINE",
"682 710 LINE",
"250 710 LINE",
"99 0 LINE",
"540 0 LINE",
"544 20 LINE"
);
}
);
width = 734;
},
{
anchors = (
{
name = bottom;
position = "{320, 0}";
},
{
name = ogonek;
position = "{541, 0}";
},
{
name = top;
position = "{476, 708}";
},
{
name = topleft;
position = "{181, 710}";
}
);
layerId = "A8272220-FCE5-4C48-BDEF-D37440F7149C";
paths = (
{
closed = 1;
nodes = (
"192 80 LINE",
"245 325 LINE",
"557 325 LINE",
"574 400 LINE",
"262 400 LINE",
"312 630 LINE",
"670 630 LINE",
"689 710 LINE",
"242 710 LINE",
"85 0 LINE",
"541 0 LINE",
"559 80 LINE"
);
}
);
width = 727;
},
{
anchors = (
{
name = bottom;
position = "{299, 0}";
},
{
name = ogonek;
position = "{534, 0}";
},
{
name = top;
position = "{457, 710}";
},
{
name = topleft;
position = "{184, 710}";
}
);
layerId = "CD86D743-087E-48CD-95ED-391136C80322";
paths = (
{
closed = 1;
nodes = (
"292 170 LINE",
"317 282 LINE",
"549 282 LINE",
"584 440 LINE",
"353 440 LINE",
"375 540 LINE",
"646 540 LINE",
"684 710 LINE",
"219 710 LINE",
"61 0 LINE",
"534 0 LINE",
"572 170 LINE"
);
}
);
width = 714;
}
);
leftKerningGroup = I;
rightKerningGroup = E;
unicode = 0045;
userData = {
org.robofab.fontlab.mark = 0;
};
},
{
glyphname = F;
lastChange = "2016-11-11 06:11:37 +0000";
layers = (
{
layerId = "DC0D5209-C0CE-4187-A591-293A64199C8F";
paths = (
{
closed = 1;
nodes = (
"118 0 LINE",
"193 354 LINE",
"546 354 LINE",
"550 374 LINE",
"197 374 LINE",
"265 690 LINE",
"678 690 LINE",
"682 710 LINE",
"250 710 LINE",
"99 0 LINE"
);
}
);
width = 728;
},
{
layerId = "A8272220-FCE5-4C48-BDEF-D37440F7149C";
paths = (
{
closed = 1;
nodes = (
"174 0 LINE",
"244 318 LINE",
"537 318 LINE",
"554 393 LINE",
"261 393 LINE",
"313 630 LINE",
"661 630 LINE",
"680 710 LINE",
"243 710 LINE",
"85 0 LINE"
);
}
);
width = 709;
},
{
layerId = "CD86D743-087E-48CD-95ED-391136C80322";
paths = (
{
closed = 1;
nodes = (
"255 0 LINE",
"313 264 LINE",
"525 264 LINE",
"561 422 LINE",
"349 422 LINE",
"375 540 LINE",
"636 540 LINE",
"674 710 LINE",
"219 710 LINE",
"61 0 LINE"
);
}
);
width = 689;
}
);
leftKerningGroup = I;
unicode = 0046;
userData = {
org.robofab.fontlab.mark = 0;
};
},
{
glyphname = G;
lastChange = "2016-11-11 06:11:37 +0000";
layers = (
{
anchors = (
{
name = bottom;
position = "{301, 0}";
},
{
name = top;
position = "{440, 707}";
}
);
layerId = "DC0D5209-C0CE-4187-A591-293A64199C8F";
paths = (
{
closed = 1;
nodes = (
"301 -5 CURVE SMOOTH",
"399 -5 OFFCURVE",
"495 42 OFFCURVE",
"588 136 CURVE",
"594 164 LINE",
"492 60 OFFCURVE",
"399 15 OFFCURVE",
"305 15 CURVE SMOOTH",
"161 15 OFFCURVE",
"67 144 OFFCURVE",
"67 294 CURVE SMOOTH",
"67 480 OFFCURVE",
"232 695 OFFCURVE",
"438 695 CURVE SMOOTH",
"544 695 OFFCURVE",
"619 654 OFFCURVE",
"650 554 CURVE",
"669 560 LINE",
"645 650 OFFCURVE",
"583 715 OFFCURVE",
"442 715 CURVE SMOOTH",
"235 715 OFFCURVE",
"48 498 OFFCURVE",
"48 292 CURVE SMOOTH",
"48 142 OFFCURVE",
"139 -5 OFFCURVE"
);
},
{
closed = 1;
nodes = (
"547 0 LINE",
"567 0 LINE",
"638 338 LINE",
"459 338 LINE",
"455 318 LINE",
"615 318 LINE"
);
}
);
width = 730;
},
{
anchors = (
{
name = bottom;
position = "{291, 0}";
},
{
name = top;
position = "{441, 708}";
}
);
layerId = "A8272220-FCE5-4C48-BDEF-D37440F7149C";
paths = (
{
closed = 1;
nodes = (
"286 -5 CURVE SMOOTH",
"368 -5 OFFCURVE",
"448 32 OFFCURVE",
"526 109 CURVE",
"547 202 LINE",
"466 116 OFFCURVE",
"388 76 OFFCURVE",
"311 76 CURVE SMOOTH",
"200 76 OFFCURVE",
"130 175 OFFCURVE",
"130 298 CURVE SMOOTH",
"130 462 OFFCURVE",
"263 634 OFFCURVE",
"423 634 CURVE SMOOTH",
"506 634 OFFCURVE",
"568 594 OFFCURVE",
"590 512 CURVE",
"669 560 LINE",
"645 652 OFFCURVE",
"574 715 OFFCURVE",
"444 715 CURVE SMOOTH",
"234 715 OFFCURVE",
"39 509 OFFCURVE",
"39 292 CURVE SMOOTH",
"39 137 OFFCURVE",
"133 -5 OFFCURVE"
);
},
{
closed = 1;
nodes = (
"492 0 LINE",
"567 0 LINE",
"645 354 LINE",
"424 354 LINE",
"409 286 LINE",
"554 286 LINE"
);
}
);
width = 721;
},
{
anchors = (
{
name = bottom;
position = "{284, 0}";
},
{
name = top;
position = "{460, 710}";
}
);
layerId = "CD86D743-087E-48CD-95ED-391136C80322";
paths = (
{
closed = 1;
nodes = (
"284 -5 CURVE SMOOTH",
"351 -5 OFFCURVE",
"409 18 OFFCURVE",
"472 68 CURVE",
"514 258 LINE",
"458 200 OFFCURVE",
"397 168 OFFCURVE",
"338 168 CURVE SMOOTH",
"265 168 OFFCURVE",
"223 226 OFFCURVE",
"223 312 CURVE SMOOTH",
"223 440 OFFCURVE",
"314 542 OFFCURVE",
"416 542 CURVE SMOOTH",
"473 542 OFFCURVE",
"523 505 OFFCURVE",
"536 449 CURVE",
"705 560 LINE",
"677 656 OFFCURVE",
"582 715 OFFCURVE",
"461 715 CURVE SMOOTH",
"236 715 OFFCURVE",
"23 527 OFFCURVE",
"23 285 CURVE SMOOTH",
"23 103 OFFCURVE",
"135 -5 OFFCURVE"
);
},
{
closed = 1;
nodes = (
"448 0 LINE",
"608 0 LINE",
"691 378 LINE",
"408 378 LINE",
"377 238 LINE",
"500 238 LINE"
);
}
);
width = 740;
}
);
leftKerningGroup = O;
rightKerningGroup = G;
unicode = 0047;
userData = {
org.robofab.fontlab.mark = 0;
};
},
{
glyphname = H;
lastChange = "2016-11-11 06:11:37 +0000";
layers = (
{
anchors = (
{
name = bottom;
position = "{353, 0}";
},
{
name = center;
position = "{429, 355}";
},
{
name = top;
position = "{505, 707}";
},
{
name = topleft;
position = "{175, 710}";
}
);
layerId = "DC0D5209-C0CE-4187-A591-293A64199C8F";
paths = (
{
closed = 1;
nodes = (
"739 710 LINE",
"667 373 LINE",
"197 373 LINE",
"269 710 LINE",
"250 710 LINE",
"99 0 LINE",
"118 0 LINE",
"193 353 LINE",
"663 353 LINE",
"588 0 LINE",
"607 0 LINE",
"758 710 LINE"
);
}
);
width = 857;
},
{
anchors = (
{
name = bottom;
position = "{356, 0}";
},
{
name = center;
position = "{434, 355}";
},
{
name = top;
position = "{514, 708}";
},
{
name = topleft;
position = "{181, 710}";
}
);
layerId = "A8272220-FCE5-4C48-BDEF-D37440F7149C";
paths = (
{
closed = 1;
nodes = (
"693 710 LINE",
"626 403 LINE",
"263 403 LINE",
"331 710 LINE",
"242 710 LINE",
"85 0 LINE",
"174 0 LINE",
"245 323 LINE",
"607 323 LINE",
"536 0 LINE",
"625 0 LINE",
"782 710 LINE"
);
}
);
width = 867;
},
{
anchors = (
{
name = bottom;
position = "{360, 0}";
},
{
name = center;
position = "{437, 355}";
},
{
name = top;
position = "{519, 709}";
},
{
name = topleft;
position = "{182, 710}";
}
);
layerId = "CD86D743-087E-48CD-95ED-391136C80322";
paths = (
{
closed = 1;
nodes = (
"621 710 LINE",
"563 448 LINE",
"354 448 LINE",
"412 710 LINE",
"218 710 LINE",
"61 0 LINE",
"255 0 LINE",
"316 278 LINE",
"526 278 LINE",
"464 0 LINE",
"658 0 LINE",
"815 710 LINE"
);
}
);
width = 876;
}
);
leftKerningGroup = I;
rightKerningGroup = I;
unicode = 0048;
userData = {
org.robofab.fontlab.mark = 0;
};
},
{
glyphname = Hbar;
lastChange = "2016-11-11 06:11:37 +0000";
layers = (
{
background = {
components = (
{
name = H;
transform = "{1, 0, 0, 1, 5, 0}";
}
);
paths = (
{
closed = 1;
nodes = (
"687 554 LINE",
"687 574 LINE",
"54 574 LINE",
"54 554 LINE"
);
}
);
};
components = (
{
name = H;
transform = "{1, 0, 0, 1, -111, 0}";
}
);
layerId = "DC0D5209-C0CE-4187-A591-293A64199C8F";
paths = (
{
closed = 1;
nodes = (
"662 554 LINE",
"666 574 LINE",
"58 574 LINE",
"54 554 LINE"
);
}
);
width = 741;
},
{
background = {
components = (
{
name = H;
transform = "{1, 0, 0, 1, 5, 0}";
}
);
paths = (
{
closed = 1;
nodes = (
"711 529 LINE",
"711 595 LINE",
"40 595 LINE",
"40 529 LINE"
);
}
);
};
components = (
{
name = H;
transform = "{1, 0, 0, 1, -108, 0}";
}
);
layerId = "A8272220-FCE5-4C48-BDEF-D37440F7149C";
paths = (
{
closed = 1;
nodes = (
"685 529 LINE",
"700 595 LINE",
"55 595 LINE",
"40 529 LINE"
);
}
);
width = 751;
},
{
background = {
components = (
{
name = H;
transform = "{1, 0, 0, 1, 3, 0}";
}
);
paths = (
{
closed = 1;
nodes = (
"742 538 LINE",
"742 626 LINE",
"14 626 LINE",
"14 538 LINE"
);
}
);
};
components = (
{
name = H;
transform = "{1, 0, 0, 1, -112, 0}";
}
);
layerId = "CD86D743-087E-48CD-95ED-391136C80322";
paths = (
{
closed = 1;
nodes = (
"716 538 LINE",
"736 626 LINE",
"34 626 LINE",
"14 538 LINE"
);
}
);
width = 756;
}
);
leftKerningGroup = I;
rightKerningGroup = I;
unicode = 0126;
userData = {
org.robofab.fontlab.mark = 0;
};
},
{
glyphname = I;
lastChange = "2016-11-11 06:11:37 +0000";
layers = (
{
anchors = (
{
name = bottom;
position = "{107, 0}";
},
{
name = ogonek;
position = "{113, 0}";
},
{
name = top;
position = "{256, 707}";
},
{
name = topleft;
position = "{195, 710}";
}
);
layerId = "DC0D5209-C0CE-4187-A591-293A64199C8F";
paths = (
{
closed = 1;
nodes = (
"113 0 LINE",
"264 710 LINE",
"250 710 LINE",
"99 0 LINE"
);
}
);
width = 363;
},
{
anchors = (
{
name = bottom;
position = "{127, 0}";
},
{
name = ogonek;
position = "{169, 0}";
},
{
name = top;
position = "{307, 708}";
},
{
name = topleft;
position = "{223, 710}";
}
);
layerId = "A8272220-FCE5-4C48-BDEF-D37440F7149C";
paths = (
{
closed = 1;
nodes = (
"169 0 LINE",
"349 710 LINE",
"265 710 LINE",
"85 0 LINE"
);
}
);
width = 434;
},
{
anchors = (
{
name = bottom;
position = "{156, 0}";
},
{
name = ogonek;
position = "{253, 0}";
},
{
name = top;
position = "{323, 710}";
},
{
name = topleft;
position = "{199, 710}";
}
);
layerId = "CD86D743-087E-48CD-95ED-391136C80322";
paths = (
{
closed = 1;
nodes = (
"253 0 LINE",
"419 710 LINE",
"227 710 LINE",
"61 0 LINE"
);
}
);
width = 480;
}
);
leftKerningGroup = I;
rightKerningGroup = I;
unicode = 0049;
userData = {
org.robofab.fontlab.mark = 0;
};
},
{
glyphname = J;
lastChange = "2016-11-11 06:11:37 +0000";
layers = (
{
anchors = (
{
name = top;
position = "{492, 707}";
}
);
background = {
anchors = (
{
name = top;
position = "{373, 707}";
}
);
paths = (
{
closed = 1;
nodes = (
"19 33 LINE",
"61 4 OFFCURVE",
"112 -11 OFFCURVE",
"173 -11 CURVE SMOOTH",
"360 -11 OFFCURVE",
"383 133 OFFCURVE",
"383 349 CURVE SMOOTH",
"383 710 LINE",
"363 710 LINE",
"363 349 LINE SMOOTH",
"363 137 OFFCURVE",
"343 9 OFFCURVE",
"173 9 CURVE SMOOTH",
"116 9 OFFCURVE",
"68 23 OFFCURVE",
"30 49 CURVE"
);
}
);
};
layerId = "DC0D5209-C0CE-4187-A591-293A64199C8F";
paths = (
{
closed = 1;
nodes = (
"19 33 LINE",
"52 4 OFFCURVE",
"96 -11 OFFCURVE",
"153 -11 CURVE SMOOTH",
"327 -11 OFFCURVE",
"379 133 OFFCURVE",
"425 349 CURVE SMOOTH",
"502 710 LINE",
"483 710 LINE",
"406 349 LINE SMOOTH",
"361 137 OFFCURVE",
"316 9 OFFCURVE",
"157 9 CURVE SMOOTH",
"104 9 OFFCURVE",
"63 23 OFFCURVE",
"33 49 CURVE"
);
}
);
width = 592;
},
{
anchors = (
{
name = top;
position = "{483, 708}";
}
);
background = {
anchors = (
{
name = top;
position = "{364, 708}";
}
);
paths = (
{
closed = 1;
nodes = (
"12 33 LINE",
"54 4 OFFCURVE",
"105 -11 OFFCURVE",
"166 -11 CURVE SMOOTH",
"381 -11 OFFCURVE",
"408 133 OFFCURVE",
"408 349 CURVE SMOOTH",
"408 710 LINE",
"318 710 LINE",
"318 349 LINE SMOOTH",
"318 168 OFFCURVE",
"301 70 OFFCURVE",
"166 70 CURVE SMOOTH",
"109 70 OFFCURVE",
"61 88 OFFCURVE",
"35 106 CURVE"
);
}
);
};
layerId = "A8272220-FCE5-4C48-BDEF-D37440F7149C";
paths = (
{
closed = 1;
nodes = (
"12 33 LINE",
"44 4 OFFCURVE",
"85 -11 OFFCURVE",
"145 -11 CURVE SMOOTH",
"339 -11 OFFCURVE",
"398 137 OFFCURVE",
"446 349 CURVE SMOOTH",
"528 710 LINE",
"439 710 LINE",
"353 329 LINE SMOOTH",
"313 150 OFFCURVE",
"274 70 OFFCURVE",
"162 70 CURVE SMOOTH",
"107 70 OFFCURVE",
"70 89 OFFCURVE",
"52 106 CURVE"
);
}
);
width = 605;
},
{
anchors = (
{
name = top;
position = "{470, 710}";
}
);
background = {
anchors = (
{
name = top;
position = "{350, 710}";
}
);
paths = (
{
closed = 1;
nodes = (
"1 33 LINE",
"43 4 OFFCURVE",
"94 -11 OFFCURVE",
"155 -11 CURVE SMOOTH",
"413 -11 OFFCURVE",
"445 133 OFFCURVE",
"445 349 CURVE SMOOTH",
"445 710 LINE",
"250 710 LINE",
"250 349 LINE SMOOTH",
"250 214 OFFCURVE",
"238 162 OFFCURVE",
"155 162 CURVE SMOOTH",
"98 162 OFFCURVE",
"50 186 OFFCURVE",
"42 192 CURVE"
);
}
);
};
layerId = "CD86D743-087E-48CD-95ED-391136C80322";
paths = (
{
closed = 1;
nodes = (
"1 33 LINE",
"33 4 OFFCURVE",
"76 -11 OFFCURVE",
"130 -11 CURVE SMOOTH",
"372 -11 OFFCURVE",
"433 133 OFFCURVE",
"482 349 CURVE SMOOTH",
"564 710 LINE",
"371 710 LINE",
"289 349 LINE SMOOTH",
"258 214 OFFCURVE",
"238 162 OFFCURVE",
"169 162 CURVE SMOOTH",
"118 162 OFFCURVE",
"81 186 OFFCURVE",
"77 192 CURVE"
);
}
);
width = 617;
},
{
anchors = (
{
name = top;
position = "{364, 708}";
}
);
associatedMasterId = "A8272220-FCE5-4C48-BDEF-D37440F7149C";
background = {
anchors = (
{
name = top;
position = "{364, 708}";
}
);
paths = (
{
closed = 1;
nodes = (
"12 33 LINE",
"54 4 OFFCURVE",
"105 -11 OFFCURVE",
"166 -11 CURVE SMOOTH",
"381 -11 OFFCURVE",
"408 133 OFFCURVE",
"408 349 CURVE SMOOTH",
"408 710 LINE",
"318 710 LINE",
"318 349 LINE SMOOTH",
"318 168 OFFCURVE",
"301 70 OFFCURVE",
"166 70 CURVE SMOOTH",
"109 70 OFFCURVE",
"61 88 OFFCURVE",
"35 106 CURVE"
);
}
);
};
layerId = "E35331E6-5314-4E9A-829E-8F198E00847B";
name = "Regular Aug 24 16, 03:18";
paths = (
{
closed = 1;
nodes = (
"12 33 LINE",
"54 4 OFFCURVE",
"105 -11 OFFCURVE",
"166 -11 CURVE SMOOTH",
"381 -11 OFFCURVE",
"408 133 OFFCURVE",
"408 349 CURVE SMOOTH",
"408 710 LINE",
"318 710 LINE",
"318 349 LINE SMOOTH",
"318 168 OFFCURVE",
"301 70 OFFCURVE",
"166 70 CURVE SMOOTH",
"109 70 OFFCURVE",
"61 88 OFFCURVE",
"35 106 CURVE"
);
}
);
width = 485;
}
);
leftKerningGroup = J;
rightKerningGroup = J;
unicode = 004A;
userData = {
org.robofab.fontlab.mark = 0;
};
},
{
glyphname = K;
lastChange = "2016-11-11 06:11:37 +0000";
layers = (
{
anchors = (
{
name = bottom;
position = "{304, 0}";
}
);
background = {
anchors = (
{
name = bottom;
position = "{314, 0}";
}
);
paths = (
{
closed = 1;
nodes = (
"119 0 LINE",
"119 221 LINE",
"282 386 LINE",
"588 0 LINE",
"614 0 LINE",
"297 400 LINE",
"600 710 LINE",
"571 710 LINE",
"119 249 LINE",
"119 710 LINE",
"99 710 LINE",
"99 0 LINE"
);
}
);
};
layerId = "DC0D5209-C0CE-4187-A591-293A64199C8F";
paths = (
{
closed = 1;
nodes = (
"118 0 LINE",
"165 221 LINE",
"355 386 LINE",
"564 0 LINE",
"589 0 LINE",
"372 400 LINE",
"727 710 LINE",
"699 710 LINE",
"171 249 LINE",
"269 710 LINE",
"250 710 LINE",
"99 0 LINE"
);
}
);
width = 734;
},
{
anchors = (
{
name = bottom;
position = "{328, 0}";
}
);
background = {
anchors = (
{
name = bottom;
position = "{338, 0}";
}
);
paths = (
{
closed = 1;
nodes = (
"175 0 LINE",
"175 217 LINE",
"298 345 LINE",
"556 0 LINE",
"654 0 LINE",
"353 397 LINE",
"638 710 LINE",
"541 710 LINE",
"175 317 LINE",
"175 709 LINE",
"85 709 LINE",
"85 0 LINE"
);
}
);
};
layerId = "A8272220-FCE5-4C48-BDEF-D37440F7149C";
paths = (
{
closed = 1;
nodes = (
"174 0 LINE",
"222 217 LINE",
"362 343 LINE",
"529 0 LINE",
"629 0 LINE",
"430 397 LINE",
"770 710 LINE",
"673 710 LINE",
"244 317 LINE",
"330 709 LINE",
"241 709 LINE",
"85 0 LINE"
);
}
);
width = 768;
},
{
anchors = (
{
name = bottom;
position = "{357, 0}";
}
);
background = {
anchors = (
{
name = bottom;
position = "{370, 0}";
}
);
paths = (
{
closed = 1;
nodes = (
"256 0 LINE",
"256 205 LINE",
"310 261 LINE",
"486 0 LINE",
"710 0 LINE",
"434 392 LINE",
"692 710 LINE",
"472 710 LINE",
"256 440 LINE",
"256 710 LINE",
"61 710 LINE",
"61 0 LINE"
);
}
);
};
layerId = "CD86D743-087E-48CD-95ED-391136C80322";
paths = (
{
closed = 1;
nodes = (
"255 0 LINE",
"301 205 LINE",
"356 261 LINE",
"455 0 LINE",
"678 0 LINE",
"508 392 LINE",
"818 710 LINE",
"599 710 LINE",
"353 440 LINE",
"412 710 LINE",
"218 710 LINE",
"61 0 LINE"
);
}
);
width = 798;
}
);
leftKerningGroup = I;
rightKerningGroup = K;
unicode = 004B;
userData = {
org.robofab.fontlab.mark = 0;
};
},
{
glyphname = L;
lastChange = "2016-11-11 06:11:37 +0000";
layers = (
{
anchors = (
{
name = bottom;
position = "{319, 0}";
},
{
name = center;
position = "{355, 355}";
},
{
name = top;
position = "{259, 710}";
},
{
name = topright;
position = "{481, 526}";
}
);
layerId = "DC0D5209-C0CE-4187-A591-293A64199C8F";
paths = (
{
closed = 1;
nodes = (
"540 0 LINE",
"544 20 LINE",
"122 20 LINE",
"269 710 LINE",
"250 710 LINE",
"99 0 LINE"
);
}
);
width = 558;
},
{
anchors = (
{
name = bottom;
position = "{322, 0}";
},
{
name = center;
position = "{360, 355}";
},
{
name = top;
position = "{283, 708}";
},
{
name = topright;
position = "{485, 526}";
}
);
layerId = "A8272220-FCE5-4C48-BDEF-D37440F7149C";
paths = (
{
closed = 1;
nodes = (
"545 0 LINE",
"563 80 LINE",
"192 80 LINE",
"331 710 LINE",
"242 710 LINE",
"85 0 LINE"
);
}
);
width = 576;
},
{
anchors = (
{
name = bottom;
position = "{324, 0}";
},
{
name = center;
position = "{360, 355}";
},
{
name = top;
position = "{318, 710}";
},
{
name = topright;
position = "{485, 526}";
}
);
layerId = "CD86D743-087E-48CD-95ED-391136C80322";
paths = (
{
closed = 1;
nodes = (
"552 0 LINE",
"589 170 LINE",
"292 170 LINE",
"412 710 LINE",
"218 710 LINE",
"61 0 LINE"
);
}
);
width = 596;
}
);
leftKerningGroup = I;
rightKerningGroup = L;
unicode = 004C;
userData = {
org.robofab.fontlab.mark = 0;
};
},
{
glyphname = Lslash;
lastChange = "2016-11-11 06:11:37 +0000";
layers = (
{
background = {
components = (
{
name = L;
transform = "{1, 0, 0, 1, 7, 0}";
}
);
paths = (
{
closed = 1;
nodes = (
"328 506 LINE",
"314 521 LINE",
"29 236 LINE",
"43 221 LINE"
);
}
);
};
components = (
{
name = L;
transform = "{1, 0, 0, 1, -41, 0}";
}
);
layerId = "DC0D5209-C0CE-4187-A591-293A64199C8F";
paths = (
{
closed = 1;
nodes = (
"360 506 LINE",
"351 521 LINE",
"29 236 LINE",
"39 221 LINE"
);
}
);
width = 586;
},
{
background = {
components = (
{
name = L;
transform = "{1, 0, 0, 1, 7, 0}";
}
);
paths = (
{
closed = 1;
nodes = (
"349 474 LINE",
"324 523 LINE",
"10 283 LINE",
"36 233 LINE"
);
}
);
};
components = (
{
name = L;
transform = "{1, 0, 0, 1, -55, 0}";
}
);
layerId = "A8272220-FCE5-4C48-BDEF-D37440F7149C";
paths = (
{
closed = 1;
nodes = (
"365 474 LINE",
"352 523 LINE",
"10 283 LINE",
"23 233 LINE"
);
}
);
width = 591;
},
{
background = {
components = (
{
name = L;
transform = "{1, 0, 0, 1, 12, 0}";
}
);
paths = (
{
closed = 1;
nodes = (
"382 426 LINE",
"339 527 LINE",
"-17 353 LINE",
"26 252 LINE"
);
}
);
};
components = (
{
name = L;
transform = "{1, 0, 0, 1, -65, 0}";
}
);
layerId = "CD86D743-087E-48CD-95ED-391136C80322";
paths = (
{
closed = 1;
nodes = (
"373 426 LINE",
"353 527 LINE",
"-17 353 LINE",
"3 252 LINE"
);
}
);
width = 597;
}
);
leftKerningGroup = I;
rightKerningGroup = L;
unicode = 0141;
userData = {
org.robofab.fontlab.mark = 0;
};
},
{
glyphname = M;
lastChange = "2016-11-11 06:11:37 +0000";
layers = (
{
anchors = (
{
name = bottom;
position = "{430, 0}";
},
{
name = top;
position = "{580, 710}";
}
);
background = {
anchors = (
{
name = bottom;
position = "{442, 0}";
},
{
name = top;
position = "{442, 710}";
}
);
paths = (
{
closed = 1;
nodes = (
"785 0 LINE",
"785 710 LINE",
"769 710 LINE",
"442 164 LINE",
"115 710 LINE",
"99 710 LINE",
"99 0 LINE",
"119 0 LINE",
"119 666 LINE",
"434 140 LINE",
"450 140 LINE",
"765 666 LINE",
"765 0 LINE"
);
}
);
};
layerId = "DC0D5209-C0CE-4187-A591-293A64199C8F";
paths = (
{
closed = 1;
nodes = (
"760 0 LINE",
"911 710 LINE",
"895 710 LINE",
"464 164 LINE",
"265 710 LINE",
"250 710 LINE",
"99 0 LINE",
"118 0 LINE",
"260 666 LINE",
"452 140 LINE",
"467 140 LINE",
"882 666 LINE",
"741 0 LINE"
);
}
);
width = 1010;
},
{
anchors = (
{
name = bottom;
position = "{422, 0}";
},
{
name = top;
position = "{578, 710}";
}
);
background = {
anchors = (
{
name = bottom;
position = "{437, 0}";
},
{
name = top;
position = "{437, 710}";
}
);
paths = (
{
closed = 1;
nodes = (
"789 0 LINE",
"789 710 LINE",
"695 710 LINE",
"437 249 LINE",
"180 710 LINE",
"85 710 LINE",
"85 0 LINE",
"175 0 LINE",
"175 549 LINE",
"412 128 LINE",
"463 128 LINE",
"699 549 LINE",
"699 0 LINE"
);
}
);
};
layerId = "A8272220-FCE5-4C48-BDEF-D37440F7149C";
paths = (
{
closed = 1;
nodes = (
"760 0 LINE",
"915 710 LINE",
"822 710 LINE",
"478 249 LINE",
"335 710 LINE",
"240 710 LINE",
"85 0 LINE",
"174 0 LINE",
"292 542 LINE",
"423 125 LINE",
"477 125 LINE",
"788 542 LINE",
"671 0 LINE"
);
}
);
width = 1000;
},
{
anchors = (
{
name = bottom;
position = "{412, 0}";
},
{
name = top;
position = "{568, 710}";
}
);
background = {
anchors = (
{
name = bottom;
position = "{427, 0}";
},
{
name = top;
position = "{427, 710}";
}
);
paths = (
{
closed = 1;
nodes = (
"793 0 LINE",
"793 710 LINE",
"581 710 LINE",
"427 376 LINE",
"274 710 LINE",
"61 710 LINE",
"61 0 LINE",
"256 0 LINE",
"256 374 LINE",
"375 111 LINE",
"479 111 LINE",
"598 374 LINE",
"598 0 LINE"
);
}
);
};
layerId = "CD86D743-087E-48CD-95ED-391136C80322";
paths = (
{
closed = 1;
nodes = (
"764 0 LINE",
"919 710 LINE",
"708 710 LINE",
"495 376 LINE",
"429 710 LINE",
"216 710 LINE",
"61 0 LINE",
"255 0 LINE",
"336 374 LINE",
"385 111 LINE",
"489 111 LINE",
"651 374 LINE",
"570 0 LINE"
);
}
);
width = 980;
}
);
leftKerningGroup = I;
rightKerningGroup = I;
unicode = 004D;
userData = {
org.robofab.fontlab.mark = 0;
};
},
{
glyphname = N;
lastChange = "2016-11-11 06:11:37 +0000";
layers = (
{
anchors = (
{
name = bottom;
position = "{381, 0}";
},
{
name = top;
position = "{531, 707}";
}
);
background = {
anchors = (
{
name = bottom;
position = "{394, 0}";
},
{
name = top;
position = "{393, 707}";
}
);
paths = (
{
closed = 1;
nodes = (
"654 0 LINE",
"677 0 LINE",
"677 710 LINE",
"657 710 LINE",
"657 29 LINE",
"114 710 LINE",
"99 710 LINE",
"99 0 LINE",
"119 0 LINE",
"119 671 LINE"
);
}
);
};
layerId = "DC0D5209-C0CE-4187-A591-293A64199C8F";
paths = (
{
closed = 1;
nodes = (
"630 0 LINE",
"652 0 LINE",
"803 710 LINE",
"784 710 LINE",
"639 29 LINE",
"264 710 LINE",
"250 710 LINE",
"99 0 LINE",
"118 0 LINE",
"261 671 LINE"
);
}
);
width = 902;
},
{
anchors = (
{
name = bottom;
position = "{372, 0}";
},
{
name = top;
position = "{527, 708}";
}
);
background = {
anchors = (
{
name = bottom;
position = "{387, 0}";
},
{
name = top;
position = "{387, 708}";
}
);
paths = (
{
closed = 1;
nodes = (
"609 0 LINE",
"685 0 LINE",
"685 709 LINE",
"595 709 LINE",
"595 157 LINE",
"155 710 LINE",
"85 710 LINE",
"85 0 LINE",
"175 0 LINE",
"175 542 LINE"
);
}
);
};
layerId = "A8272220-FCE5-4C48-BDEF-D37440F7149C";
paths = (
{
closed = 1;
nodes = (
"574 0 LINE",
"655 0 LINE",
"811 709 LINE",
"722 709 LINE",
"601 155 LINE",
"316 710 LINE",
"241 710 LINE",
"85 0 LINE",
"174 0 LINE",
"292 544 LINE"
);
}
);
width = 896;
},
{
anchors = (
{
name = bottom;
position = "{359, 0}";
},
{
name = top;
position = "{515, 709}";
}
);
background = {
anchors = (
{
name = bottom;
position = "{374, 0}";
},
{
name = top;
position = "{374, 709}";
}
);
paths = (
{
closed = 1;
nodes = (
"538 0 LINE",
"693 0 LINE",
"693 710 LINE",
"498 710 LINE",
"498 349 LINE",
"213 710 LINE",
"61 710 LINE",
"61 0 LINE",
"256 0 LINE",
"256 349 LINE"
);
}
);
};
layerId = "CD86D743-087E-48CD-95ED-391136C80322";
paths = (
{
closed = 1;
nodes = (
"509 0 LINE",
"663 0 LINE",
"819 710 LINE",
"625 710 LINE",
"545 349 LINE",
"368 710 LINE",
"217 710 LINE",
"61 0 LINE",
"255 0 LINE",
"332 349 LINE"
);
}
);
width = 880;
}
);
leftKerningGroup = I;
rightKerningGroup = I;
unicode = 004E;
userData = {
org.robofab.fontlab.mark = 0;
};
},
{
glyphname = Eng;
lastChange = "2016-11-11 06:11:37 +0000";
layers = (
{
layerId = "DC0D5209-C0CE-4187-A591-293A64199C8F";
paths = (
{
closed = 1;
nodes = (
"632 -4 LINE",
"625 -36 LINE SMOOTH",
"611 -100 OFFCURVE",
"545 -150 OFFCURVE",
"492 -150 CURVE SMOOTH",
"465 -150 OFFCURVE",
"437 -145 OFFCURVE",
"418 -124 CURVE",
"400 -136 LINE",
"420 -162 OFFCURVE",
"451 -170 OFFCURVE",
"489 -170 CURVE SMOOTH",
"548 -170 OFFCURVE",
"628 -114 OFFCURVE",
"644 -36 CURVE SMOOTH",
"802 709 LINE",
"784 709 LINE",
"639 29 LINE",
"264 710 LINE",
"250 710 LINE",
"99 0 LINE",
"118 0 LINE",
"261 671 LINE"
);
}
);
width = 901;
},
{
layerId = "A8272220-FCE5-4C48-BDEF-D37440F7149C";
paths = (
{
closed = 1;
nodes = (
"563 15 LINE",
"555 -23 LINE SMOOTH",
"545 -72 OFFCURVE",
"498 -108 OFFCURVE",
"458 -108 CURVE SMOOTH",
"435 -108 OFFCURVE",
"412 -102 OFFCURVE",
"399 -85 CURVE",
"345 -144 LINE",
"369 -173 OFFCURVE",
"407 -186 OFFCURVE",
"450 -186 CURVE SMOOTH",
"530 -186 OFFCURVE",
"620 -118 OFFCURVE",
"642 -20 CURVE SMOOTH",
"802 709 LINE",
"714 709 LINE",
"595 161 LINE",
"309 710 LINE",
"241 710 LINE",
"85 0 LINE",
"174 0 LINE",
"291 540 LINE"
);
}
);
width = 887;
},
{
layerId = "CD86D743-087E-48CD-95ED-391136C80322";
paths = (
{
closed = 1;
nodes = (
"463 44 LINE",
"452 -3 LINE SMOOTH",
"446 -30 OFFCURVE",
"432 -46 OFFCURVE",
"409 -46 CURVE SMOOTH",
"393 -46 OFFCURVE",
"379 -38 OFFCURVE",
"371 -26 CURVE",
"266 -155 LINE",
"298 -190 OFFCURVE",
"345 -209 OFFCURVE",
"398 -209 CURVE SMOOTH",
"512 -209 OFFCURVE",
"614 -125 OFFCURVE",
"643 5 CURVE SMOOTH",
"798 709 LINE",
"605 709 LINE",
"527 359 LINE",
"366 710 LINE",
"217 710 LINE",
"61 0 LINE",
"255 0 LINE",
"330 343 LINE"
);
}
);
width = 860;
}
);
leftKerningGroup = I;
rightKerningGroup = I;
unicode = 014A;
userData = {
org.robofab.fontlab.mark = 0;
};
},
{
glyphname = O;
lastChange = "2016-11-11 06:11:37 +0000";
layers = (
{
anchors = (
{
name = bottom;
position = "{300, 0}";
},
{
name = center;
position = "{375, 355}";
},
{
name = ogonek;
position = "{347, 0}";
},
{
name = top;
position = "{450, 707}";
},
{
name = topleft;
position = "{105, 710}";
},
{
name = topright;
position = "{568, 672}";
}
);
layerId = "DC0D5209-C0CE-4187-A591-293A64199C8F";
paths = (
{
closed = 1;
nodes = (
"299 -5 CURVE SMOOTH",
"503 -5 OFFCURVE",
"701 203 OFFCURVE",
"701 420 CURVE SMOOTH",
"701 571 OFFCURVE",
"612 715 OFFCURVE",
"452 715 CURVE SMOOTH",
"247 715 OFFCURVE",
"48 505 OFFCURVE",
"48 288 CURVE SMOOTH",
"48 135 OFFCURVE",
"139 -5 OFFCURVE"
);
},
{
closed = 1;
nodes = (
"68 291 CURVE SMOOTH",
"68 484 OFFCURVE",
"245 695 OFFCURVE",
"447 695 CURVE SMOOTH",
"592 695 OFFCURVE",
"682 566 OFFCURVE",
"682 418 CURVE SMOOTH",
"682 227 OFFCURVE",
"505 15 OFFCURVE",
"303 15 CURVE SMOOTH",
"156 15 OFFCURVE",
"68 144 OFFCURVE"
);
}
);
width = 749;
},
{
anchors = (
{
name = bottom;
position = "{292, 0}";
},
{
name = center;
position = "{370, 355}";
},
{
name = ogonek;
position = "{369, 7}";
},
{
name = top;
position = "{448, 708}";
},
{
name = topleft;
position = "{108, 710}";
},
{
name = topright;
position = "{560, 645}";
}
);
layerId = "A8272220-FCE5-4C48-BDEF-D37440F7149C";
paths = (
{
closed = 1;
nodes = (
"291 -5 CURVE SMOOTH",
"502 -5 OFFCURVE",
"700 204 OFFCURVE",
"700 420 CURVE SMOOTH",
"700 571 OFFCURVE",
"612 715 OFFCURVE",
"450 715 CURVE SMOOTH",
"239 715 OFFCURVE",
"39 505 OFFCURVE",
"39 288 CURVE SMOOTH",
"39 135 OFFCURVE",
"129 -5 OFFCURVE"
);
},
{
closed = 1;
nodes = (
"130 297 CURVE SMOOTH",
"130 457 OFFCURVE",
"263 633 OFFCURVE",
"430 633 CURVE SMOOTH",
"545 633 OFFCURVE",
"609 530 OFFCURVE",
"609 412 CURVE SMOOTH",
"609 254 OFFCURVE",
"477 76 OFFCURVE",
"310 76 CURVE SMOOTH",
"194 76 OFFCURVE",
"130 179 OFFCURVE"
);
}
);
width = 740;
},
{
anchors = (
{
name = bottom;
position = "{298, 0}";
},
{
name = center;
position = "{378, 355}";
},
{
name = ogonek;
position = "{388, 6}";
},
{
name = top;
position = "{457, 710}";
},
{
name = topleft;
position = "{106, 710}";
},
{
name = topright;
position = "{599, 637}";
}
);
layerId = "CD86D743-087E-48CD-95ED-391136C80322";
paths = (
{
closed = 1;
nodes = (
"297 -6 CURVE SMOOTH",
"530 -6 OFFCURVE",
"733 202 OFFCURVE",
"733 413 CURVE SMOOTH",
"733 568 OFFCURVE",
"636 714 OFFCURVE",
"459 714 CURVE SMOOTH",
"227 714 OFFCURVE",
"22 509 OFFCURVE",
"22 295 CURVE SMOOTH",
"22 138 OFFCURVE",
"120 -6 OFFCURVE"
);
},
{
closed = 1;
nodes = (
"221 312 CURVE SMOOTH",
"221 417 OFFCURVE",
"291 541 OFFCURVE",
"418 541 CURVE SMOOTH",
"500 541 OFFCURVE",
"535 474 OFFCURVE",
"535 398 CURVE SMOOTH",
"535 295 OFFCURVE",
"466 167 OFFCURVE",
"337 167 CURVE SMOOTH",
"254 167 OFFCURVE",
"221 236 OFFCURVE"
);
}
);
width = 755;
}
);
leftKerningGroup = O;
rightKerningGroup = O;
unicode = 004F;
userData = {
org.robofab.fontlab.mark = 0;
};
},
{
glyphname = OE;
lastChange = "2016-11-11 06:11:37 +0000";
layers = (
{
layerId = "DC0D5209-C0CE-4187-A591-293A64199C8F";
paths = (
{
closed = 1;
nodes = (
"631 20 LINE",
"702 353 LINE",
"1077 353 LINE",
"1081 373 LINE",
"706 373 LINE",
"774 690 LINE",
"1201 690 LINE",
"1205 710 LINE",
"758 710 LINE",
"709 475 LINE",
"693 606 OFFCURVE",
"604 715 OFFCURVE",
"457 715 CURVE SMOOTH",
"249 715 OFFCURVE",
"48 506 OFFCURVE",
"48 290 CURVE SMOOTH",
"48 136 OFFCURVE",
"141 -5 OFFCURVE",
"305 -5 CURVE SMOOTH",
"446 -5 OFFCURVE",
"584 100 OFFCURVE",
"657 234 CURVE",
"608 0 LINE",
"1063 0 LINE",
"1067 20 LINE"
);
},
{
closed = 1;
nodes = (
"308 15 CURVE SMOOTH",
"158 15 OFFCURVE",
"68 144 OFFCURVE",
"68 292 CURVE SMOOTH",
"68 485 OFFCURVE",
"247 695 OFFCURVE",
"452 695 CURVE SMOOTH",
"599 695 OFFCURVE",
"691 565 OFFCURVE",
"691 417 CURVE SMOOTH",
"691 226 OFFCURVE",
"514 15 OFFCURVE"
);
}
);
width = 1257;
},
{
layerId = "A8272220-FCE5-4C48-BDEF-D37440F7149C";
paths = (
{
closed = 1;
nodes = (
"645 80 LINE",
"697 322 LINE",
"1009 322 LINE",
"1027 402 LINE",
"714 402 LINE",
"763 630 LINE",
"1128 630 LINE",
"1146 710 LINE",
"691 710 LINE",
"658 553 LINE",
"634 643 OFFCURVE",
"563 715 OFFCURVE",
"454 715 CURVE SMOOTH",
"240 715 OFFCURVE",
"39 506 OFFCURVE",
"39 289 CURVE SMOOTH",
"39 136 OFFCURVE",
"132 -5 OFFCURVE",
"298 -5 CURVE SMOOTH",
"403 -5 OFFCURVE",
"508 65 OFFCURVE",
"571 157 CURVE",
"538 0 LINE",
"1002 0 LINE",
"1019 80 LINE"
);
},
{
closed = 1;
nodes = (
"315 76 CURVE SMOOTH",
"196 76 OFFCURVE",
"131 180 OFFCURVE",
"131 298 CURVE SMOOTH",
"131 458 OFFCURVE",
"266 634 OFFCURVE",
"435 634 CURVE SMOOTH",
"553 634 OFFCURVE",
"619 530 OFFCURVE",
"619 411 CURVE SMOOTH",
"619 253 OFFCURVE",
"486 76 OFFCURVE"
);
}
);
width = 1183;
},
{
layerId = "CD86D743-087E-48CD-95ED-391136C80322";
paths = (
{
closed = 1;
nodes = (
"662 170 LINE",
"684 276 LINE",
"903 276 LINE",
"940 446 LINE",
"722 446 LINE",
"741 540 LINE",
"1012 540 LINE",
"1050 710 LINE",
"584 710 LINE",
"575 670 LINE",
"538 698 OFFCURVE",
"495 715 OFFCURVE",
"443 715 CURVE SMOOTH",
"221 715 OFFCURVE",
"22 507 OFFCURVE",
"22 292 CURVE SMOOTH",
"22 137 OFFCURVE",
"115 -5 OFFCURVE",
"284 -5 CURVE SMOOTH",
"336 -5 OFFCURVE",
"389 13 OFFCURVE",
"439 41 CURVE",
"431 0 LINE",
"905 0 LINE",
"942 170 LINE"
);
},
{
closed = 1;
nodes = (
"323 168 CURVE SMOOTH",
"250 168 OFFCURVE",
"222 234 OFFCURVE",
"222 307 CURVE SMOOTH",
"222 412 OFFCURVE",
"288 542 OFFCURVE",
"403 542 CURVE SMOOTH",
"474 542 OFFCURVE",
"505 477 OFFCURVE",
"505 403 CURVE SMOOTH",
"505 299 OFFCURVE",
"440 168 OFFCURVE"
);
}
);
width = 1080;
}
);
leftKerningGroup = O;
rightKerningGroup = E;
unicode = 0152;
userData = {
org.robofab.fontlab.mark = 0;
};
},
{
glyphname = P;
lastChange = "2016-11-11 06:11:37 +0000";
layers = (
{
layerId = "DC0D5209-C0CE-4187-A591-293A64199C8F";
paths = (
{
closed = 1;
nodes = (
"118 0 LINE",
"177 279 LINE",
"439 279 LINE SMOOTH",
"565 279 OFFCURVE",
"673 410 OFFCURVE",
"673 533 CURVE SMOOTH",
"673 623 OFFCURVE",
"618 710 OFFCURVE",
"524 710 CURVE SMOOTH",
"250 710 LINE",
"99 0 LINE"
);
},
{
closed = 1;
nodes = (
"265 690 LINE",
"520 690 LINE SMOOTH",
"601 690 OFFCURVE",
"654 615 OFFCURVE",
"654 530 CURVE SMOOTH",
"654 424 OFFCURVE",
"562 299 OFFCURVE",
"443 299 CURVE SMOOTH",
"182 299 LINE"
);
}
);
width = 704;
},
{
layerId = "A8272220-FCE5-4C48-BDEF-D37440F7149C";
paths = (
{
closed = 1;
nodes = (
"174 0 LINE",
"230 255 LINE",
"425 255 LINE SMOOTH",
"562 255 OFFCURVE",
"679 393 OFFCURVE",
"679 523 CURVE SMOOTH",
"679 619 OFFCURVE",
"621 710 OFFCURVE",
"521 710 CURVE SMOOTH",
"242 710 LINE",
"85 0 LINE"
);
},
{
closed = 1;
nodes = (
"312 630 LINE",
"497 630 LINE SMOOTH",
"550 630 OFFCURVE",
"588 581 OFFCURVE",
"588 514 CURVE SMOOTH",
"588 423 OFFCURVE",
"519 335 OFFCURVE",
"439 335 CURVE SMOOTH",
"248 335 LINE"
);
}
);
width = 706;
},
{
layerId = "CD86D743-087E-48CD-95ED-391136C80322";
paths = (
{
closed = 1;
nodes = (
"255 0 LINE",
"303 218 LINE",
"402 218 LINE SMOOTH",
"556 218 OFFCURVE",
"685 365 OFFCURVE",
"685 503 CURVE SMOOTH",
"685 609 OFFCURVE",
"619 710 OFFCURVE",
"507 710 CURVE SMOOTH",
"218 710 LINE",
"61 0 LINE"
);
},
{
closed = 1;
nodes = (
"374 540 LINE",
"456 540 LINE SMOOTH",
"470 540 OFFCURVE",
"486 527 OFFCURVE",
"486 487 CURVE SMOOTH",
"486 417 OFFCURVE",
"452 388 OFFCURVE",
"427 388 CURVE SMOOTH",
"340 388 LINE"
);
}
);
width = 702;
}
);
leftKerningGroup = I;
unicode = 0050;
userData = {
org.robofab.fontlab.mark = 0;
};
},
{
glyphname = Thorn;
lastChange = "2016-11-11 06:11:37 +0000";
layers = (
{
layerId = "DC0D5209-C0CE-4187-A591-293A64199C8F";
paths = (
{
closed = 1;
nodes = (
"473 560 CURVE",
"237 560 LINE",
"269 710 LINE",
"250 710 LINE",
"99 0 LINE",
"118 0 LINE",
"145 129 LINE",
"388 129 LINE SMOOTH",
"513 129 OFFCURVE",
"621 260 OFFCURVE",
"621 383 CURVE SMOOTH",
"621 473 OFFCURVE",
"566 560 OFFCURVE"
);
},
{
closed = 1;
nodes = (
"392 149 CURVE",
"150 149 LINE",
"233 540 LINE",
"468 540 LINE SMOOTH",
"549 540 OFFCURVE",
"602 465 OFFCURVE",
"602 380 CURVE SMOOTH",
"602 274 OFFCURVE",
"510 149 OFFCURVE"
);
}
);
width = 652;
},
{
layerId = "A8272220-FCE5-4C48-BDEF-D37440F7149C";
paths = (
{
closed = 1;
nodes = (
"474 573 CURVE",
"301 573 LINE",
"331 710 LINE",
"242 710 LINE",
"85 0 LINE",
"174 0 LINE",
"200 118 LINE",
"378 118 LINE SMOOTH",
"515 118 OFFCURVE",
"632 255 OFFCURVE",
"632 386 CURVE SMOOTH",
"632 482 OFFCURVE",
"574 573 OFFCURVE"
);
},
{
closed = 1;
nodes = (
"393 198 CURVE",
"218 198 LINE",
"282 493 LINE",
"451 493 LINE SMOOTH",
"505 493 OFFCURVE",
"542 441 OFFCURVE",
"542 376 CURVE SMOOTH",
"542 290 OFFCURVE",
"474 198 OFFCURVE"
);
}
);
width = 658;
},
{
layerId = "CD86D743-087E-48CD-95ED-391136C80322";
paths = (
{
closed = 1;
nodes = (
"467 592 CURVE SMOOTH",
"386 592 LINE",
"412 710 LINE",
"218 710 LINE",
"61 0 LINE",
"255 0 LINE",
"277 101 LINE",
"362 101 LINE SMOOTH",
"516 101 OFFCURVE",
"645 247 OFFCURVE",
"645 386 CURVE SMOOTH",
"645 491 OFFCURVE",
"579 592 OFFCURVE"
);
},
{
closed = 1;
nodes = (
"391 271 CURVE SMOOTH",
"315 271 LINE",
"348 422 LINE",
"419 422 LINE SMOOTH",
"434 422 OFFCURVE",
"448 402 OFFCURVE",
"448 366 CURVE SMOOTH",
"448 311 OFFCURVE",
"414 271 OFFCURVE"
);
}
);
width = 659;
}
);
leftKerningGroup = I;
unicode = 00DE;
userData = {
org.robofab.fontlab.mark = 0;
};
},
{
glyphname = Q;
lastChange = "2016-11-11 06:11:37 +0000";
layers = (
{
layerId = "DC0D5209-C0CE-4187-A591-293A64199C8F";
paths = (
{
closed = 1;
nodes = (
"299 -5 CURVE SMOOTH",
"503 -5 OFFCURVE",
"701 203 OFFCURVE",
"701 420 CURVE SMOOTH",
"701 571 OFFCURVE",
"612 715 OFFCURVE",
"452 715 CURVE SMOOTH",
"247 715 OFFCURVE",
"48 505 OFFCURVE",
"48 288 CURVE SMOOTH",
"48 135 OFFCURVE",
"139 -5 OFFCURVE"
);
},
{
closed = 1;
nodes = (
"303 15 CURVE SMOOTH",
"156 15 OFFCURVE",
"68 144 OFFCURVE",
"68 291 CURVE SMOOTH",
"68 484 OFFCURVE",
"245 695 OFFCURVE",
"447 695 CURVE SMOOTH",
"592 695 OFFCURVE",
"682 566 OFFCURVE",
"682 418 CURVE SMOOTH",
"682 227 OFFCURVE",
"505 15 OFFCURVE"
);
},
{
closed = 1;
nodes = (
"558 0 LINE",
"582 0 LINE",
"479 186 LINE",
"455 186 LINE"
);
}
);
width = 749;
},
{
layerId = "A8272220-FCE5-4C48-BDEF-D37440F7149C";
paths = (
{
closed = 1;
nodes = (
"291 -5 CURVE SMOOTH",
"502 -5 OFFCURVE",
"700 204 OFFCURVE",
"700 420 CURVE SMOOTH",
"700 571 OFFCURVE",
"612 715 OFFCURVE",
"450 715 CURVE SMOOTH",
"239 715 OFFCURVE",
"39 505 OFFCURVE",
"39 288 CURVE SMOOTH",
"39 135 OFFCURVE",
"129 -5 OFFCURVE"
);
},
{
closed = 1;
nodes = (
"310 76 CURVE SMOOTH",
"194 76 OFFCURVE",
"130 179 OFFCURVE",
"130 297 CURVE SMOOTH",
"130 457 OFFCURVE",
"264 634 OFFCURVE",
"431 634 CURVE SMOOTH",
"545 634 OFFCURVE",
"609 531 OFFCURVE",
"609 412 CURVE SMOOTH",
"609 254 OFFCURVE",
"477 76 OFFCURVE"
);
},
{
closed = 1;
nodes = (
"521 0 LINE",
"608 0 LINE",
"466 232 LINE",
"379 232 LINE"
);
}
);
width = 738;
},
{
layerId = "CD86D743-087E-48CD-95ED-391136C80322";
paths = (
{
closed = 1;
nodes = (
"297 -5 CURVE SMOOTH",
"530 -5 OFFCURVE",
"733 201 OFFCURVE",
"733 413 CURVE SMOOTH",
"733 568 OFFCURVE",
"636 715 OFFCURVE",
"459 715 CURVE SMOOTH",
"227 715 OFFCURVE",
"22 509 OFFCURVE",
"22 295 CURVE SMOOTH",
"22 139 OFFCURVE",
"121 -5 OFFCURVE"
);
},
{
closed = 1;
nodes = (
"337 168 CURVE SMOOTH",
"254 168 OFFCURVE",
"221 236 OFFCURVE",
"221 312 CURVE SMOOTH",
"221 416 OFFCURVE",
"291 542 OFFCURVE",
"418 542 CURVE SMOOTH",
"500 542 OFFCURVE",
"535 475 OFFCURVE",
"535 398 CURVE SMOOTH",
"535 294 OFFCURVE",
"466 168 OFFCURVE"
);
},
{
closed = 1;
nodes = (
"486 0 LINE",
"667 0 LINE",
"462 300 LINE",
"281 300 LINE"
);
}
);
width = 737;
}
);
leftKerningGroup = O;
rightKerningGroup = O;
unicode = 0051;
userData = {
org.robofab.fontlab.mark = 0;
};
},
{
glyphname = R;
lastChange = "2016-11-11 06:11:37 +0000";
layers = (
{
anchors = (
{
name = bottom;
position = "{305, 0}";
},
{
name = top;
position = "{437, 710}";
}
);
background = {
anchors = (
{
name = bottom;
position = "{316, 0}";
},
{
name = top;
position = "{296, 710}";
}
);
paths = (
{
closed = 1;
nodes = (
"119 0 LINE",
"119 279 LINE",
"383 279 LINE",
"563 0 LINE",
"587 0 LINE",
"407 279 LINE",
"514 287 OFFCURVE",
"588 385 OFFCURVE",
"588 495 CURVE SMOOTH",
"588 601 OFFCURVE",
"504 710 OFFCURVE",
"388 710 CURVE SMOOTH",
"99 710 LINE",
"99 0 LINE"
);
},
{
closed = 1;
nodes = (
"119 690 LINE",
"388 690 LINE SMOOTH",
"488 690 OFFCURVE",
"568 596 OFFCURVE",
"568 495 CURVE SMOOTH",
"568 397 OFFCURVE",
"502 299 OFFCURVE",
"395 299 CURVE SMOOTH",
"119 299 LINE"
);
}
);
};
layerId = "DC0D5209-C0CE-4187-A591-293A64199C8F";
paths = (
{
closed = 1;
nodes = (
"118 0 LINE",
"177 279 LINE",
"428 279 LINE",
"539 0 LINE",
"562 0 LINE",
"451 279 LINE",
"571 288 OFFCURVE",
"673 411 OFFCURVE",
"673 533 CURVE SMOOTH",
"673 623 OFFCURVE",
"618 710 OFFCURVE",
"524 710 CURVE SMOOTH",
"250 710 LINE",
"99 0 LINE"
);
},
{
closed = 1;
nodes = (
"265 690 LINE",
"520 690 LINE SMOOTH",
"601 690 OFFCURVE",
"654 615 OFFCURVE",
"654 530 CURVE SMOOTH",
"654 422 OFFCURVE",
"561 299 OFFCURVE",
"443 299 CURVE SMOOTH",
"182 299 LINE"
);
}
);
width = 727;
},
{
anchors = (
{
name = bottom;
position = "{321, 0}";
},
{
name = top;
position = "{454, 710}";
}
);
background = {
anchors = (
{
name = bottom;
position = "{332, 0}";
},
{
name = top;
position = "{308, 710}";
}
);
paths = (
{
closed = 1;
nodes = (
"175 0 LINE",
"175 255 LINE",
"363 255 LINE",
"525 0 LINE",
"627 0 LINE",
"455 272 LINE",
"545 295 OFFCURVE",
"604 384 OFFCURVE",
"604 483 CURVE SMOOTH",
"604 595 OFFCURVE",
"514 710 OFFCURVE",
"389 710 CURVE SMOOTH",
"85 710 LINE",
"85 0 LINE"
);
},
{
closed = 1;
nodes = (
"175 630 LINE",
"384 630 LINE SMOOTH",
"453 630 OFFCURVE",
"513 563 OFFCURVE",
"513 483 CURVE SMOOTH",
"513 405 OFFCURVE",
"464 335 OFFCURVE",
"390 335 CURVE SMOOTH",
"175 335 LINE"
);
}
);
};
layerId = "A8272220-FCE5-4C48-BDEF-D37440F7149C";
paths = (
{
closed = 1;
nodes = (
"174 0 LINE",
"230 255 LINE",
"405 255 LINE",
"501 0 LINE",
"602 0 LINE",
"499 272 LINE",
"606 299 OFFCURVE",
"691 410 OFFCURVE",
"691 523 CURVE SMOOTH",
"691 618 OFFCURVE",
"632 710 OFFCURVE",
"530 710 CURVE SMOOTH",
"241 710 LINE",
"85 0 LINE"
);
},
{
closed = 1;
nodes = (
"312 630 LINE",
"507 630 LINE SMOOTH",
"561 630 OFFCURVE",
"599 577 OFFCURVE",
"599 512 CURVE SMOOTH",
"599 425 OFFCURVE",
"530 335 OFFCURVE",
"449 335 CURVE SMOOTH",
"248 335 LINE"
);
}
);
width = 721;
},
{
anchors = (
{
name = bottom;
position = "{341, 0}";
},
{
name = top;
position = "{464, 709}";
}
);
background = {
anchors = (
{
name = bottom;
position = "{354, 0}";
},
{
name = top;
position = "{319, 709}";
}
);
paths = (
{
closed = 1;
nodes = (
"256 0 LINE",
"256 218 LINE",
"329 218 LINE",
"454 0 LINE",
"674 0 LINE",
"524 261 LINE",
"588 306 OFFCURVE",
"626 382 OFFCURVE",
"626 464 CURVE SMOOTH",
"626 585 OFFCURVE",
"526 710 OFFCURVE",
"387 710 CURVE SMOOTH",
"61 710 LINE",
"61 0 LINE"
);
},
{
closed = 1;
nodes = (
"256 540 LINE",
"374 540 LINE SMOOTH",
"398 540 OFFCURVE",
"428 513 OFFCURVE",
"428 464 CURVE SMOOTH",
"428 416 OFFCURVE",
"403 388 OFFCURVE",
"379 388 CURVE SMOOTH",
"256 388 LINE"
);
}
);
};
layerId = "CD86D743-087E-48CD-95ED-391136C80322";
paths = (
{
closed = 1;
nodes = (
"255 0 LINE",
"303 218 LINE",
"366 218 LINE",
"432 0 LINE",
"644 0 LINE",
"563 261 LINE",
"648 316 OFFCURVE",
"705 409 OFFCURVE",
"705 503 CURVE SMOOTH",
"705 609 OFFCURVE",
"639 710 OFFCURVE",
"527 710 CURVE SMOOTH",
"218 710 LINE",
"61 0 LINE"
);
},
{
closed = 1;
nodes = (
"374 540 LINE",
"476 540 LINE SMOOTH",
"490 540 OFFCURVE",
"505 519 OFFCURVE",
"505 482 CURVE SMOOTH",
"505 426 OFFCURVE",
"470 388 OFFCURVE",
"447 388 CURVE SMOOTH",
"340 388 LINE"
);
}
);
width = 706;
}
);
leftKerningGroup = I;
rightKerningGroup = R;
unicode = 0052;
userData = {
org.robofab.fontlab.mark = 0;
};
},
{
glyphname = S;
lastChange = "2016-11-11 06:11:37 +0000";
layers = (
{
anchors = (
{
name = bottom;
position = "{276, 0}";
},
{
name = top;
position = "{433, 729}";
}
);
layerId = "DC0D5209-C0CE-4187-A591-293A64199C8F";
paths = (
{
closed = 1;
nodes = (
"611 630 LINE",
"570 691 OFFCURVE",
"513 715 OFFCURVE",
"428 715 CURVE SMOOTH",
"262 715 OFFCURVE",
"146 630 OFFCURVE",
"146 491 CURVE SMOOTH",
"146 400 OFFCURVE",
"221 372 OFFCURVE",
"347 346 CURVE SMOOTH",
"476 319 OFFCURVE",
"539 284 OFFCURVE",
"539 203 CURVE SMOOTH",
"539 78 OFFCURVE",
"438 12 OFFCURVE",
"283 12 CURVE SMOOTH",
"180 12 OFFCURVE",
"109 44 OFFCURVE",
"56 118 CURVE",
"39 105 LINE",
"95 30 OFFCURVE",
"170 -5 OFFCURVE",
"279 -5 CURVE SMOOTH",
"448 -5 OFFCURVE",
"559 75 OFFCURVE",
"559 208 CURVE SMOOTH",
"559 305 OFFCURVE",
"476 337 OFFCURVE",
"350 365 CURVE SMOOTH",
"226 393 OFFCURVE",
"166 418 OFFCURVE",
"166 495 CURVE SMOOTH",
"166 607 OFFCURVE",
"241 696 OFFCURVE",
"426 696 CURVE SMOOTH",
"506 696 OFFCURVE",
"555 678 OFFCURVE",
"595 616 CURVE"
);
}
);
width = 648;
},
{
anchors = (
{
name = bottom;
position = "{283, 0}";
},
{
name = top;
position = "{438, 721}";
}
);
layerId = "A8272220-FCE5-4C48-BDEF-D37440F7149C";
paths = (
{
closed = 1;
nodes = (
"639 634 LINE",
"592 683 OFFCURVE",
"525 715 OFFCURVE",
"434 715 CURVE SMOOTH",
"273 715 OFFCURVE",
"140 623 OFFCURVE",
"140 469 CURVE SMOOTH",
"140 384 OFFCURVE",
"201 348 OFFCURVE",
"311 318 CURVE SMOOTH",
"415 290 OFFCURVE",
"477 266 OFFCURVE",
"477 202 CURVE SMOOTH",
"477 120 OFFCURVE",
"412 74 OFFCURVE",
"303 74 CURVE SMOOTH",
"200 74 OFFCURVE",
"118 124 OFFCURVE",
"89 169 CURVE",
"29 93 LINE",
"91 28 OFFCURVE",
"179 -7 OFFCURVE",
"282 -7 CURVE SMOOTH",
"442 -7 OFFCURVE",
"577 69 OFFCURVE",
"577 230 CURVE SMOOTH",
"577 327 OFFCURVE",
"504 365 OFFCURVE",
"389 394 CURVE SMOOTH",
"289 419 OFFCURVE",
"237 439 OFFCURVE",
"237 498 CURVE SMOOTH",
"237 577 OFFCURVE",
"292 635 OFFCURVE",
"414 635 CURVE SMOOTH",
"495 635 OFFCURVE",
"559 598 OFFCURVE",
"581 561 CURVE"
);
}
);
width = 672;
},
{
anchors = (
{
name = bottom;
position = "{290, 0}";
},
{
name = top;
position = "{438, 710}";
}
);
layerId = "CD86D743-087E-48CD-95ED-391136C80322";
paths = (
{
closed = 1;
nodes = (
"670 639 LINE",
"617 671 OFFCURVE",
"531 716 OFFCURVE",
"434 716 CURVE SMOOTH",
"283 716 OFFCURVE",
"126 614 OFFCURVE",
"126 437 CURVE SMOOTH",
"126 359 OFFCURVE",
"165 312 OFFCURVE",
"252 277 CURVE SMOOTH",
"317 251 OFFCURVE",
"379 240 OFFCURVE",
"379 203 CURVE SMOOTH",
"379 182 OFFCURVE",
"368 167 OFFCURVE",
"329 167 CURVE SMOOTH",
"226 167 OFFCURVE",
"129 245 OFFCURVE",
"134 245 CURVE",
"13 74 LINE",
"82 24 OFFCURVE",
"190 -9 OFFCURVE",
"286 -9 CURVE SMOOTH",
"429 -9 OFFCURVE",
"597 59 OFFCURVE",
"597 260 CURVE SMOOTH",
"597 360 OFFCURVE",
"536 402 OFFCURVE",
"441 437 CURVE SMOOTH",
"380 460 OFFCURVE",
"338 470 OFFCURVE",
"338 502 CURVE SMOOTH",
"338 531 OFFCURVE",
"361 543 OFFCURVE",
"390 543 CURVE SMOOTH",
"470 543 OFFCURVE",
"555 478 OFFCURVE",
"551 478 CURVE"
);
}
);
width = 695;
}
);
leftKerningGroup = S;
rightKerningGroup = S;
unicode = 0053;
userData = {
org.robofab.fontlab.mark = 0;
};
},
{
glyphname = Germandbls;
lastChange = "2016-11-11 06:12:52 +0000";
layers = (
{
layerId = "DC0D5209-C0CE-4187-A591-293A64199C8F";
paths = (
{
closed = 1;
nodes = (
"463 -10 OFFCURVE",
"555 61 OFFCURVE",
"555 162 CURVE SMOOTH",
"555 232 OFFCURVE",
"491 251 OFFCURVE",
"392 277 CURVE SMOOTH",
"320 296 OFFCURVE",
"279 310 OFFCURVE",
"279 361 CURVE SMOOTH",
"279 489 OFFCURVE",
"421 514 OFFCURVE",
"611 534 CURVE",
"613 550 LINE SMOOTH",
"624 647 OFFCURVE",
"570 714 OFFCURVE",
"464 714 CURVE SMOOTH",
"330 714 OFFCURVE",
"213 608 OFFCURVE",
"179 449 CURVE SMOOTH",
"84 0 LINE",
"103 0 LINE",
"198 449 LINE SMOOTH",
"229 597 OFFCURVE",
"335 694 OFFCURVE",
"457 694 CURVE SMOOTH",
"553 694 OFFCURVE",
"611 634 OFFCURVE",
"593 539 CURVE",
"599 551 LINE",
"412 529 OFFCURVE",
"259 506 OFFCURVE",
"259 354 CURVE SMOOTH",
"259 295 OFFCURVE",
"305 280 OFFCURVE",
"387 257 CURVE SMOOTH",
"480 231 OFFCURVE",
"535 214 OFFCURVE",
"535 155 CURVE SMOOTH",
"535 67 OFFCURVE",
"451 10 OFFCURVE",
"342 10 CURVE SMOOTH",
"272 10 OFFCURVE",
"224 35 OFFCURVE",
"185 87 CURVE",
"168 74 LINE",
"205 17 OFFCURVE",
"263 -10 OFFCURVE",
"338 -10 CURVE SMOOTH"
);
}
);
width = 657;
},
{
layerId = "A8272220-FCE5-4C48-BDEF-D37440F7149C";
paths = (
{
closed = 1;
nodes = (
"525 -10 OFFCURVE",
"623 62 OFFCURVE",
"623 174 CURVE SMOOTH",
"623 247 OFFCURVE",
"563 270 OFFCURVE",
"471 300 CURVE SMOOTH",
"412 319 OFFCURVE",
"378 333 OFFCURVE",
"378 373 CURVE SMOOTH",
"378 470 OFFCURVE",
"496 472 OFFCURVE",
"652 499 CURVE",
"654 526 LINE SMOOTH",
"662 639 OFFCURVE",
"593 714 OFFCURVE",
"470 714 CURVE SMOOTH",
"333 714 OFFCURVE",
"208 621 OFFCURVE",
"178 487 CURVE SMOOTH",
"71 0 LINE",
"153 0 LINE",
"257 473 LINE SMOOTH",
"276 560 OFFCURVE",
"344 638 OFFCURVE",
"451 638 CURVE SMOOTH",
"523 638 OFFCURVE",
"581 603 OFFCURVE",
"574 531 CURVE",
"596 556 LINE",
"449 541 OFFCURVE",
"292 510 OFFCURVE",
"292 351 CURVE SMOOTH",
"292 287 OFFCURVE",
"336 257 OFFCURVE",
"421 229 CURVE SMOOTH",
"489 207 OFFCURVE",
"535 199 OFFCURVE",
"535 154 CURVE SMOOTH",
"535 94 OFFCURVE",
"479 60 OFFCURVE",
"404 60 CURVE SMOOTH",
"345 60 OFFCURVE",
"294 82 OFFCURVE",
"250 138 CURVE",
"203 76 LINE",
"242 19 OFFCURVE",
"310 -10 OFFCURVE",
"392 -10 CURVE SMOOTH"
);
}
);
width = 689;
},
{
layerId = "CD86D743-087E-48CD-95ED-391136C80322";
paths = (
{
closed = 1;
nodes = (
"620 -10 OFFCURVE",
"706 77 OFFCURVE",
"706 203 CURVE SMOOTH",
"706 271 OFFCURVE",
"666 292 OFFCURVE",
"577 328 CURVE SMOOTH",
"553 337 OFFCURVE",
"529 350 OFFCURVE",
"529 368 CURVE SMOOTH",
"529 407 OFFCURVE",
"638 426 OFFCURVE",
"731 444 CURVE",
"734 496 LINE SMOOTH",
"743 646 OFFCURVE",
"646 714 OFFCURVE",
"501 714 CURVE SMOOTH",
"347 714 OFFCURVE",
"190 636 OFFCURVE",
"147 444 CURVE SMOOTH",
"48 0 LINE",
"227 0 LINE",
"318 409 LINE SMOOTH",
"340 508 OFFCURVE",
"384 564 OFFCURVE",
"476 564 CURVE SMOOTH",
"533 564 OFFCURVE",
"555 542 OFFCURVE",
"554 459 CURVE",
"628 548 LINE",
"439 530 OFFCURVE",
"347 451 OFFCURVE",
"347 325 CURVE SMOOTH",
"347 253 OFFCURVE",
"399 229 OFFCURVE",
"491 190 CURVE SMOOTH",
"515 180 OFFCURVE",
"517 168 OFFCURVE",
"517 157 CURVE SMOOTH",
"517 136 OFFCURVE",
"506 127 OFFCURVE",
"484 127 CURVE SMOOTH",
"443 127 OFFCURVE",
"398 152 OFFCURVE",
"354 195 CURVE",
"265 78 LINE",
"309 21 OFFCURVE",
"394 -10 OFFCURVE",
"475 -10 CURVE SMOOTH"
);
}
);
width = 759;
}
);
rightMetricsKey = s;
unicode = 1E9E;
},
{
glyphname = Schwa;
lastChange = "2016-11-11 06:11:37 +0000";
layers = (
{
layerId = "DC0D5209-C0CE-4187-A591-293A64199C8F";
paths = (
{
closed = 1;
nodes = (
"276 -10 CURVE SMOOTH",
"475 -10 OFFCURVE",
"674 188 OFFCURVE",
"674 417 CURVE SMOOTH",
"674 583 OFFCURVE",
"573 715 OFFCURVE",
"424 715 CURVE SMOOTH",
"308 715 OFFCURVE",
"181 643 OFFCURVE",
"125 548 CURVE",
"143 539 LINE",
"199 633 OFFCURVE",
"315 694 OFFCURVE",
"417 694 CURVE SMOOTH",
"575 694 OFFCURVE",
"675 552 OFFCURVE",
"647 362 CURVE",
"35 362 LINE",
"34 359 OFFCURVE",
"34 356 OFFCURVE",
"33 352 CURVE SMOOTH",
"-14 152 OFFCURVE",
"94 -10 OFFCURVE"
);
},
{
closed = 1;
nodes = (
"279 12 CURVE SMOOTH",
"118 12 OFFCURVE",
"24 149 OFFCURVE",
"52 340 CURVE",
"642 340 LINE",
"593 152 OFFCURVE",
"439 12 OFFCURVE"
);
}
);
width = 722;
},
{
layerId = "A8272220-FCE5-4C48-BDEF-D37440F7149C";
paths = (
{
closed = 1;
nodes = (
"283 -5 CURVE SMOOTH",
"491 -5 OFFCURVE",
"690 191 OFFCURVE",
"690 426 CURVE SMOOTH",
"690 589 OFFCURVE",
"592 715 OFFCURVE",
"443 715 CURVE SMOOTH",
"325 715 OFFCURVE",
"194 643 OFFCURVE",
"121 538 CURVE",
"197 499 LINE",
"237 576 OFFCURVE",
"329 632 OFFCURVE",
"417 632 CURVE SMOOTH",
"532 632 OFFCURVE",
"607 529 OFFCURVE",
"591 392 CURVE",
"48 392 LINE",
"42 378 OFFCURVE",
"27 343 OFFCURVE",
"27 283 CURVE SMOOTH",
"27 122 OFFCURVE",
"129 -5 OFFCURVE"
);
},
{
closed = 1;
nodes = (
"303 76 CURVE SMOOTH",
"181 76 OFFCURVE",
"103 180 OFFCURVE",
"124 314 CURVE",
"575 314 LINE",
"537 177 OFFCURVE",
"422 76 OFFCURVE"
);
}
);
width = 730;
},
{
layerId = "CD86D743-087E-48CD-95ED-391136C80322";
paths = (
{
closed = 1;
nodes = (
"293 -5 CURVE SMOOTH",
"559 -5 OFFCURVE",
"730 232 OFFCURVE",
"730 419 CURVE SMOOTH",
"730 560 OFFCURVE",
"644 714 OFFCURVE",
"450 714 CURVE SMOOTH",
"293 714 OFFCURVE",
"167 637 OFFCURVE",
"89 521 CURVE",
"279 464 LINE",
"304 514 OFFCURVE",
"365 543 OFFCURVE",
"416 543 CURVE SMOOTH",
"480 543 OFFCURVE",
"533 505 OFFCURVE",
"521 411 CURVE",
"41 411 LINE",
"29 380 OFFCURVE",
"12 339 OFFCURVE",
"12 288 CURVE SMOOTH",
"12 152 OFFCURVE",
"95 -5 OFFCURVE"
);
},
{
closed = 1;
nodes = (
"334 165 CURVE SMOOTH",
"261 165 OFFCURVE",
"216 203 OFFCURVE",
"218 268 CURVE",
"484 268 LINE",
"460 203 OFFCURVE",
"403 165 OFFCURVE"
);
}
);
width = 752;
}
);
rightKerningGroup = O;
unicode = 018F;
},
{
glyphname = T;
lastChange = "2016-11-11 06:11:37 +0000";
layers = (
{
anchors = (
{
name = bottom;
position = "{141, 0}";
},
{
name = top;
position = "{291, 707}";
}
);
layerId = "DC0D5209-C0CE-4187-A591-293A64199C8F";
paths = (
{
closed = 1;
nodes = (
"561 710 LINE",
"22 710 LINE",
"18 690 LINE",
"278 690 LINE",
"131 0 LINE",
"150 0 LINE",
"297 690 LINE",
"557 690 LINE"
);
}
);
width = 579;
},
{
anchors = (
{
name = bottom;
position = "{159, 0}";
},
{
name = top;
position = "{315, 708}";
}
);
layerId = "A8272220-FCE5-4C48-BDEF-D37440F7149C";
paths = (
{
closed = 1;
nodes = (
"589 710 LINE",
"35 710 LINE",
"17 630 LINE",
"249 630 LINE",
"112 0 LINE",
"201 0 LINE",
"338 630 LINE",
"571 630 LINE"
);
}
);
width = 606;
},
{
anchors = (
{
name = bottom;
position = "{179, 0}";
},
{
name = top;
position = "{344, 710}";
}
);
layerId = "CD86D743-087E-48CD-95ED-391136C80322";
paths = (
{
closed = 1;
nodes = (
"625 710 LINE",
"47 710 LINE",
"10 540 LINE",
"202 540 LINE",
"84 0 LINE",
"278 0 LINE",
"396 540 LINE",
"588 540 LINE"
);
}
);
width = 635;
}
);
leftKerningGroup = T;
rightKerningGroup = T;
unicode = 0054;
userData = {
org.robofab.fontlab.mark = 0;
};
},
{
glyphname = Tbar;
lastChange = "2016-11-11 06:11:37 +0000";
layers = (
{
background = {
components = (
{
name = T;
transform = "{1, 0, 0, 1, 20, 0}";
}
);
paths = (
{
closed = 1;
nodes = (
"562 307 LINE",
"562 327 LINE",
"78 327 LINE",
"78 307 LINE"
);
}
);
};
components = (
{
name = T;
transform = "{1, 0, 0, 1, -42, 0}";
}
);
layerId = "DC0D5209-C0CE-4187-A591-293A64199C8F";
paths = (
{
closed = 1;
nodes = (
"537 307 LINE",
"541 327 LINE",
"82 327 LINE",
"78 307 LINE"
);
}
);
width = 640;
},
{
background = {
components = (
{
name = T;
transform = "{1, 0, 0, 1, 14, 0}";
}
);
paths = (
{
closed = 1;
nodes = (
"567 309 LINE",
"567 375 LINE",
"75 375 LINE",
"75 309 LINE"
);
}
);
};
components = (
{
name = T;
transform = "{1, 0, 0, 1, -50, 0}";
}
);
layerId = "A8272220-FCE5-4C48-BDEF-D37440F7149C";
paths = (
{
closed = 1;
nodes = (
"541 309 LINE",
"556 375 LINE",
"90 375 LINE",
"75 309 LINE"
);
}
);
width = 642;
},
{
background = {
components = (
{
name = T;
transform = "{1, 0, 0, 1, 11, 0}";
}
);
paths = (
{
closed = 1;
nodes = (
"575 268 LINE",
"575 356 LINE",
"71 356 LINE",
"71 268 LINE"
);
}
);
};
components = (
{
name = T;
transform = "{1, 0, 0, 1, -45, 0}";
}
);
layerId = "CD86D743-087E-48CD-95ED-391136C80322";
paths = (
{
closed = 1;
nodes = (
"549 268 LINE",
"569 356 LINE",
"91 356 LINE",
"71 268 LINE"
);
}
);
width = 646;
}
);
leftKerningGroup = T;
rightKerningGroup = T;
unicode = 0166;
userData = {
org.robofab.fontlab.mark = 0;
};
},
{
glyphname = U;
lastChange = "2016-11-11 06:11:37 +0000";
layers = (
{
anchors = (
{
name = bottom;
position = "{291, 0}";
},
{
name = ogonek;
position = "{346, 0}";
},
{
name = top;
position = "{442, 707}";
},
{
name = topright;
position = "{765, 672}";
}
);
layerId = "DC0D5209-C0CE-4187-A591-293A64199C8F";
paths = (
{
closed = 1;
nodes = (
"499 -5 OFFCURVE",
"604 167 OFFCURVE",
"644 355 CURVE SMOOTH",
"719 710 LINE",
"700 710 LINE",
"625 355 LINE SMOOTH",
"590 189 OFFCURVE",
"498 15 OFFCURVE",
"293 15 CURVE SMOOTH",
"93 15 OFFCURVE",
"71 184 OFFCURVE",
"107 355 CURVE SMOOTH",
"182 710 LINE",
"163 710 LINE",
"88 355 LINE SMOOTH",
"50 177 OFFCURVE",
"75 -5 OFFCURVE",
"290 -5 CURVE SMOOTH"
);
}
);
width = 806;
},
{
anchors = (
{
name = bottom;
position = "{287, 0}";
},
{
name = ogonek;
position = "{349, 1}";
},
{
name = top;
position = "{442, 708}";
},
{
name = topright;
position = "{737, 646}";
}
);
layerId = "A8272220-FCE5-4C48-BDEF-D37440F7149C";
paths = (
{
closed = 1;
nodes = (
"494 -5 OFFCURVE",
"610 159 OFFCURVE",
"652 351 CURVE SMOOTH",
"731 710 LINE",
"642 710 LINE",
"563 351 LINE SMOOTH",
"533 215 OFFCURVE",
"458 76 OFFCURVE",
"303 76 CURVE SMOOTH",
"151 76 OFFCURVE",
"133 211 OFFCURVE",
"164 351 CURVE SMOOTH",
"243 710 LINE",
"154 710 LINE",
"75 351 LINE SMOOTH",
"35 169 OFFCURVE",
"71 -5 OFFCURVE",
"286 -5 CURVE SMOOTH"
);
}
);
width = 806;
},
{
anchors = (
{
name = bottom;
position = "{282, 0}";
},
{
name = ogonek;
position = "{376, 6}";
},
{
name = top;
position = "{437, 710}";
},
{
name = topright;
position = "{704, 638}";
}
);
layerId = "CD86D743-087E-48CD-95ED-391136C80322";
paths = (
{
closed = 1;
nodes = (
"489 -6 OFFCURVE",
"621 147 OFFCURVE",
"664 345 CURVE SMOOTH",
"744 710 LINE",
"550 710 LINE",
"470 345 LINE SMOOTH",
"450 253 OFFCURVE",
"400 167 OFFCURVE",
"318 167 CURVE SMOOTH",
"238 167 OFFCURVE",
"224 251 OFFCURVE",
"245 345 CURVE SMOOTH",
"325 710 LINE",
"131 710 LINE",
"51 345 LINE SMOOTH",
"10 157 OFFCURVE",
"63 -6 OFFCURVE",
"280 -6 CURVE SMOOTH"
);
}
);
width = 795;
}
);
leftKerningGroup = U;
rightKerningGroup = U;
unicode = 0055;
userData = {
org.robofab.fontlab.mark = 0;
};
},
{
glyphname = V;
lastChange = "2016-11-11 06:11:37 +0000";
layers = (
{
background = {
paths = (
{
closed = 1;
nodes = (
"19 710 LINE",
"328 0 LINE",
"350 0 LINE",
"659 710 LINE",
"637 710 LINE",
"339 25 LINE",
"40 710 LINE"
);
}
);
};
layerId = "DC0D5209-C0CE-4187-A591-293A64199C8F";
paths = (
{
closed = 1;
nodes = (
"19 710 LINE",
"165 0 LINE",
"186 0 LINE",
"634 710 LINE",
"613 710 LINE",
"181 25 LINE",
"39 710 LINE"
);
}
);
width = 653;
},
{
background = {
paths = (
{
closed = 1;
nodes = (
"10 710 LINE",
"301 0 LINE",
"379 0 LINE",
"669 710 LINE",
"574 710 LINE",
"340 113 LINE",
"105 710 LINE"
);
}
);
};
layerId = "A8272220-FCE5-4C48-BDEF-D37440F7149C";
paths = (
{
closed = 1;
nodes = (
"10 710 LINE",
"132 0 LINE",
"214 0 LINE",
"644 710 LINE",
"550 710 LINE",
"198 113 LINE",
"104 710 LINE"
);
}
);
width = 655;
},
{
background = {
paths = (
{
closed = 1;
nodes = (
"-8 710 LINE",
"256 0 LINE",
"418 0 LINE",
"679 710 LINE",
"474 710 LINE",
"337 245 LINE",
"198 710 LINE"
);
}
);
};
layerId = "CD86D743-087E-48CD-95ED-391136C80322";
paths = (
{
closed = 1;
nodes = (
"-8 710 LINE",
"73 0 LINE",
"266 0 LINE",
"654 710 LINE",
"450 710 LINE",
"219 225 LINE",
"197 710 LINE"
);
}
);
width = 647;
}
);
unicode = 0056;
userData = {
org.robofab.fontlab.mark = 0;
};
},
{
glyphname = W;
lastChange = "2016-11-11 06:11:37 +0000";
layers = (
{
anchors = (
{
name = top;
position = "{505, 707}";
}
);
background = {
anchors = (
{
name = top;
position = "{518, 707}";
}
);
paths = (
{
closed = 1;
nodes = (
"508 414 LINE",
"339 25 LINE",
"41 710 LINE",
"19 710 LINE",
"328 0 LINE",
"350 0 LINE",
"519 389 LINE",
"688 0 LINE",
"710 0 LINE",
"1019 710 LINE",
"997 710 LINE",
"699 25 LINE",
"529 414 LINE",
"656 704 LINE",
"634 704 LINE",
"518 438 LINE",
"403 704 LINE",
"381 704 LINE"
);
}
);
};
layerId = "DC0D5209-C0CE-4187-A591-293A64199C8F";
paths = (
{
closed = 1;
nodes = (
"433 414 LINE",
"185 25 LINE",
"40 710 LINE",
"19 710 LINE",
"169 0 LINE",
"191 0 LINE",
"438 389 LINE",
"520 0 LINE",
"542 0 LINE",
"994 710 LINE",
"973 710 LINE",
"536 25 LINE",
"453 414 LINE",
"639 704 LINE",
"617 704 LINE",
"448 438 LINE",
"392 704 LINE",
"371 704 LINE"
);
}
);
width = 1013;
},
{
anchors = (
{
name = top;
position = "{511, 708}";
}
);
background = {
anchors = (
{
name = top;
position = "{524, 708}";
}
);
paths = (
{
closed = 1;
nodes = (
"468 397 LINE",
"347 104 LINE",
"106 710 LINE",
"9 710 LINE",
"305 0 LINE",
"383 0 LINE",
"525 335 LINE",
"666 0 LINE",
"744 0 LINE",
"1041 710 LINE",
"943 710 LINE",
"703 104 LINE",
"581 397 LINE",
"704 706 LINE",
"619 706 LINE",
"524 459 LINE",
"430 706 LINE",
"345 706 LINE"
);
}
);
};
layerId = "A8272220-FCE5-4C48-BDEF-D37440F7149C";
paths = (
{
closed = 1;
nodes = (
"388 397 LINE",
"208 104 LINE",
"105 710 LINE",
"9 710 LINE",
"144 0 LINE",
"221 0 LINE",
"431 335 LINE",
"496 0 LINE",
"573 0 LINE",
"1016 710 LINE",
"919 710 LINE",
"555 104 LINE",
"501 397 LINE",
"687 706 LINE",
"603 706 LINE",
"457 459 LINE",
"420 706 LINE",
"335 706 LINE"
);
}
);
width = 1024;
},
{
anchors = (
{
name = top;
position = "{516, 710}";
}
);
background = {
anchors = (
{
name = top;
position = "{528, 710}";
}
);
paths = (
{
closed = 1;
nodes = (
"402 371 LINE",
"353 223 LINE",
"199 710 LINE",
"-12 710 LINE",
"266 0 LINE",
"428 0 LINE",
"528 254 LINE",
"629 0 LINE",
"791 0 LINE",
"1069 710 LINE",
"857 710 LINE",
"704 223 LINE",
"653 371 LINE",
"770 710 LINE",
"591 710 LINE",
"528 491 LINE",
"466 710 LINE",
"287 710 LINE"
);
}
);
};
layerId = "CD86D743-087E-48CD-95ED-391136C80322";
paths = (
{
closed = 1;
nodes = (
"317 371 LINE",
"240 226 LINE",
"198 710 LINE",
"-12 710 LINE",
"95 0 LINE",
"263 0 LINE",
"417 254 LINE",
"462 0 LINE",
"630 0 LINE",
"1044 710 LINE",
"833 710 LINE",
"582 226 LINE",
"567 371 LINE",
"757 710 LINE",
"579 710 LINE",
"468 491 LINE",
"453 710 LINE",
"275 710 LINE"
);
}
);
width = 1032;
}
);
leftKerningGroup = W;
rightKerningGroup = W;
unicode = 0057;
userData = {
org.robofab.fontlab.mark = 0;
};
},
{
glyphname = X;
lastChange = "2016-11-11 06:11:37 +0000";
layers = (
{
background = {
paths = (
{
closed = 1;
nodes = (
"11 710 LINE",
"298 350 LINE",
"19 0 LINE",
"45 0 LINE",
"311 334 LINE",
"577 0 LINE",
"602 0 LINE",
"323 350 LINE",
"610 710 LINE",
"585 710 LINE",
"311 366 LINE",
"37 710 LINE"
);
}
);
};
layerId = "DC0D5209-C0CE-4187-A591-293A64199C8F";
paths = (
{
closed = 1;
nodes = (
"154 710 LINE",
"353 350 LINE",
"11 0 LINE",
"36 0 LINE",
"362 334 LINE",
"546 0 LINE",
"570 0 LINE",
"377 350 LINE",
"728 710 LINE",
"704 710 LINE",
"369 366 LINE",
"179 710 LINE"
);
}
);
width = 739;
},
{
background = {
paths = (
{
closed = 1;
nodes = (
"3 710 LINE",
"270 350 LINE",
"11 0 LINE",
"111 0 LINE",
"319 286 LINE",
"527 0 LINE",
"626 0 LINE",
"367 350 LINE",
"634 710 LINE",
"535 710 LINE",
"319 414 LINE",
"103 710 LINE"
);
}
);
};
layerId = "A8272220-FCE5-4C48-BDEF-D37440F7149C";
paths = (
{
closed = 1;
nodes = (
"150 710 LINE",
"325 350 LINE",
"3 0 LINE",
"104 0 LINE",
"360 284 LINE",
"494 0 LINE",
"594 0 LINE",
"425 350 LINE",
"756 710 LINE",
"657 710 LINE",
"390 416 LINE",
"251 710 LINE"
);
}
);
width = 759;
},
{
background = {
paths = (
{
closed = 1;
nodes = (
"-11 710 LINE",
"226 350 LINE",
"-3 0 LINE",
"208 0 LINE",
"329 214 LINE",
"450 0 LINE",
"660 0 LINE",
"431 350 LINE",
"668 710 LINE",
"458 710 LINE",
"329 486 LINE",
"200 710 LINE"
);
}
);
};
layerId = "CD86D743-087E-48CD-95ED-391136C80322";
paths = (
{
closed = 1;
nodes = (
"138 710 LINE",
"266 350 LINE",
"-11 0 LINE",
"199 0 LINE",
"353 214 LINE",
"414 0 LINE",
"622 0 LINE",
"498 350 LINE",
"786 710 LINE",
"577 710 LINE",
"413 486 LINE",
"347 710 LINE"
);
}
);
width = 775;
}
);
unicode = 0058;
userData = {
org.robofab.fontlab.mark = 0;
};
},
{
glyphname = Y;
lastChange = "2016-11-11 06:11:37 +0000";
layers = (
{
anchors = (
{
name = bottom;
position = "{158, 0}";
},
{
name = top;
position = "{307, 707}";
},
{
name = topleft;
position = "{20, 710}";
}
);
background = {
anchors = (
{
name = bottom;
position = "{321, 0}";
},
{
name = top;
position = "{320, 707}";
},
{
name = topleft;
position = "{20, 710}";
}
);
paths = (
{
closed = 1;
nodes = (
"23 710 LINE",
"310 277 LINE",
"310 0 LINE",
"330 0 LINE",
"330 275 LINE",
"618 710 LINE",
"595 710 LINE",
"320 298 LINE",
"46 710 LINE"
);
}
);
};
layerId = "DC0D5209-C0CE-4187-A591-293A64199C8F";
paths = (
{
closed = 1;
nodes = (
"23 710 LINE",
"206 277 LINE",
"147 0 LINE",
"166 0 LINE",
"225 275 LINE",
"593 710 LINE",
"571 710 LINE",
"220 298 LINE",
"45 710 LINE"
);
}
);
width = 616;
},
{
anchors = (
{
name = bottom;
position = "{160, 0}";
},
{
name = top;
position = "{314, 708}";
},
{
name = topleft;
position = "{20, 710}";
}
);
background = {
anchors = (
{
name = bottom;
position = "{328, 0}";
},
{
name = top;
position = "{327, 708}";
},
{
name = topleft;
position = "{20, 710}";
}
);
paths = (
{
closed = 1;
nodes = (
"13 710 LINE",
"282 261 LINE",
"282 0 LINE",
"372 0 LINE",
"372 259 LINE",
"642 710 LINE",
"544 710 LINE",
"327 340 LINE",
"112 710 LINE"
);
}
);
};
layerId = "A8272220-FCE5-4C48-BDEF-D37440F7149C";
paths = (
{
closed = 1;
nodes = (
"13 710 LINE",
"172 261 LINE",
"115 0 LINE",
"204 0 LINE",
"260 259 LINE",
"617 710 LINE",
"520 710 LINE",
"234 340 LINE",
"111 710 LINE"
);
}
);
width = 630;
},
{
anchors = (
{
name = bottom;
position = "{165, 0}";
},
{
name = top;
position = "{319, 710}";
},
{
name = topleft;
position = "{20, 710}";
}
);
background = {
anchors = (
{
name = bottom;
position = "{333, 0}";
},
{
name = top;
position = "{332, 710}";
},
{
name = topleft;
position = "{20, 710}";
}
);
paths = (
{
closed = 1;
nodes = (
"-6 710 LINE",
"235 237 LINE",
"235 0 LINE",
"429 0 LINE",
"429 235 LINE",
"674 710 LINE",
"462 710 LINE",
"332 403 LINE",
"205 710 LINE"
);
}
);
};
layerId = "CD86D743-087E-48CD-95ED-391136C80322";
paths = (
{
closed = 1;
nodes = (
"-6 710 LINE",
"119 237 LINE",
"68 0 LINE",
"261 0 LINE",
"312 235 LINE",
"649 710 LINE",
"438 710 LINE",
"256 420 LINE",
"204 710 LINE"
);
}
);
width = 641;
}
);
leftKerningGroup = Y;
rightKerningGroup = Y;
unicode = 0059;
userData = {
org.robofab.fontlab.mark = 0;
};
},
{
glyphname = Z;
lastChange = "2016-11-11 06:11:37 +0000";
layers = (
{
anchors = (
{
name = bottom;
position = "{299, 0}";
},
{
name = top;
position = "{467, 707}";
}
);
background = {
anchors = (
{
name = bottom;
position = "{312, 0}";
},
{
name = top;
position = "{330, 707}";
}
);
paths = (
{
closed = 1;
nodes = (
"28 0 LINE",
"591 0 LINE",
"591 20 LINE",
"53 20 LINE",
"595 690 LINE",
"595 710 LINE",
"33 710 LINE",
"33 690 LINE",
"570 690 LINE",
"28 20 LINE"
);
}
);
};
layerId = "DC0D5209-C0CE-4187-A591-293A64199C8F";
paths = (
{
closed = 1;
nodes = (
"28 0 LINE",
"566 0 LINE",
"570 20 LINE",
"56 20 LINE",
"717 690 LINE",
"721 710 LINE",
"184 710 LINE",
"179 690 LINE",
"693 690 LINE",
"32 20 LINE"
);
}
);
width = 750;
},
{
anchors = (
{
name = bottom;
position = "{301, 0}";
},
{
name = top;
position = "{471, 708}";
}
);
background = {
anchors = (
{
name = bottom;
position = "{316, 0}";
},
{
name = top;
position = "{331, 708}";
}
);
paths = (
{
closed = 1;
nodes = (
"32 0 LINE",
"595 0 LINE",
"595 80 LINE",
"145 80 LINE",
"595 640 LINE",
"595 710 LINE",
"41 710 LINE",
"41 630 LINE",
"490 630 LINE",
"32 70 LINE"
);
}
);
};
layerId = "A8272220-FCE5-4C48-BDEF-D37440F7149C";
paths = (
{
closed = 1;
nodes = (
"32 0 LINE",
"565 0 LINE",
"583 80 LINE",
"162 80 LINE",
"705 640 LINE",
"721 710 LINE",
"197 710 LINE",
"179 630 LINE",
"599 630 LINE",
"48 70 LINE"
);
}
);
width = 757;
},
{
anchors = (
{
name = bottom;
position = "{296, 0}";
},
{
name = top;
position = "{460, 710}";
}
);
background = {
anchors = (
{
name = bottom;
position = "{311, 0}";
},
{
name = top;
position = "{320, 710}";
}
);
paths = (
{
closed = 1;
nodes = (
"27 0 LINE",
"590 0 LINE",
"590 170 LINE",
"272 170 LINE",
"584 565 LINE",
"584 710 LINE",
"42 710 LINE",
"42 540 LINE",
"359 540 LINE",
"27 145 LINE"
);
}
);
};
layerId = "CD86D743-087E-48CD-95ED-391136C80322";
paths = (
{
closed = 1;
nodes = (
"27 0 LINE",
"560 0 LINE",
"597 170 LINE",
"318 170 LINE",
"678 565 LINE",
"710 710 LINE",
"198 710 LINE",
"161 540 LINE",
"439 540 LINE",
"59 145 LINE"
);
}
);
width = 742;
}
);
leftKerningGroup = Z;
rightKerningGroup = Z;
unicode = 005A;
userData = {
org.robofab.fontlab.mark = 0;
};
},
{
glyphname = W.ss09;
lastChange = "2016-11-11 06:11:37 +0000";
layers = (
{
layerId = "DC0D5209-C0CE-4187-A591-293A64199C8F";
paths = (
{
closed = 1;
nodes = (
"952 710 LINE",
"594 25 LINE",
"506 710 LINE",
"485 710 LINE",
"117 25 LINE",
"49 710 LINE",
"29 710 LINE",
"101 0 LINE",
"123 0 LINE",
"490 678 LINE",
"578 0 LINE",
"599 0 LINE",
"973 710 LINE"
);
}
);
width = 1002;
},
{
layerId = "A8272220-FCE5-4C48-BDEF-D37440F7149C";
paths = (
{
closed = 1;
nodes = (
"933 710 LINE",
"636 133 LINE",
"571 710 LINE",
"474 710 LINE",
"168 133 LINE",
"118 710 LINE",
"18 710 LINE",
"84 0 LINE",
"177 0 LINE",
"491 563 LINE",
"568 0 LINE",
"661 0 LINE",
"1034 710 LINE"
);
}
);
width = 1052;
},
{
background = {
paths = (
{
closed = 1;
nodes = (
"927 711 LINE",
"809 296 LINE",
"680 710 LINE",
"468 710 LINE",
"340 295 LINE",
"221 710 LINE",
"0 710 LINE",
"219 0 LINE",
"421 0 LINE",
"574 391 LINE",
"728 1 LINE",
"930 1 LINE",
"1149 711 LINE"
);
}
);
};
layerId = "CD86D743-087E-48CD-95ED-391136C80322";
paths = (
{
closed = 1;
nodes = (
"884 711 LINE",
"685 291 LINE",
"639 710 LINE",
"456 710 LINE",
"231 290 LINE",
"212 710 LINE",
"0 710 LINE",
"56 0 LINE",
"250 0 LINE",
"477 396 LINE",
"536 1 LINE",
"734 1 LINE",
"1097 711 LINE"
);
}
);
width = 1097;
},
{
associatedMasterId = "CD86D743-087E-48CD-95ED-391136C80322";
layerId = "90BF44CB-F507-4D76-90EC-884700749D0C";
name = "Nov 8 16, 02:36";
paths = (
{
closed = 1;
nodes = (
"927 711 LINE",
"809 296 LINE",
"680 710 LINE",
"468 710 LINE",
"340 295 LINE",
"221 710 LINE",
"0 710 LINE",
"219 0 LINE",
"421 0 LINE",
"574 391 LINE",
"728 1 LINE",
"930 1 LINE",
"1149 711 LINE"
);
}
);
width = 1149;
}
);
userData = {
org.robofab.fontlab.mark = 0;
};
},
{
glyphname = G.ss11;
lastChange = "2016-11-11 06:11:37 +0000";
layers = (
{
layerId = "DC0D5209-C0CE-4187-A591-293A64199C8F";
paths = (
{
closed = 1;
nodes = (
"296 -5 CURVE SMOOTH",
"465 -5 OFFCURVE",
"624 144 OFFCURVE",
"680 308 CURVE SMOOTH",
"683 317 OFFCURVE",
"685 323 OFFCURVE",
"686 329 CURVE",
"428 329 LINE",
"424 309 LINE",
"661 309 LINE",
"609 158 OFFCURVE",
"464 15 OFFCURVE",
"303 15 CURVE SMOOTH",
"155 15 OFFCURVE",
"67 145 OFFCURVE",
"67 290 CURVE SMOOTH",
"67 484 OFFCURVE",
"244 695 OFFCURVE",
"446 695 CURVE SMOOTH",
"552 695 OFFCURVE",
"627 633 OFFCURVE",
"661 544 CURVE",
"678 558 LINE",
"642 649 OFFCURVE",
"564 715 OFFCURVE",
"451 715 CURVE SMOOTH",
"247 715 OFFCURVE",
"48 505 OFFCURVE",
"48 289 CURVE SMOOTH",
"48 135 OFFCURVE",
"140 -5 OFFCURVE"
);
}
);
width = 714;
},
{
layerId = "A8272220-FCE5-4C48-BDEF-D37440F7149C";
paths = (
{
closed = 1;
nodes = (
"298 -5 CURVE SMOOTH",
"472 -5 OFFCURVE",
"627 141 OFFCURVE",
"676 308 CURVE SMOOTH",
"677 314 OFFCURVE",
"687 353 OFFCURVE",
"688 357 CURVE",
"408 357 LINE",
"390 277 LINE",
"573 277 LINE",
"532 174 OFFCURVE",
"426 76 OFFCURVE",
"309 76 CURVE SMOOTH",
"191 76 OFFCURVE",
"131 184 OFFCURVE",
"131 298 CURVE SMOOTH",
"131 457 OFFCURVE",
"264 634 OFFCURVE",
"430 634 CURVE SMOOTH",
"527 634 OFFCURVE",
"577 565 OFFCURVE",
"597 506 CURVE",
"681 563 LINE",
"647 655 OFFCURVE",
"568 715 OFFCURVE",
"453 715 CURVE SMOOTH",
"231 715 OFFCURVE",
"40 503 OFFCURVE",
"40 291 CURVE SMOOTH",
"40 135 OFFCURVE",
"134 -5 OFFCURVE"
);
}
);
width = 714;
},
{
background = {
paths = (
{
closed = 1;
nodes = (
"381 -5 CURVE SMOOTH",
"571 -5 OFFCURVE",
"693 137 OFFCURVE",
"693 309 CURVE SMOOTH",
"693 339 OFFCURVE",
"693 368 OFFCURVE",
"693 398 CURVE",
"371 398 LINE",
"371 228 LINE",
"482 228 LINE",
"464 197 OFFCURVE",
"416 168 OFFCURVE",
"361 168 CURVE SMOOTH",
"256 168 OFFCURVE",
"220 273 OFFCURVE",
"220 356 CURVE SMOOTH",
"220 448 OFFCURVE",
"265 542 OFFCURVE",
"362 542 CURVE SMOOTH",
"450 542 OFFCURVE",
"485 463 OFFCURVE",
"491 449 CURVE",
"646 570 LINE",
"593 664 OFFCURVE",
"496 715 OFFCURVE",
"374 715 CURVE SMOOTH",
"153 715 OFFCURVE",
"22 541 OFFCURVE",
"22 361 CURVE SMOOTH",
"22 171 OFFCURVE",
"169 -5 OFFCURVE"
);
}
);
};
layerId = "CD86D743-087E-48CD-95ED-391136C80322";
paths = (
{
closed = 1;
nodes = (
"282 -5 CURVE SMOOTH",
"474 -5 OFFCURVE",
"628 138 OFFCURVE",
"667 309 CURVE SMOOTH",
"674 339 OFFCURVE",
"680 368 OFFCURVE",
"686 398 CURVE",
"374 398 LINE",
"344 238 LINE",
"452 238 LINE",
"428 198 OFFCURVE",
"378 164 OFFCURVE",
"323 164 CURVE SMOOTH",
"245 164 OFFCURVE",
"222 240 OFFCURVE",
"222 308 CURVE SMOOTH",
"222 415 OFFCURVE",
"289 542 OFFCURVE",
"400 542 CURVE SMOOTH",
"483 542 OFFCURVE",
"497 463 OFFCURVE",
"498 449 CURVE",
"679 570 LINE",
"649 664 OFFCURVE",
"567 715 OFFCURVE",
"449 715 CURVE SMOOTH",
"201 715 OFFCURVE",
"22 503 OFFCURVE",
"22 285 CURVE SMOOTH",
"22 134 OFFCURVE",
"103 -5 OFFCURVE"
);
}
);
width = 704;
},
{
associatedMasterId = "CD86D743-087E-48CD-95ED-391136C80322";
layerId = "DAAB81FC-3B22-498D-B97D-75A8044B00F2";
name = "Nov 8 16, 02:43";
paths = (
{
closed = 1;
nodes = (
"381 -5 CURVE SMOOTH",
"571 -5 OFFCURVE",
"693 137 OFFCURVE",
"693 309 CURVE SMOOTH",
"693 339 OFFCURVE",
"693 368 OFFCURVE",
"693 398 CURVE",
"371 398 LINE",
"371 228 LINE",
"482 228 LINE",
"464 197 OFFCURVE",
"416 168 OFFCURVE",
"361 168 CURVE SMOOTH",
"256 168 OFFCURVE",
"220 273 OFFCURVE",
"220 356 CURVE SMOOTH",
"220 448 OFFCURVE",
"265 542 OFFCURVE",
"362 542 CURVE SMOOTH",
"450 542 OFFCURVE",
"485 463 OFFCURVE",
"491 449 CURVE",
"646 570 LINE",
"593 664 OFFCURVE",
"496 715 OFFCURVE",
"374 715 CURVE SMOOTH",
"153 715 OFFCURVE",
"22 541 OFFCURVE",
"22 361 CURVE SMOOTH",
"22 171 OFFCURVE",
"169 -5 OFFCURVE"
);
}
);
width = 711;
}
);
leftKerningGroup = O;
userData = {
org.robofab.fontlab.mark = 0;
};
},
{
glyphname = a;
lastChange = "2016-11-11 06:11:37 +0000";
layers = (
{
anchors = (
{
name = bottom;
position = "{228, 0}";
},
{
name = ogonek;
position = "{410, 0}";
},
{
name = top;
position = "{327, 519}";
}
);
layerId = "DC0D5209-C0CE-4187-A591-293A64199C8F";
paths = (
{
closed = 1;
nodes = (
"39 47 OFFCURVE",
"90 -10 OFFCURVE",
"167 -10 CURVE SMOOTH",
"252 -10 OFFCURVE",
"337 26 OFFCURVE",
"394 88 CURVE",
"384 40 LINE SMOOTH",
"381 23 OFFCURVE",
"386 7 OFFCURVE",
"397 2 CURVE SMOOTH",
"400 1 OFFCURVE",
"403 0 OFFCURVE",
"410 0 CURVE",
"414 20 LINE",
"405 20 OFFCURVE",
"401 27 OFFCURVE",
"403 40 CURVE SMOOTH",
"464 327 LINE SMOOTH",
"490 449 OFFCURVE",
"437 527 OFFCURVE",
"328 527 CURVE SMOOTH",
"277 527 OFFCURVE",
"216 504 OFFCURVE",
"144 459 CURVE",
"152 443 LINE",
"216 484 OFFCURVE",
"277 507 OFFCURVE",
"324 507 CURVE SMOOTH",
"420 507 OFFCURVE",
"469 435 OFFCURVE",
"445 327 CURVE SMOOTH",
"432 268 LINE",
"391 286 OFFCURVE",
"331 297 OFFCURVE",
"276 297 CURVE SMOOTH",
"143 297 OFFCURVE",
"39 225 OFFCURVE",
"39 121 CURVE SMOOTH"
);
},
{
closed = 1;
nodes = (
"337 47 OFFCURVE",
"255 10 OFFCURVE",
"171 10 CURVE SMOOTH",
"104 10 OFFCURVE",
"58 60 OFFCURVE",
"58 124 CURVE SMOOTH",
"58 216 OFFCURVE",
"149 277 OFFCURVE",
"271 277 CURVE SMOOTH",
"330 277 OFFCURVE",
"382 267 OFFCURVE",
"428 246 CURVE",
"406 143 LINE SMOOTH",
"404 131 OFFCURVE",
"396 116 OFFCURVE",
"384 102 CURVE SMOOTH"
);
}
);
width = 525;
},
{
anchors = (
{
name = bottom;
position = "{254, 0}";
},
{
name = ogonek;
position = "{457, 0}";
},
{
name = top;
position = "{339, 522}";
}
);
background = {
anchors = (
{
name = bottom;
position = "{299, 0}";
},
{
name = ogonek;
position = "{512, 0}";
},
{
name = top;
position = "{266, 522}";
}
);
paths = (
{
closed = 1;
nodes = (
"30 61 OFFCURVE",
"106 -10 OFFCURVE",
"205 -10 CURVE SMOOTH",
"286 -10 OFFCURVE",
"361 24 OFFCURVE",
"408 86 CURVE",
"410 49 LINE SMOOTH",
"414 20 OFFCURVE",
"435 -4 OFFCURVE",
"470 -4 CURVE SMOOTH",
"483 -4 OFFCURVE",
"494 -3 OFFCURVE",
"512 0 CURVE",
"512 76 LINE",
"492 77 OFFCURVE",
"484 86 OFFCURVE",
"484 108 CURVE SMOOTH",
"484 321 LINE SMOOTH",
"484 453 OFFCURVE",
"402 531 OFFCURVE",
"266 531 CURVE SMOOTH",
"197 531 OFFCURVE",
"130 508 OFFCURVE",
"63 463 CURVE",
"92 403 LINE",
"149 443 OFFCURVE",
"204 464 OFFCURVE",
"258 464 CURVE SMOOTH",
"345 464 OFFCURVE",
"396 413 OFFCURVE",
"396 330 CURVE SMOOTH",
"396 288 LINE",
"356 304 OFFCURVE",
"301 314 OFFCURVE",
"250 314 CURVE SMOOTH",
"121 314 OFFCURVE",
"30 248 OFFCURVE",
"30 153 CURVE SMOOTH"
);
},
{
closed = 1;
nodes = (
"349 81 OFFCURVE",
"290 56 OFFCURVE",
"228 56 CURVE SMOOTH",
"163 56 OFFCURVE",
"114 101 OFFCURVE",
"114 160 CURVE SMOOTH",
"114 219 OFFCURVE",
"175 259 OFFCURVE",
"263 259 CURVE SMOOTH",
"308 259 OFFCURVE",
"355 250 OFFCURVE",
"396 234 CURVE",
"396 159 LINE SMOOTH",
"396 147 OFFCURVE",
"389 132 OFFCURVE",
"377 120 CURVE SMOOTH"
);
}
);
};
layerId = "A8272220-FCE5-4C48-BDEF-D37440F7149C";
paths = (
{
closed = 1;
nodes = (
"30 48 OFFCURVE",
"83 -10 OFFCURVE",
"168 -10 CURVE SMOOTH",
"236 -10 OFFCURVE",
"318 23 OFFCURVE",
"374 82 CURVE",
"369 49 LINE SMOOTH",
"365 24 OFFCURVE",
"378 -4 OFFCURVE",
"419 -4 CURVE SMOOTH",
"427 -4 OFFCURVE",
"439 -3 OFFCURVE",
"457 0 CURVE",
"473 68 LINE",
"454 69 OFFCURVE",
"448 78 OFFCURVE",
"453 100 CURVE SMOOTH",
"501 321 LINE SMOOTH",
"530 453 OFFCURVE",
"469 531 OFFCURVE",
"343 531 CURVE SMOOTH",
"273 531 OFFCURVE",
"205 507 OFFCURVE",
"130 461 CURVE",
"147 399 LINE",
"210 438 OFFCURVE",
"263 459 OFFCURVE",
"317 459 CURVE SMOOTH",
"399 459 OFFCURVE",
"434 410 OFFCURVE",
"417 330 CURVE SMOOTH",
"409 292 LINE",
"375 306 OFFCURVE",
"324 314 OFFCURVE",
"280 314 CURVE SMOOTH",
"139 314 OFFCURVE",
"30 237 OFFCURVE",
"30 123 CURVE SMOOTH"
);
},
{
closed = 1;
nodes = (
"310 80 OFFCURVE",
"256 56 OFFCURVE",
"206 56 CURVE SMOOTH",
"144 56 OFFCURVE",
"116 98 OFFCURVE",
"116 140 CURVE SMOOTH",
"116 211 OFFCURVE",
"185 257 OFFCURVE",
"278 257 CURVE SMOOTH",
"319 257 OFFCURVE",
"361 248 OFFCURVE",
"395 232 CURVE",
"381 167 LINE SMOOTH",
"378 154 OFFCURVE",
"364 132 OFFCURVE",
"345 114 CURVE SMOOTH"
);
}
);
width = 543;
},
{
anchors = (
{
name = bottom;
position = "{253, 0}";
},
{
name = ogonek;
position = "{522, 0}";
},
{
name = top;
position = "{352, 526}";
}
);
background = {
anchors = (
{
name = bottom;
position = "{299, 0}";
},
{
name = ogonek;
position = "{578, 0}";
},
{
name = top;
position = "{280, 526}";
}
);
paths = (
{
closed = 1;
nodes = (
"19 62 OFFCURVE",
"98 -10 OFFCURVE",
"203 -10 CURVE SMOOTH",
"272 -10 OFFCURVE",
"335 22 OFFCURVE",
"382 82 CURVE",
"386 63 LINE SMOOTH",
"396 15 OFFCURVE",
"430 -10 OFFCURVE",
"498 -10 CURVE SMOOTH",
"519 -10 OFFCURVE",
"547 -7 OFFCURVE",
"578 0 CURVE",
"578 160 LINE",
"551 162 OFFCURVE",
"542 174 OFFCURVE",
"542 210 CURVE SMOOTH",
"542 312 LINE SMOOTH",
"542 460 OFFCURVE",
"447 536 OFFCURVE",
"280 536 CURVE SMOOTH",
"190 536 OFFCURVE",
"113 514 OFFCURVE",
"43 469 CURVE",
"98 351 LINE",
"154 388 OFFCURVE",
"202 408 OFFCURVE",
"261 408 CURVE SMOOTH",
"325 408 OFFCURVE",
"352 384 OFFCURVE",
"352 335 CURVE SMOOTH",
"352 319 LINE",
"325 332 OFFCURVE",
"287 339 OFFCURVE",
"246 339 CURVE SMOOTH",
"113 339 OFFCURVE",
"19 265 OFFCURVE",
"19 159 CURVE SMOOTH"
);
},
{
closed = 1;
nodes = (
"309 134 OFFCURVE",
"283 126 OFFCURVE",
"260 126 CURVE SMOOTH",
"224 126 OFFCURVE",
"198 147 OFFCURVE",
"198 176 CURVE SMOOTH",
"198 210 OFFCURVE",
"233 236 OFFCURVE",
"279 236 CURVE SMOOTH",
"300 236 OFFCURVE",
"330 230 OFFCURVE",
"352 222 CURVE",
"352 183 LINE SMOOTH",
"352 170 OFFCURVE",
"342 156 OFFCURVE",
"327 146 CURVE SMOOTH"
);
}
);
};
layerId = "CD86D743-087E-48CD-95ED-391136C80322";
paths = (
{
closed = 1;
nodes = (
"19 49 OFFCURVE",
"74 -10 OFFCURVE",
"159 -10 CURVE SMOOTH",
"224 -10 OFFCURVE",
"289 22 OFFCURVE",
"345 82 CURVE",
"345 63 LINE SMOOTH",
"345 15 OFFCURVE",
"374 -10 OFFCURVE",
"440 -10 CURVE SMOOTH",
"461 -10 OFFCURVE",
"490 -7 OFFCURVE",
"522 0 CURVE",
"557 160 LINE",
"532 162 OFFCURVE",
"525 174 OFFCURVE",
"533 210 CURVE SMOOTH",
"555 312 LINE SMOOTH",
"587 460 OFFCURVE",
"515 536 OFFCURVE",
"354 536 CURVE SMOOTH",
"268 536 OFFCURVE",
"189 514 OFFCURVE",
"114 469 CURVE",
"142 351 LINE",
"203 388 OFFCURVE",
"252 408 OFFCURVE",
"307 408 CURVE SMOOTH",
"365 408 OFFCURVE",
"381 384 OFFCURVE",
"372 335 CURVE SMOOTH",
"369 319 LINE",
"348 332 OFFCURVE",
"315 339 OFFCURVE",
"277 339 CURVE SMOOTH",
"135 339 OFFCURVE",
"19 250 OFFCURVE",
"19 130 CURVE SMOOTH"
);
},
{
closed = 1;
nodes = (
"288 134 OFFCURVE",
"265 126 OFFCURVE",
"247 126 CURVE SMOOTH",
"221 126 OFFCURVE",
"203 144 OFFCURVE",
"203 168 CURVE SMOOTH",
"203 206 OFFCURVE",
"243 236 OFFCURVE",
"287 236 CURVE SMOOTH",
"305 236 OFFCURVE",
"330 230 OFFCURVE",
"347 222 CURVE",
"338 183 LINE SMOOTH",
"335 170 OFFCURVE",
"323 156 OFFCURVE",
"307 146 CURVE SMOOTH"
);
}
);
width = 578;
},
{
anchors = (
{
name = bottom;
position = "{299, 0}";
},
{
name = ogonek;
position = "{512, 0}";
},
{
name = top;
position = "{266, 522}";
}
);
associatedMasterId = "A8272220-FCE5-4C48-BDEF-D37440F7149C";
layerId = "6F9CFD31-2598-4D5F-855A-5EC6FBBAD33A";
name = "Regular Aug 21 16, 05:01";
paths = (
{
closed = 1;
nodes = (
"30 61 OFFCURVE",
"106 -10 OFFCURVE",
"205 -10 CURVE SMOOTH",
"286 -10 OFFCURVE",
"361 24 OFFCURVE",
"408 86 CURVE",
"410 49 LINE SMOOTH",
"414 20 OFFCURVE",
"435 -4 OFFCURVE",
"470 -4 CURVE SMOOTH",
"483 -4 OFFCURVE",
"494 -3 OFFCURVE",
"512 0 CURVE",
"512 76 LINE",
"492 77 OFFCURVE",
"484 86 OFFCURVE",
"484 108 CURVE SMOOTH",
"484 321 LINE SMOOTH",
"484 453 OFFCURVE",
"402 531 OFFCURVE",
"266 531 CURVE SMOOTH",
"197 531 OFFCURVE",
"130 508 OFFCURVE",
"63 463 CURVE",
"92 406 LINE",
"149 446 OFFCURVE",
"204 467 OFFCURVE",
"258 467 CURVE SMOOTH",
"345 467 OFFCURVE",
"396 415 OFFCURVE",
"396 330 CURVE SMOOTH",
"396 288 LINE",
"356 304 OFFCURVE",
"301 314 OFFCURVE",
"250 314 CURVE SMOOTH",
"121 314 OFFCURVE",
"30 248 OFFCURVE",
"30 153 CURVE SMOOTH"
);
},
{
closed = 1;
nodes = (
"349 81 OFFCURVE",
"290 56 OFFCURVE",
"228 56 CURVE SMOOTH",
"163 56 OFFCURVE",
"114 101 OFFCURVE",
"114 160 CURVE SMOOTH",
"114 220 OFFCURVE",
"175 261 OFFCURVE",
"263 261 CURVE SMOOTH",
"308 261 OFFCURVE",
"355 252 OFFCURVE",
"396 236 CURVE",
"396 159 LINE SMOOTH",
"396 147 OFFCURVE",
"389 132 OFFCURVE",
"377 120 CURVE SMOOTH"
);
}
);
width = 554;
}
);
leftKerningGroup = a;
rightKerningGroup = a;
unicode = 0061;
userData = {
org.robofab.fontlab.mark = 0;
};
},
{
glyphname = ae;
lastChange = "2016-11-11 06:11:37 +0000";
layers = (
{
anchors = (
{
name = top;
position = "{507, 519}";
}
);
layerId = "DC0D5209-C0CE-4187-A591-293A64199C8F";
paths = (
{
closed = 1;
nodes = (
"172 -10 CURVE SMOOTH",
"254 -10 OFFCURVE",
"366 25 OFFCURVE",
"425 111 CURVE",
"453 38 OFFCURVE",
"517 -10 OFFCURVE",
"600 -10 CURVE SMOOTH",
"687 -10 OFFCURVE",
"784 43 OFFCURVE",
"826 114 CURVE",
"809 119 LINE",
"767 55 OFFCURVE",
"683 10 OFFCURVE",
"605 10 CURVE SMOOTH",
"488 10 OFFCURVE",
"413 114 OFFCURVE",
"432 248 CURVE",
"893 248 LINE",
"894 252 OFFCURVE",
"894 255 OFFCURVE",
"895 259 CURVE SMOOTH",
"930 407 OFFCURVE",
"843 527 OFFCURVE",
"709 527 CURVE SMOOTH",
"624 527 OFFCURVE",
"538 477 OFFCURVE",
"481 403 CURVE",
"473 481 OFFCURVE",
"421 527 OFFCURVE",
"335 527 CURVE SMOOTH",
"282 527 OFFCURVE",
"219 504 OFFCURVE",
"145 459 CURVE",
"154 443 LINE",
"219 484 OFFCURVE",
"282 507 OFFCURVE",
"330 507 CURVE SMOOTH",
"413 507 OFFCURVE",
"462 456 OFFCURVE",
"462 376 CURVE",
"442 345 OFFCURVE",
"428 312 OFFCURVE",
"418 277 CURVE",
"378 289 OFFCURVE",
"328 297 OFFCURVE",
"282 297 CURVE SMOOTH",
"146 297 OFFCURVE",
"39 225 OFFCURVE",
"39 122 CURVE SMOOTH",
"39 47 OFFCURVE",
"92 -10 OFFCURVE"
);
},
{
closed = 1;
nodes = (
"176 10 CURVE SMOOTH",
"106 10 OFFCURVE",
"59 60 OFFCURVE",
"59 125 CURVE SMOOTH",
"59 217 OFFCURVE",
"152 277 OFFCURVE",
"278 277 CURVE SMOOTH",
"327 277 OFFCURVE",
"372 270 OFFCURVE",
"414 256 CURVE",
"406 213 OFFCURVE",
"407 173 OFFCURVE",
"417 137 CURVE",
"412 126 OFFCURVE",
"405 114 OFFCURVE",
"395 102 CURVE SMOOTH",
"348 46 OFFCURVE",
"263 10 OFFCURVE"
);
},
{
closed = 1;
nodes = (
"436 268 LINE",
"472 405 OFFCURVE",
"587 507 OFFCURVE",
"706 507 CURVE SMOOTH",
"825 507 OFFCURVE",
"897 407 OFFCURVE",
"877 268 CURVE"
);
}
);
width = 930;
},
{
anchors = (
{
name = top;
position = "{536, 522}";
}
);
layerId = "A8272220-FCE5-4C48-BDEF-D37440F7149C";
paths = (
{
closed = 1;
nodes = (
"167 -10 CURVE SMOOTH",
"243 -10 OFFCURVE",
"346 23 OFFCURVE",
"407 103 CURVE",
"437 35 OFFCURVE",
"503 -10 OFFCURVE",
"594 -10 CURVE SMOOTH",
"696 -10 OFFCURVE",
"795 45 OFFCURVE",
"845 122 CURVE",
"774 143 LINE",
"742 91 OFFCURVE",
"673 56 OFFCURVE",
"612 56 CURVE SMOOTH",
"519 56 OFFCURVE",
"456 128 OFFCURVE",
"471 231 CURVE",
"899 231 LINE",
"902 238 OFFCURVE",
"914 259 OFFCURVE",
"914 312 CURVE SMOOTH",
"914 433 OFFCURVE",
"840 531 OFFCURVE",
"709 531 CURVE SMOOTH",
"629 531 OFFCURVE",
"554 493 OFFCURVE",
"499 436 CURVE",
"480 496 OFFCURVE",
"427 531 OFFCURVE",
"344 531 CURVE SMOOTH",
"278 531 OFFCURVE",
"208 508 OFFCURVE",
"132 463 CURVE",
"148 406 LINE",
"213 446 OFFCURVE",
"271 467 OFFCURVE",
"322 467 CURVE SMOOTH",
"397 467 OFFCURVE",
"434 427 OFFCURVE",
"429 360 CURVE",
"417 341 OFFCURVE",
"408 315 OFFCURVE",
"402 294 CURVE",
"369 306 OFFCURVE",
"325 314 OFFCURVE",
"281 314 CURVE SMOOTH",
"141 314 OFFCURVE",
"30 235 OFFCURVE",
"30 125 CURVE SMOOTH",
"30 48 OFFCURVE",
"85 -10 OFFCURVE"
);
},
{
closed = 1;
nodes = (
"205 56 CURVE SMOOTH",
"151 56 OFFCURVE",
"115 93 OFFCURVE",
"115 142 CURVE SMOOTH",
"115 213 OFFCURVE",
"189 261 OFFCURVE",
"283 261 CURVE SMOOTH",
"320 261 OFFCURVE",
"358 254 OFFCURVE",
"390 242 CURVE",
"386 217 OFFCURVE",
"383 177 OFFCURVE",
"389 155 CURVE",
"385 144 OFFCURVE",
"376 131 OFFCURVE",
"363 120 CURVE SMOOTH",
"324 84 OFFCURVE",
"265 56 OFFCURVE"
);
},
{
closed = 1;
nodes = (
"482 288 LINE",
"510 391 OFFCURVE",
"598 465 OFFCURVE",
"693 465 CURVE SMOOTH",
"788 465 OFFCURVE",
"844 392 OFFCURVE",
"830 288 CURVE"
);
}
);
width = 941;
},
{
anchors = (
{
name = top;
position = "{536, 526}";
}
);
layerId = "CD86D743-087E-48CD-95ED-391136C80322";
paths = (
{
closed = 1;
nodes = (
"165 -10 CURVE SMOOTH",
"230 -10 OFFCURVE",
"319 20 OFFCURVE",
"385 92 CURVE",
"418 31 OFFCURVE",
"486 -10 OFFCURVE",
"589 -10 CURVE SMOOTH",
"714 -10 OFFCURVE",
"815 49 OFFCURVE",
"875 133 CURVE",
"725 179 LINE",
"707 146 OFFCURVE",
"663 126 OFFCURVE",
"625 126 CURVE SMOOTH",
"585 126 OFFCURVE",
"549 149 OFFCURVE",
"557 205 CURVE",
"912 205 LINE",
"922 231 OFFCURVE",
"936 266 OFFCURVE",
"936 314 CURVE SMOOTH",
"936 435 OFFCURVE",
"863 536 OFFCURVE",
"708 536 CURVE SMOOTH",
"638 536 OFFCURVE",
"578 517 OFFCURVE",
"528 486 CURVE",
"490 519 OFFCURVE",
"434 536 OFFCURVE",
"359 536 CURVE SMOOTH",
"271 536 OFFCURVE",
"190 514 OFFCURVE",
"113 469 CURVE",
"142 351 LINE",
"205 388 OFFCURVE",
"255 408 OFFCURVE",
"313 408 CURVE SMOOTH",
"374 408 OFFCURVE",
"393 384 OFFCURVE",
"382 335 CURVE",
"382 330 OFFCURVE",
"381 324 OFFCURVE",
"380 319 CURVE",
"357 332 OFFCURVE",
"322 339 OFFCURVE",
"282 339 CURVE SMOOTH",
"137 339 OFFCURVE",
"19 250 OFFCURVE",
"19 130 CURVE SMOOTH",
"19 49 OFFCURVE",
"76 -10 OFFCURVE"
);
},
{
closed = 1;
nodes = (
"252 126 CURVE SMOOTH",
"222 126 OFFCURVE",
"204 144 OFFCURVE",
"204 168 CURVE SMOOTH",
"204 206 OFFCURVE",
"245 236 OFFCURVE",
"293 236 CURVE SMOOTH",
"312 236 OFFCURVE",
"340 230 OFFCURVE",
"359 222 CURVE",
"355 209 OFFCURVE",
"353 196 OFFCURVE",
"350 183 CURVE SMOOTH",
"347 170 OFFCURVE",
"333 156 OFFCURVE",
"317 146 CURVE SMOOTH",
"297 134 OFFCURVE",
"272 126 OFFCURVE"
);
},
{
closed = 1;
nodes = (
"578 319 LINE",
"595 370 OFFCURVE",
"631 401 OFFCURVE",
"675 401 CURVE SMOOTH",
"719 401 OFFCURVE",
"743 370 OFFCURVE",
"737 319 CURVE"
);
}
);
width = 950;
}
);
leftKerningGroup = a;
rightKerningGroup = e;
unicode = 00E6;
userData = {
org.robofab.fontlab.mark = 0;
};
},
{
glyphname = b;
lastChange = "2016-11-11 06:11:37 +0000";
layers = (
{
layerId = "DC0D5209-C0CE-4187-A591-293A64199C8F";
paths = (
{
closed = 1;
nodes = (
"293 -10 CURVE SMOOTH",
"445 -10 OFFCURVE",
"594 146 OFFCURVE",
"594 310 CURVE SMOOTH",
"594 419 OFFCURVE",
"536 527 OFFCURVE",
"416 527 CURVE SMOOTH",
"330 527 OFFCURVE",
"254 473 OFFCURVE",
"188 398 CURVE",
"258 730 LINE",
"239 730 LINE",
"84 0 LINE",
"103 0 LINE",
"126 108 LINE",
"151 42 OFFCURVE",
"215 -10 OFFCURVE"
);
},
{
closed = 1;
nodes = (
"297 10 CURVE SMOOTH",
"221 10 OFFCURVE",
"125 82 OFFCURVE",
"138 167 CURVE",
"179 356 LINE",
"232 435 OFFCURVE",
"318 507 OFFCURVE",
"412 507 CURVE SMOOTH",
"516 507 OFFCURVE",
"574 413 OFFCURVE",
"574 308 CURVE SMOOTH",
"574 162 OFFCURVE",
"441 10 OFFCURVE"
);
}
);
width = 640;
},
{
layerId = "A8272220-FCE5-4C48-BDEF-D37440F7149C";
paths = (
{
closed = 1;
nodes = (
"324 -10 CURVE SMOOTH",
"477 -10 OFFCURVE",
"624 142 OFFCURVE",
"624 318 CURVE SMOOTH",
"624 431 OFFCURVE",
"566 531 OFFCURVE",
"456 531 CURVE SMOOTH",
"376 531 OFFCURVE",
"306 486 OFFCURVE",
"250 418 CURVE",
"319 730 LINE",
"232 730 LINE",
"71 0 LINE",
"148 0 LINE",
"169 98 LINE",
"191 34 OFFCURVE",
"248 -10 OFFCURVE"
);
},
{
closed = 1;
nodes = (
"319 66 CURVE SMOOTH",
"261 66 OFFCURVE",
"197 116 OFFCURVE",
"198 182 CURVE",
"231 333 LINE",
"274 399 OFFCURVE",
"342 455 OFFCURVE",
"411 455 CURVE SMOOTH",
"489 455 OFFCURVE",
"532 383 OFFCURVE",
"532 300 CURVE SMOOTH",
"532 181 OFFCURVE",
"431 66 OFFCURVE"
);
}
);
width = 661;
},
{
layerId = "CD86D743-087E-48CD-95ED-391136C80322";
paths = (
{
closed = 1;
nodes = (
"368 -10 CURVE SMOOTH",
"524 -10 OFFCURVE",
"666 136 OFFCURVE",
"666 323 CURVE SMOOTH",
"666 446 OFFCURVE",
"604 536 OFFCURVE",
"507 536 CURVE SMOOTH",
"436 536 OFFCURVE",
"375 505 OFFCURVE",
"336 448 CURVE",
"398 730 LINE",
"209 730 LINE",
"48 0 LINE",
"212 0 LINE",
"229 82 LINE",
"248 22 OFFCURVE",
"294 -10 OFFCURVE"
);
},
{
closed = 1;
nodes = (
"348 150 CURVE SMOOTH",
"317 150 OFFCURVE",
"299 168 OFFCURVE",
"282 204 CURVE",
"302 298 LINE",
"328 344 OFFCURVE",
"371 376 OFFCURVE",
"406 376 CURVE SMOOTH",
"444 376 OFFCURVE",
"467 336 OFFCURVE",
"467 285 CURVE SMOOTH",
"467 207 OFFCURVE",
"414 150 OFFCURVE"
);
}
);
width = 686;
}
);
leftKerningGroup = h;
rightKerningGroup = b;
unicode = 0062;
userData = {
org.robofab.fontlab.mark = 0;
};
},
{
glyphname = c;
lastChange = "2016-11-11 06:11:37 +0000";
layers = (
{
anchors = (
{
name = bottom;
position = "{234, 0}";
},
{
name = top;
position = "{341, 519}";
}
);
layerId = "DC0D5209-C0CE-4187-A591-293A64199C8F";
paths = (
{
closed = 1;
nodes = (
"317 -10 OFFCURVE",
"412 43 OFFCURVE",
"448 113 CURVE",
"431 119 LINE",
"403 62 OFFCURVE",
"310 10 OFFCURVE",
"234 10 CURVE SMOOTH",
"134 10 OFFCURVE",
"65 101 OFFCURVE",
"65 214 CURVE SMOOTH",
"65 372 OFFCURVE",
"200 507 OFFCURVE",
"338 507 CURVE SMOOTH",
"410 507 OFFCURVE",
"466 468 OFFCURVE",
"485 404 CURVE",
"505 411 LINE",
"487 484 OFFCURVE",
"428 527 OFFCURVE",
"345 527 CURVE SMOOTH",
"192 527 OFFCURVE",
"46 382 OFFCURVE",
"46 210 CURVE SMOOTH",
"46 88 OFFCURVE",
"122 -10 OFFCURVE",
"232 -10 CURVE SMOOTH"
);
}
);
width = 545;
},
{
anchors = (
{
name = bottom;
position = "{238, 0}";
},
{
name = top;
position = "{351, 522}";
}
);
layerId = "A8272220-FCE5-4C48-BDEF-D37440F7149C";
paths = (
{
closed = 1;
nodes = (
"336 -10 OFFCURVE",
"430 45 OFFCURVE",
"477 121 CURVE",
"398 147 LINE",
"373 103 OFFCURVE",
"308 66 OFFCURVE",
"251 66 CURVE SMOOTH",
"177 66 OFFCURVE",
"127 133 OFFCURVE",
"127 221 CURVE SMOOTH",
"127 350 OFFCURVE",
"229 455 OFFCURVE",
"335 455 CURVE SMOOTH",
"389 455 OFFCURVE",
"430 426 OFFCURVE",
"444 377 CURVE",
"535 404 LINE",
"516 481 OFFCURVE",
"452 531 OFFCURVE",
"354 531 CURVE SMOOTH",
"178 531 OFFCURVE",
"36 378 OFFCURVE",
"36 209 CURVE SMOOTH",
"36 89 OFFCURVE",
"109 -10 OFFCURVE",
"236 -10 CURVE SMOOTH"
);
}
);
width = 564;
},
{
anchors = (
{
name = bottom;
position = "{242, 0}";
},
{
name = top;
position = "{359, 526}";
}
);
layerId = "CD86D743-087E-48CD-95ED-391136C80322";
paths = (
{
closed = 1;
nodes = (
"362 -10 OFFCURVE",
"456 49 OFFCURVE",
"516 133 CURVE",
"345 189 LINE",
"324 164 OFFCURVE",
"301 150 OFFCURVE",
"275 150 CURVE SMOOTH",
"238 150 OFFCURVE",
"216 182 OFFCURVE",
"216 236 CURVE SMOOTH",
"216 320 OFFCURVE",
"269 376 OFFCURVE",
"325 376 CURVE SMOOTH",
"351 376 OFFCURVE",
"369 362 OFFCURVE",
"378 337 CURVE",
"574 393 LINE",
"552 477 OFFCURVE",
"483 536 OFFCURVE",
"361 536 CURVE SMOOTH",
"154 536 OFFCURVE",
"19 376 OFFCURVE",
"19 213 CURVE SMOOTH",
"19 93 OFFCURVE",
"89 -10 OFFCURVE",
"240 -10 CURVE SMOOTH"
);
}
);
width = 586;
}
);
leftKerningGroup = o;
rightKerningGroup = c;
unicode = 0063;
userData = {
org.robofab.fontlab.mark = 0;
};
},
{
glyphname = d;
lastChange = "2016-11-11 06:11:37 +0000";
layers = (
{
anchors = (
{
name = bottom;
position = "{240, 0}";
},
{
name = center;
position = "{295, 260}";
},
{
name = top;
position = "{351, 519}";
},
{
name = topright;
position = "{597, 519}";
}
);
layerId = "DC0D5209-C0CE-4187-A591-293A64199C8F";
paths = (
{
closed = 1;
nodes = (
"46 97 OFFCURVE",
"115 -10 OFFCURVE",
"232 -10 CURVE SMOOTH",
"307 -10 OFFCURVE",
"394 39 OFFCURVE",
"449 108 CURVE",
"435 40 LINE SMOOTH",
"432 24 OFFCURVE",
"436 8 OFFCURVE",
"449 2 CURVE SMOOTH",
"453 0 OFFCURVE",
"457 0 OFFCURVE",
"461 0 CURVE",
"466 20 LINE",
"456 20 OFFCURVE",
"452 28 OFFCURVE",
"454 40 CURVE SMOOTH",
"601 730 LINE",
"582 730 LINE",
"512 398 LINE",
"487 467 OFFCURVE",
"428 527 OFFCURVE",
"338 527 CURVE SMOOTH",
"186 527 OFFCURVE",
"46 370 OFFCURVE",
"46 210 CURVE SMOOTH"
);
},
{
closed = 1;
nodes = (
"440 84 OFFCURVE",
"314 10 OFFCURVE",
"237 10 CURVE SMOOTH",
"133 10 OFFCURVE",
"65 104 OFFCURVE",
"65 213 CURVE SMOOTH",
"65 351 OFFCURVE",
"186 507 OFFCURVE",
"334 507 CURVE SMOOTH",
"413 507 OFFCURVE",
"492 439 OFFCURVE",
"503 356 CURVE",
"463 169 LINE"
);
}
);
width = 670;
},
{
anchors = (
{
name = bottom;
position = "{253, 0}";
},
{
name = center;
position = "{310, 261}";
},
{
name = top;
position = "{367, 522}";
},
{
name = topright;
position = "{639, 522}";
}
);
background = {
anchors = (
{
name = bottom;
position = "{315, 0}";
},
{
name = center;
position = "{315, 261}";
},
{
name = top;
position = "{315, 522}";
},
{
name = topright;
position = "{599, 522}";
}
);
paths = (
{
closed = 1;
nodes = (
"37 116 OFFCURVE",
"141 -10 OFFCURVE",
"286 -10 CURVE SMOOTH",
"361 -10 OFFCURVE",
"436 31 OFFCURVE",
"477 98 CURVE",
"477 54 LINE SMOOTH",
"477 24 OFFCURVE",
"507 -4 OFFCURVE",
"542 -4 CURVE SMOOTH",
"553 -4 OFFCURVE",
"562 -3 OFFCURVE",
"581 0 CURVE",
"581 76 LINE",
"561 77 OFFCURVE",
"553 86 OFFCURVE",
"553 108 CURVE SMOOTH",
"553 730 LINE",
"465 730 LINE",
"465 418 LINE",
"427 481 OFFCURVE",
"358 531 OFFCURVE",
"274 531 CURVE SMOOTH",
"136 531 OFFCURVE",
"37 408 OFFCURVE",
"37 260 CURVE SMOOTH"
);
},
{
closed = 1;
nodes = (
"452 118 OFFCURVE",
"370 66 OFFCURVE",
"307 66 CURVE SMOOTH",
"206 66 OFFCURVE",
"128 154 OFFCURVE",
"128 259 CURVE SMOOTH",
"128 359 OFFCURVE",
"196 455 OFFCURVE",
"299 455 CURVE SMOOTH",
"365 455 OFFCURVE",
"440 401 OFFCURVE",
"465 333 CURVE",
"465 183 LINE"
);
}
);
};
layerId = "A8272220-FCE5-4C48-BDEF-D37440F7149C";
paths = (
{
closed = 1;
nodes = (
"37 89 OFFCURVE",
"106 -10 OFFCURVE",
"222 -10 CURVE SMOOTH",
"293 -10 OFFCURVE",
"373 31 OFFCURVE",
"426 98 CURVE",
"417 54 LINE SMOOTH",
"411 24 OFFCURVE",
"433 -4 OFFCURVE",
"467 -4 CURVE SMOOTH",
"478 -4 OFFCURVE",
"487 -3 OFFCURVE",
"507 0 CURVE",
"522 68 LINE",
"503 69 OFFCURVE",
"498 78 OFFCURVE",
"502 100 CURVE SMOOTH",
"640 730 LINE",
"553 730 LINE",
"485 418 LINE",
"463 481 OFFCURVE",
"408 531 OFFCURVE",
"329 531 CURVE SMOOTH",
"175 531 OFFCURVE",
"37 375 OFFCURVE",
"37 207 CURVE SMOOTH"
);
},
{
closed = 1;
nodes = (
"406 118 OFFCURVE",
"319 66 OFFCURVE",
"260 66 CURVE SMOOTH",
"180 66 OFFCURVE",
"129 135 OFFCURVE",
"129 221 CURVE SMOOTH",
"129 334 OFFCURVE",
"225 455 OFFCURVE",
"337 455 CURVE SMOOTH",
"398 455 OFFCURVE",
"457 401 OFFCURVE",
"466 333 CURVE",
"433 183 LINE"
);
}
);
width = 688;
},
{
anchors = (
{
name = bottom;
position = "{267, 0}";
},
{
name = center;
position = "{326, 263}";
},
{
name = top;
position = "{384, 526}";
},
{
name = topright;
position = "{693, 526}";
}
);
background = {
paths = (
{
closed = 1;
nodes = (
"337 -10 OFFCURVE",
"403 18 OFFCURVE",
"439 82 CURVE",
"443 63 LINE",
"453 14 OFFCURVE",
"491 -10 OFFCURVE",
"555 -10 CURVE",
"575 -10 OFFCURVE",
"601 -7 OFFCURVE",
"635 0 CURVE",
"635 160 LINE",
"608 162 OFFCURVE",
"599 174 OFFCURVE",
"599 210 CURVE",
"599 730 LINE",
"409 730 LINE",
"409 448 LINE",
"379 503 OFFCURVE",
"318 536 OFFCURVE",
"250 536 CURVE",
"115 536 OFFCURVE",
"20 419 OFFCURVE",
"20 264 CURVE",
"20 103 OFFCURVE",
"123 -10 OFFCURVE",
"268 -10 CURVE"
);
},
{
closed = 1;
nodes = (
"258 150 OFFCURVE",
"216 194 OFFCURVE",
"216 260 CURVE",
"216 324 OFFCURVE",
"257 376 OFFCURVE",
"312 376 CURVE",
"352 376 OFFCURVE",
"392 344 OFFCURVE",
"410 298 CURVE",
"410 204 LINE",
"385 168 OFFCURVE",
"356 150 OFFCURVE",
"320 150 CURVE"
);
},
{
closed = 1;
nodes = (
"669 730 LINE",
"619 588 LINE",
"739 556 LINE",
"838 730 LINE"
);
}
);
};
layerId = "CD86D743-087E-48CD-95ED-391136C80322";
paths = (
{
closed = 1;
nodes = (
"20 78 OFFCURVE",
"87 -10 OFFCURVE",
"200 -10 CURVE SMOOTH",
"265 -10 OFFCURVE",
"332 18 OFFCURVE",
"379 82 CURVE",
"379 63 LINE SMOOTH",
"379 14 OFFCURVE",
"410 -10 OFFCURVE",
"473 -10 CURVE SMOOTH",
"493 -10 OFFCURVE",
"519 -7 OFFCURVE",
"554 0 CURVE",
"590 160 LINE",
"564 162 OFFCURVE",
"557 174 OFFCURVE",
"565 210 CURVE SMOOTH",
"681 730 LINE",
"492 730 LINE",
"430 448 LINE",
"415 503 OFFCURVE",
"366 536 OFFCURVE",
"304 536 CURVE SMOOTH",
"152 536 OFFCURVE",
"20 385 OFFCURVE",
"20 205 CURVE SMOOTH"
);
},
{
closed = 1;
nodes = (
"345 168 OFFCURVE",
"319 150 OFFCURVE",
"288 150 CURVE SMOOTH",
"243 150 OFFCURVE",
"219 184 OFFCURVE",
"219 236 CURVE SMOOTH",
"219 310 OFFCURVE",
"274 376 OFFCURVE",
"330 376 CURVE SMOOTH",
"365 376 OFFCURVE",
"392 344 OFFCURVE",
"397 298 CURVE",
"377 204 LINE"
);
}
);
width = 711;
}
);
leftKerningGroup = d;
rightKerningGroup = d;
unicode = 0064;
userData = {
org.robofab.fontlab.mark = 0;
};
},
{
glyphname = eth;
lastChange = "2016-11-11 06:11:37 +0000";
layers = (
{
layerId = "DC0D5209-C0CE-4187-A591-293A64199C8F";
paths = (
{
closed = 1;
nodes = (
"544 370 CURVE SMOOTH",
"544 490 OFFCURVE",
"500 621 OFFCURVE",
"350 730 CURVE",
"323 730 LINE",
"519 593 OFFCURVE",
"539 457 OFFCURVE",
"524 330 CURVE",
"509 415 OFFCURVE",
"438 475 OFFCURVE",
"340 475 CURVE SMOOTH",
"196 475 OFFCURVE",
"48 341 OFFCURVE",
"48 190 CURVE SMOOTH",
"48 80 OFFCURVE",
"124 -10 OFFCURVE",
"237 -10 CURVE SMOOTH",
"383 -10 OFFCURVE",
"544 134 OFFCURVE"
);
},
{
closed = 1;
nodes = (
"67 192 CURVE SMOOTH",
"67 331 OFFCURVE",
"204 455 OFFCURVE",
"335 455 CURVE SMOOTH",
"438 455 OFFCURVE",
"511 377 OFFCURVE",
"511 280 CURVE SMOOTH",
"511 143 OFFCURVE",
"373 10 OFFCURVE",
"240 10 CURVE SMOOTH",
"138 10 OFFCURVE",
"67 91 OFFCURVE"
);
},
{
closed = 1;
nodes = (
"548 713 LINE",
"439 647 LINE",
"432 643 LINE",
"296 561 LINE",
"303 547 LINE",
"442 631 LINE",
"450 636 LINE",
"554 699 LINE"
);
}
);
width = 605;
},
{
layerId = "A8272220-FCE5-4C48-BDEF-D37440F7149C";
paths = (
{
closed = 1;
nodes = (
"569 374 CURVE SMOOTH",
"569 488 OFFCURVE",
"528 640 OFFCURVE",
"404 730 CURVE",
"283 730 LINE",
"455 614 OFFCURVE",
"494 495 OFFCURVE",
"487 368 CURVE",
"466 431 OFFCURVE",
"406 473 OFFCURVE",
"328 473 CURVE SMOOTH",
"183 473 OFFCURVE",
"39 341 OFFCURVE",
"39 191 CURVE SMOOTH",
"39 77 OFFCURVE",
"120 -10 OFFCURVE",
"237 -10 CURVE SMOOTH",
"401 -10 OFFCURVE",
"569 137 OFFCURVE"
);
},
{
closed = 1;
nodes = (
"130 202 CURVE SMOOTH",
"130 309 OFFCURVE",
"229 401 OFFCURVE",
"333 401 CURVE SMOOTH",
"409 401 OFFCURVE",
"462 344 OFFCURVE",
"462 268 CURVE SMOOTH",
"462 163 OFFCURVE",
"362 66 OFFCURVE",
"257 66 CURVE SMOOTH",
"181 66 OFFCURVE",
"130 126 OFFCURVE"
);
},
{
closed = 1;
nodes = (
"568 713 LINE",
"449 647 LINE",
"422 639 LINE",
"296 569 LINE",
"314 532 LINE",
"442 604 LINE",
"472 614 LINE",
"586 676 LINE"
);
}
);
width = 626;
},
{
layerId = "CD86D743-087E-48CD-95ED-391136C80322";
paths = (
{
closed = 1;
nodes = (
"594 377 CURVE SMOOTH",
"594 530 OFFCURVE",
"530 679 OFFCURVE",
"439 730 CURVE",
"212 730 LINE",
"346 646 OFFCURVE",
"414 551 OFFCURVE",
"418 425 CURVE",
"389 454 OFFCURVE",
"347 471 OFFCURVE",
"301 471 CURVE SMOOTH",
"158 471 OFFCURVE",
"22 344 OFFCURVE",
"22 193 CURVE SMOOTH",
"22 73 OFFCURVE",
"106 -10 OFFCURVE",
"245 -10 CURVE SMOOTH",
"454 -10 OFFCURVE",
"594 142 OFFCURVE"
);
},
{
closed = 1;
nodes = (
"220 219 CURVE SMOOTH",
"220 277 OFFCURVE",
"261 320 OFFCURVE",
"318 320 CURVE SMOOTH",
"357 320 OFFCURVE",
"379 293 OFFCURVE",
"379 251 CURVE SMOOTH",
"379 193 OFFCURVE",
"336 150 OFFCURVE",
"281 150 CURVE SMOOTH",
"240 150 OFFCURVE",
"220 177 OFFCURVE"
);
},
{
closed = 1;
nodes = (
"582 712 LINE",
"453 648 LINE",
"396 634 LINE",
"286 581 LINE",
"322 510 LINE",
"431 563 LINE",
"493 580 LINE",
"618 641 LINE"
);
}
);
width = 641;
}
);
unicode = 00F0;
userData = {
org.robofab.fontlab.mark = 0;
};
},
{
glyphname = dcaron;
lastChange = "2016-11-11 06:12:28 +0000";
layers = (
{
background = {
paths = (
{
closed = 1;
nodes = (
"375 -10 OFFCURVE",
"455 39 OFFCURVE",
"499 108 CURVE",
"499 40 LINE",
"499 24 OFFCURVE",
"507 8 OFFCURVE",
"522 2 CURVE",
"526 0 OFFCURVE",
"530 0 OFFCURVE",
"535 0 CURVE",
"535 20 LINE",
"525 20 OFFCURVE",
"519 28 OFFCURVE",
"519 40 CURVE",
"519 730 LINE",
"499 730 LINE",
"499 398 LINE",
"457 467 OFFCURVE",
"382 527 OFFCURVE",
"287 527 CURVE",
"148 527 OFFCURVE",
"46 401 OFFCURVE",
"46 258 CURVE",
"46 125 OFFCURVE",
"151 -10 OFFCURVE",
"296 -10 CURVE"
);
},
{
closed = 1;
nodes = (
"168 10 OFFCURVE",
"66 128 OFFCURVE",
"66 258 CURVE",
"66 382 OFFCURVE",
"152 507 OFFCURVE",
"287 507 CURVE",
"371 507 OFFCURVE",
"469 439 OFFCURVE",
"499 356 CURVE",
"499 169 LINE",
"494 84 OFFCURVE",
"377 10 OFFCURVE",
"296 10 CURVE"
);
},
{
closed = 1;
nodes = (
"626 730 LINE",
"562 657 LINE",
"578 645 LINE",
"660 730 LINE"
);
}
);
};
components = (
{
name = d;
},
{
name = caroncomb.alt;
transform = "{1, 0, 0, 1, 577, 0}";
}
);
layerId = "DC0D5209-C0CE-4187-A591-293A64199C8F";
width = 670;
},
{
background = {
paths = (
{
closed = 1;
nodes = (
"644 730 LINE",
"586 629 LINE",
"644 609 LINE",
"732 730 LINE"
);
},
{
closed = 1;
nodes = (
"361 -10 OFFCURVE",
"436 31 OFFCURVE",
"477 98 CURVE",
"477 54 LINE",
"477 24 OFFCURVE",
"507 -4 OFFCURVE",
"542 -4 CURVE",
"553 -4 OFFCURVE",
"562 -3 OFFCURVE",
"581 0 CURVE",
"581 76 LINE",
"561 77 OFFCURVE",
"553 86 OFFCURVE",
"553 108 CURVE",
"553 730 LINE",
"465 730 LINE",
"465 418 LINE",
"427 481 OFFCURVE",
"358 531 OFFCURVE",
"274 531 CURVE",
"136 531 OFFCURVE",
"37 408 OFFCURVE",
"37 260 CURVE",
"37 116 OFFCURVE",
"141 -10 OFFCURVE",
"286 -10 CURVE"
);
},
{
closed = 1;
nodes = (
"206 66 OFFCURVE",
"128 154 OFFCURVE",
"128 259 CURVE",
"128 359 OFFCURVE",
"196 455 OFFCURVE",
"299 455 CURVE",
"365 455 OFFCURVE",
"440 401 OFFCURVE",
"465 333 CURVE",
"465 183 LINE",
"452 118 OFFCURVE",
"370 66 OFFCURVE",
"307 66 CURVE"
);
}
);
};
components = (
{
name = d;
},
{
name = caroncomb.alt;
transform = "{1, 0, 0, 1, 602, 0}";
}
);
layerId = "A8272220-FCE5-4C48-BDEF-D37440F7149C";
width = 688;
},
{
background = {
paths = (
{
closed = 1;
nodes = (
"337 -10 OFFCURVE",
"403 18 OFFCURVE",
"439 82 CURVE",
"443 63 LINE",
"453 14 OFFCURVE",
"491 -10 OFFCURVE",
"555 -10 CURVE",
"575 -10 OFFCURVE",
"601 -7 OFFCURVE",
"635 0 CURVE",
"635 160 LINE",
"608 162 OFFCURVE",
"599 174 OFFCURVE",
"599 210 CURVE",
"599 730 LINE",
"409 730 LINE",
"409 448 LINE",
"379 503 OFFCURVE",
"318 536 OFFCURVE",
"250 536 CURVE",
"115 536 OFFCURVE",
"20 419 OFFCURVE",
"20 264 CURVE",
"20 103 OFFCURVE",
"123 -10 OFFCURVE",
"268 -10 CURVE"
);
},
{
closed = 1;
nodes = (
"258 150 OFFCURVE",
"216 194 OFFCURVE",
"216 260 CURVE",
"216 324 OFFCURVE",
"257 376 OFFCURVE",
"312 376 CURVE",
"352 376 OFFCURVE",
"392 344 OFFCURVE",
"410 298 CURVE",
"410 204 LINE",
"385 168 OFFCURVE",
"356 150 OFFCURVE",
"320 150 CURVE"
);
},
{
closed = 1;
nodes = (
"669 730 LINE",
"619 588 LINE",
"739 556 LINE",
"838 730 LINE"
);
}
);
};
components = (
{
name = d;
},
{
name = caroncomb.alt;
transform = "{1, 0, 0, 1, 622, 0}";
}
);
layerId = "CD86D743-087E-48CD-95ED-391136C80322";
width = 711;
}
);
leftKerningGroup = d;
rightKerningGroup = d;
unicode = 010F;
userData = {
org.robofab.fontlab.mark = 0;
};
},
{
glyphname = dcroat;
lastChange = "2016-11-11 06:11:37 +0000";
layers = (
{
background = {
components = (
{
name = d;
}
);
paths = (
{
closed = 1;
nodes = (
"595 633 LINE",
"595 653 LINE",
"375 653 LINE",
"375 633 LINE"
);
}
);
};
components = (
{
name = d;
transform = "{1, 0, 0, 1, -92, 0}";
}
);
layerId = "DC0D5209-C0CE-4187-A591-293A64199C8F";
paths = (
{
closed = 1;
nodes = (
"570 633 LINE",
"574 653 LINE",
"379 653 LINE",
"375 633 LINE"
);
}
);
width = 604;
},
{
background = {
components = (
{
name = d;
}
);
paths = (
{
closed = 1;
nodes = (
"621 611 LINE",
"621 667 LINE",
"355 667 LINE",
"355 611 LINE"
);
}
);
};
components = (
{
name = d;
transform = "{1, 0, 0, 1, -94, 0}";
}
);
layerId = "A8272220-FCE5-4C48-BDEF-D37440F7149C";
paths = (
{
closed = 1;
nodes = (
"594 611 LINE",
"608 667 LINE",
"369 667 LINE",
"355 611 LINE"
);
}
);
width = 629;
},
{
background = {
components = (
{
name = d;
}
);
paths = (
{
closed = 1;
nodes = (
"657 579 LINE",
"657 688 LINE",
"322 688 LINE",
"322 579 LINE"
);
}
);
};
components = (
{
name = d;
transform = "{1, 0, 0, 1, -91, 0}";
}
);
layerId = "CD86D743-087E-48CD-95ED-391136C80322";
paths = (
{
closed = 1;
nodes = (
"633 579 LINE",
"658 688 LINE",
"347 688 LINE",
"322 579 LINE"
);
}
);
width = 665;
}
);
leftKerningGroup = d;
rightKerningGroup = d;
unicode = 0111;
userData = {
org.robofab.fontlab.mark = 0;
};
},
{
glyphname = e;
lastChange = "2016-11-11 06:11:37 +0000";
layers = (
{
anchors = (
{
name = bottom;
position = "{234, 0}";
},
{
name = ogonek;
position = "{295, 0}";
},
{
name = top;
position = "{341, 519}";
}
);
layerId = "DC0D5209-C0CE-4187-A591-293A64199C8F";
paths = (
{
closed = 1;
nodes = (
"318 -10 OFFCURVE",
"412 43 OFFCURVE",
"454 114 CURVE",
"437 119 LINE",
"396 55 OFFCURVE",
"313 10 OFFCURVE",
"237 10 CURVE SMOOTH",
"123 10 OFFCURVE",
"50 114 OFFCURVE",
"69 248 CURVE",
"520 248 LINE",
"521 252 OFFCURVE",
"521 255 OFFCURVE",
"522 259 CURVE",
"553 408 OFFCURVE",
"473 527 OFFCURVE",
"342 527 CURVE SMOOTH",
"193 527 OFFCURVE",
"46 380 OFFCURVE",
"46 211 CURVE SMOOTH",
"46 88 OFFCURVE",
"121 -10 OFFCURVE",
"232 -10 CURVE SMOOTH"
);
},
{
closed = 1;
nodes = (
"109 405 OFFCURVE",
"222 507 OFFCURVE",
"338 507 CURVE SMOOTH",
"455 507 OFFCURVE",
"525 407 OFFCURVE",
"504 268 CURVE",
"73 268 LINE"
);
}
);
width = 557;
},
{
anchors = (
{
name = bottom;
position = "{238, 0}";
},
{
name = ogonek;
position = "{309, 0}";
},
{
name = top;
position = "{351, 522}";
}
);
background = {
anchors = (
{
name = bottom;
position = "{301, 0}";
},
{
name = ogonek;
position = "{376, 0}";
},
{
name = top;
position = "{299, 522}";
}
);
paths = (
{
closed = 1;
nodes = (
"407 -10 OFFCURVE",
"496 45 OFFCURVE",
"530 122 CURVE",
"454 143 LINE",
"432 91 OFFCURVE",
"369 56 OFFCURVE",
"305 56 CURVE SMOOTH",
"214 56 OFFCURVE",
"137 128 OFFCURVE",
"129 231 CURVE",
"562 231 LINE",
"563 237 OFFCURVE",
"564 251 OFFCURVE",
"564 265 CURVE SMOOTH",
"564 405 OFFCURVE",
"461 531 OFFCURVE",
"303 531 CURVE SMOOTH",
"146 531 OFFCURVE",
"36 408 OFFCURVE",
"36 261 CURVE SMOOTH",
"36 114 OFFCURVE",
"145 -10 OFFCURVE",
"302 -10 CURVE SMOOTH"
);
},
{
closed = 1;
nodes = (
"134 395 OFFCURVE",
"210 465 OFFCURVE",
"303 465 CURVE SMOOTH",
"396 465 OFFCURVE",
"472 396 OFFCURVE",
"481 296 CURVE",
"127 296 LINE"
);
}
);
};
layerId = "A8272220-FCE5-4C48-BDEF-D37440F7149C";
paths = (
{
closed = 1;
nodes = (
"337 -10 OFFCURVE",
"434 45 OFFCURVE",
"483 122 CURVE",
"413 143 LINE",
"381 91 OFFCURVE",
"315 56 OFFCURVE",
"255 56 CURVE SMOOTH",
"170 56 OFFCURVE",
"114 128 OFFCURVE",
"128 231 CURVE",
"537 231 LINE",
"541 241 OFFCURVE",
"554 267 OFFCURVE",
"554 316 CURVE SMOOTH",
"554 432 OFFCURVE",
"484 531 OFFCURVE",
"357 531 CURVE SMOOTH",
"183 531 OFFCURVE",
"36 378 OFFCURVE",
"36 209 CURVE SMOOTH",
"36 88 OFFCURVE",
"110 -10 OFFCURVE",
"237 -10 CURVE SMOOTH"
);
},
{
closed = 1;
nodes = (
"168 393 OFFCURVE",
"255 465 OFFCURVE",
"341 465 CURVE SMOOTH",
"428 465 OFFCURVE",
"484 394 OFFCURVE",
"471 292 CURVE",
"139 292 LINE"
);
}
);
width = 581;
},
{
anchors = (
{
name = bottom;
position = "{245, 0}";
},
{
name = ogonek;
position = "{325, 0}";
},
{
name = top;
position = "{361, 526}";
}
);
layerId = "CD86D743-087E-48CD-95ED-391136C80322";
paths = (
{
closed = 1;
nodes = (
"366 -10 OFFCURVE",
"465 49 OFFCURVE",
"525 133 CURVE",
"375 179 LINE",
"357 146 OFFCURVE",
"315 126 OFFCURVE",
"278 126 CURVE SMOOTH",
"241 126 OFFCURVE",
"207 149 OFFCURVE",
"215 205 CURVE",
"559 205 LINE",
"571 231 OFFCURVE",
"585 266 OFFCURVE",
"585 314 CURVE SMOOTH",
"585 435 OFFCURVE",
"514 536 OFFCURVE",
"362 536 CURVE SMOOTH",
"149 536 OFFCURVE",
"19 373 OFFCURVE",
"19 208 CURVE SMOOTH",
"19 90 OFFCURVE",
"91 -10 OFFCURVE",
"242 -10 CURVE SMOOTH"
);
},
{
closed = 1;
nodes = (
"254 370 OFFCURVE",
"287 401 OFFCURVE",
"329 401 CURVE SMOOTH",
"371 401 OFFCURVE",
"392 370 OFFCURVE",
"386 319 CURVE",
"237 319 LINE"
);
}
);
width = 599;
},
{
anchors = (
{
name = bottom;
position = "{301, 0}";
},
{
name = ogonek;
position = "{376, 0}";
},
{
name = top;
position = "{299, 522}";
}
);
associatedMasterId = "A8272220-FCE5-4C48-BDEF-D37440F7149C";
layerId = "407DD250-4481-450F-8682-0915D8E723B2";
name = "Regular Aug 21 16, 05:04";
paths = (
{
closed = 1;
nodes = (
"407 -10 OFFCURVE",
"496 45 OFFCURVE",
"530 122 CURVE",
"454 143 LINE",
"432 91 OFFCURVE",
"369 56 OFFCURVE",
"305 56 CURVE SMOOTH",
"214 56 OFFCURVE",
"137 128 OFFCURVE",
"129 231 CURVE",
"562 231 LINE",
"563 237 OFFCURVE",
"564 251 OFFCURVE",
"564 265 CURVE SMOOTH",
"564 405 OFFCURVE",
"461 531 OFFCURVE",
"303 531 CURVE SMOOTH",
"146 531 OFFCURVE",
"36 408 OFFCURVE",
"36 261 CURVE SMOOTH",
"36 114 OFFCURVE",
"145 -10 OFFCURVE",
"302 -10 CURVE SMOOTH"
);
},
{
closed = 1;
nodes = (
"134 395 OFFCURVE",
"210 465 OFFCURVE",
"303 465 CURVE SMOOTH",
"396 465 OFFCURVE",
"472 396 OFFCURVE",
"481 296 CURVE",
"127 296 LINE"
);
}
);
width = 591;
}
);
leftKerningGroup = o;
rightKerningGroup = e;
unicode = 0065;
userData = {
org.robofab.fontlab.mark = 0;
};
},
{
glyphname = f;
lastChange = "2016-11-11 06:11:37 +0000";
layers = (
{
layerId = "DC0D5209-C0CE-4187-A591-293A64199C8F";
paths = (
{
closed = 1;
nodes = (
"46 0 LINE",
"152 499 LINE",
"295 499 LINE",
"299 519 LINE",
"157 519 LINE",
"161 540 LINE SMOOTH",
"184 657 OFFCURVE",
"238 721 OFFCURVE",
"308 721 CURVE SMOOTH",
"336 721 OFFCURVE",
"363 710 OFFCURVE",
"374 694 CURVE",
"391 706 LINE",
"379 726 OFFCURVE",
"346 740 OFFCURVE",
"311 740 CURVE SMOOTH",
"232 740 OFFCURVE",
"168 666 OFFCURVE",
"143 540 CURVE SMOOTH",
"139 519 LINE",
"69 519 LINE",
"65 499 LINE",
"134 499 LINE",
"28 0 LINE"
);
}
);
width = 355;
},
{
layerId = "A8272220-FCE5-4C48-BDEF-D37440F7149C";
paths = (
{
closed = 1;
nodes = (
"114 0 LINE",
"215 453 LINE",
"338 453 LINE",
"355 522 LINE",
"232 522 LINE",
"235 536 LINE SMOOTH",
"253 619 OFFCURVE",
"291 665 OFFCURVE",
"342 665 CURVE SMOOTH",
"365 665 OFFCURVE",
"390 656 OFFCURVE",
"404 643 CURVE",
"440 708 LINE",
"415 728 OFFCURVE",
"379 740 OFFCURVE",
"342 740 CURVE SMOOTH",
"253 740 OFFCURVE",
"182 660 OFFCURVE",
"149 533 CURVE SMOOTH",
"146 522 LINE",
"82 522 LINE",
"65 453 LINE",
"129 453 LINE",
"28 0 LINE"
);
}
);
width = 409;
},
{
layerId = "CD86D743-087E-48CD-95ED-391136C80322";
paths = (
{
closed = 1;
nodes = (
"207 0 LINE",
"282 322 LINE",
"374 322 LINE",
"408 465 LINE",
"315 465 LINE",
"330 529 LINE SMOOTH",
"338 563 OFFCURVE",
"351 580 OFFCURVE",
"371 580 CURVE SMOOTH",
"386 580 OFFCURVE",
"410 574 OFFCURVE",
"427 566 CURVE",
"491 710 LINE",
"445 730 OFFCURVE",
"405 740 OFFCURVE",
"365 740 CURVE SMOOTH",
"262 740 OFFCURVE",
"172 654 OFFCURVE",
"142 522 CURVE SMOOTH",
"129 465 LINE",
"75 465 LINE",
"41 322 LINE",
"95 322 LINE",
"20 0 LINE"
);
}
);
width = 469;
}
);
leftKerningGroup = f;
rightKerningGroup = f;
unicode = 0066;
userData = {
org.robofab.fontlab.mark = 0;
};
},
{
glyphname = g;
lastChange = "2016-11-11 06:11:37 +0000";
layers = (
{
anchors = (
{
name = top;
position = "{401, 519}";
}
);
layerId = "DC0D5209-C0CE-4187-A591-293A64199C8F";
paths = (
{
closed = 1;
nodes = (
"284 -10 CURVE SMOOTH",
"359 -10 OFFCURVE",
"445 39 OFFCURVE",
"501 108 CURVE",
"473 -22 LINE SMOOTH",
"448 -141 OFFCURVE",
"345 -203 OFFCURVE",
"237 -203 CURVE SMOOTH",
"157 -203 OFFCURVE",
"88 -171 OFFCURVE",
"65 -93 CURVE",
"46 -99 LINE",
"67 -173 OFFCURVE",
"116 -223 OFFCURVE",
"233 -223 CURVE SMOOTH",
"345 -223 OFFCURVE",
"463 -159 OFFCURVE",
"492 -22 CURVE SMOOTH",
"607 519 LINE",
"588 519 LINE",
"563 398 LINE",
"530 469 OFFCURVE",
"478 527 OFFCURVE",
"389 527 CURVE SMOOTH",
"235 527 OFFCURVE",
"98 365 OFFCURVE",
"98 210 CURVE SMOOTH",
"98 97 OFFCURVE",
"166 -10 OFFCURVE"
);
},
{
closed = 1;
nodes = (
"288 10 CURVE SMOOTH",
"184 10 OFFCURVE",
"117 104 OFFCURVE",
"117 213 CURVE SMOOTH",
"117 344 OFFCURVE",
"233 507 OFFCURVE",
"385 507 CURVE SMOOTH",
"469 507 OFFCURVE",
"541 443 OFFCURVE",
"554 356 CURVE",
"514 169 LINE",
"493 95 OFFCURVE",
"381 10 OFFCURVE"
);
}
);
width = 691;
},
{
anchors = (
{
name = top;
position = "{416, 522}";
}
);
layerId = "A8272220-FCE5-4C48-BDEF-D37440F7149C";
paths = (
{
closed = 1;
nodes = (
"276 -6 CURVE SMOOTH",
"346 -6 OFFCURVE",
"423 34 OFFCURVE",
"473 98 CURVE",
"453 6 LINE SMOOTH",
"429 -103 OFFCURVE",
"342 -155 OFFCURVE",
"252 -155 CURVE SMOOTH",
"182 -155 OFFCURVE",
"124 -124 OFFCURVE",
"98 -63 CURVE",
"38 -108 LINE",
"69 -179 OFFCURVE",
"126 -223 OFFCURVE",
"237 -223 CURVE SMOOTH",
"378 -223 OFFCURVE",
"507 -142 OFFCURVE",
"540 6 CURVE SMOOTH",
"654 522 LINE",
"577 522 LINE",
"554 418 LINE",
"528 483 OFFCURVE",
"478 531 OFFCURVE",
"396 531 CURVE SMOOTH",
"239 531 OFFCURVE",
"101 374 OFFCURVE",
"101 206 CURVE SMOOTH",
"101 93 OFFCURVE",
"165 -6 OFFCURVE"
);
},
{
closed = 1;
nodes = (
"320 66 CURVE SMOOTH",
"242 66 OFFCURVE",
"191 135 OFFCURVE",
"191 220 CURVE SMOOTH",
"191 329 OFFCURVE",
"283 455 OFFCURVE",
"397 455 CURVE SMOOTH",
"461 455 OFFCURVE",
"514 404 OFFCURVE",
"525 333 CURVE",
"492 183 LINE",
"466 124 OFFCURVE",
"388 66 OFFCURVE"
);
}
);
width = 725;
},
{
anchors = (
{
name = top;
position = "{453, 526}";
}
);
layerId = "CD86D743-087E-48CD-95ED-391136C80322";
paths = (
{
closed = 1;
nodes = (
"259 0 CURVE SMOOTH",
"321 0 OFFCURVE",
"384 27 OFFCURVE",
"422 82 CURVE",
"415 48 LINE SMOOTH",
"395 -46 OFFCURVE",
"332 -82 OFFCURVE",
"271 -82 CURVE SMOOTH",
"216 -82 OFFCURVE",
"169 -54 OFFCURVE",
"143 -18 CURVE",
"21 -122 LINE",
"68 -187 OFFCURVE",
"137 -223 OFFCURVE",
"240 -223 CURVE SMOOTH",
"423 -223 OFFCURVE",
"567 -116 OFFCURVE",
"604 48 CURVE SMOOTH",
"711 526 LINE",
"546 526 LINE",
"529 448 LINE",
"512 505 OFFCURVE",
"464 536 OFFCURVE",
"395 536 CURVE SMOOTH",
"235 536 OFFCURVE",
"98 389 OFFCURVE",
"98 207 CURVE SMOOTH",
"98 89 OFFCURVE",
"155 0 OFFCURVE"
);
},
{
closed = 1;
nodes = (
"361 150 CURVE SMOOTH",
"319 150 OFFCURVE",
"295 185 OFFCURVE",
"295 236 CURVE SMOOTH",
"295 309 OFFCURVE",
"350 376 OFFCURVE",
"404 376 CURVE SMOOTH",
"437 376 OFFCURVE",
"464 346 OFFCURVE",
"470 298 CURVE",
"449 204 LINE",
"417 168 OFFCURVE",
"392 150 OFFCURVE"
);
}
);
width = 759;
}
);
leftKerningGroup = d;
rightKerningGroup = a.alt;
unicode = 0067;
userData = {
org.robofab.fontlab.mark = 0;
};
},
{
glyphname = h;
lastChange = "2016-11-11 06:11:37 +0000";
layers = (
{
anchors = (
{
name = bottom;
position = "{271, 0}";
},
{
name = center;
position = "{326, 260}";
},
{
name = top;
position = "{444, 710}";
}
);
layerId = "DC0D5209-C0CE-4187-A591-293A64199C8F";
paths = (
{
closed = 1;
nodes = (
"523 289 LINE SMOOTH",
"556 445 OFFCURVE",
"521 527 OFFCURVE",
"419 527 CURVE SMOOTH",
"336 527 OFFCURVE",
"243 471 OFFCURVE",
"185 385 CURVE",
"258 730 LINE",
"239 730 LINE",
"84 0 LINE",
"103 0 LINE",
"172 328 LINE",
"219 429 OFFCURVE",
"325 507 OFFCURVE",
"416 507 CURVE SMOOTH",
"505 507 OFFCURVE",
"535 433 OFFCURVE",
"504 289 CURVE SMOOTH",
"443 0 LINE",
"462 0 LINE"
);
}
);
width = 601;
},
{
anchors = (
{
name = bottom;
position = "{281, 0}";
},
{
name = center;
position = "{339, 261}";
},
{
name = top;
position = "{457, 710}";
}
);
layerId = "A8272220-FCE5-4C48-BDEF-D37440F7149C";
paths = (
{
closed = 1;
nodes = (
"565 312 LINE",
"592 436 OFFCURVE",
"577 531 OFFCURVE",
"460 531 CURVE SMOOTH",
"384 531 OFFCURVE",
"304 485 OFFCURVE",
"249 410 CURVE",
"320 730 LINE",
"233 730 LINE",
"71 0 LINE",
"158 0 LINE",
"228 315 LINE",
"266 394 OFFCURVE",
"347 452 OFFCURVE",
"409 452 CURVE SMOOTH",
"473 452 OFFCURVE",
"497 399 OFFCURVE",
"474 292 CURVE SMOOTH",
"409 0 LINE",
"496 0 LINE"
);
}
);
width = 631;
},
{
anchors = (
{
name = bottom;
position = "{297, 0}";
},
{
name = center;
position = "{356, 263}";
},
{
name = top;
position = "{470, 710}";
}
);
layerId = "CD86D743-087E-48CD-95ED-391136C80322";
paths = (
{
closed = 1;
nodes = (
"626 346 LINE SMOOTH",
"643 423 OFFCURVE",
"655 536 OFFCURVE",
"515 536 CURVE SMOOTH",
"447 536 OFFCURVE",
"383 505 OFFCURVE",
"336 448 CURVE",
"399 730 LINE",
"210 730 LINE",
"48 0 LINE",
"237 0 LINE",
"303 295 LINE",
"328 341 OFFCURVE",
"374 370 OFFCURVE",
"392 370 CURVE SMOOTH",
"420 370 OFFCURVE",
"438 348 OFFCURVE",
"426 296 CURVE SMOOTH",
"360 0 LINE",
"549 0 LINE"
);
}
);
width = 670;
}
);
leftKerningGroup = h;
rightKerningGroup = h;
unicode = 0068;
userData = {
org.robofab.fontlab.mark = 0;
};
},
{
glyphname = hbar;
lastChange = "2016-11-11 06:11:37 +0000";
layers = (
{
background = {
components = (
{
name = h;
}
);
paths = (
{
closed = 1;
nodes = (
"230 633 LINE",
"230 653 LINE",
"10 653 LINE",
"10 633 LINE"
);
}
);
};
components = (
{
name = h;
transform = "{1, 0, 0, 1, -133, 0}";
}
);
layerId = "DC0D5209-C0CE-4187-A591-293A64199C8F";
paths = (
{
closed = 1;
nodes = (
"205 633 LINE",
"209 653 LINE",
"14 653 LINE",
"10 633 LINE"
);
}
);
width = 565;
},
{
background = {
components = (
{
name = h;
}
);
paths = (
{
closed = 1;
nodes = (
"281 611 LINE",
"281 667 LINE",
"15 667 LINE",
"15 611 LINE"
);
}
);
};
components = (
{
name = h;
transform = "{1, 0, 0, 1, -138, 0}";
}
);
layerId = "A8272220-FCE5-4C48-BDEF-D37440F7149C";
paths = (
{
closed = 1;
nodes = (
"254 611 LINE",
"268 667 LINE",
"29 667 LINE",
"15 611 LINE"
);
}
);
width = 590;
},
{
background = {
components = (
{
name = h;
}
);
paths = (
{
closed = 1;
nodes = (
"353 579 LINE",
"353 688 LINE",
"18 688 LINE",
"18 579 LINE"
);
}
);
};
components = (
{
name = h;
transform = "{1, 0, 0, 1, -131, 0}";
}
);
layerId = "CD86D743-087E-48CD-95ED-391136C80322";
paths = (
{
closed = 1;
nodes = (
"327 579 LINE",
"352 688 LINE",
"43 688 LINE",
"18 579 LINE"
);
}
);
width = 621;
}
);
leftKerningGroup = h;
rightKerningGroup = h;
unicode = 0127;
userData = {
org.robofab.fontlab.mark = 0;
};
},
{
glyphname = i;
lastChange = "2016-11-11 06:11:37 +0000";
layers = (
{
anchors = (
{
name = bottom;
position = "{91, 0}";
},
{
name = ogonek;
position = "{97, 0}";
}
);
layerId = "DC0D5209-C0CE-4187-A591-293A64199C8F";
paths = (
{
closed = 1;
nodes = (
"97 0 LINE",
"207 519 LINE",
"194 519 LINE",
"84 0 LINE"
);
},
{
closed = 1;
nodes = (
"236 653 LINE",
"252 730 LINE",
"239 730 LINE",
"223 653 LINE"
);
}
);
width = 336;
},
{
anchors = (
{
name = bottom;
position = "{112, 0}";
},
{
name = ogonek;
position = "{153, 0}";
}
);
layerId = "A8272220-FCE5-4C48-BDEF-D37440F7149C";
paths = (
{
closed = 1;
nodes = (
"153 0 LINE",
"288 522 LINE",
"206 522 LINE",
"71 0 LINE"
);
},
{
closed = 1;
nodes = (
"310 620 LINE",
"341 730 LINE",
"260 730 LINE",
"229 620 LINE"
);
}
);
width = 412;
},
{
anchors = (
{
name = bottom;
position = "{141, 0}";
},
{
name = ogonek;
position = "{235, 0}";
}
);
layerId = "CD86D743-087E-48CD-95ED-391136C80322";
paths = (
{
closed = 1;
nodes = (
"235 0 LINE",
"359 526 LINE",
"172 526 LINE",
"48 0 LINE"
);
},
{
closed = 1;
nodes = (
"369 570 LINE",
"406 730 LINE",
"220 730 LINE",
"182 570 LINE"
);
}
);
width = 454;
}
);
leftKerningGroup = i;
rightKerningGroup = i;
unicode = 0069;
userData = {
org.robofab.fontlab.mark = 0;
};
},
{
glyphname = idotless;
lastChange = "2016-11-11 06:11:37 +0000";
layers = (
{
anchors = (
{
name = top;
position = "{201, 519}";
}
);
layerId = "DC0D5209-C0CE-4187-A591-293A64199C8F";
paths = (
{
closed = 1;
nodes = (
"97 0 LINE",
"207 519 LINE",
"194 519 LINE",
"84 0 LINE"
);
}
);
width = 291;
},
{
anchors = (
{
name = top;
position = "{247, 522}";
}
);
layerId = "A8272220-FCE5-4C48-BDEF-D37440F7149C";
paths = (
{
closed = 1;
nodes = (
"152 0 LINE",
"288 522 LINE",
"206 522 LINE",
"71 0 LINE"
);
}
);
width = 359;
},
{
anchors = (
{
name = top;
position = "{266, 526}";
}
);
layerId = "CD86D743-087E-48CD-95ED-391136C80322";
paths = (
{
closed = 1;
nodes = (
"234 0 LINE",
"360 526 LINE",
"173 526 LINE",
"48 0 LINE"
);
}
);
width = 408;
}
);
leftKerningGroup = i;
rightKerningGroup = i;
unicode = 0131;
userData = {
org.robofab.fontlab.mark = 0;
};
},
{
glyphname = j;
lastChange = "2016-11-11 06:11:37 +0000";
layers = (
{
layerId = "DC0D5209-C0CE-4187-A591-293A64199C8F";
paths = (
{
closed = 1;
nodes = (
"-39 -170 CURVE SMOOTH",
"16 -170 OFFCURVE",
"91 -114 OFFCURVE",
"108 -36 CURVE SMOOTH",
"226 519 LINE",
"208 519 LINE",
"90 -36 LINE SMOOTH",
"76 -100 OFFCURVE",
"14 -150 OFFCURVE",
"-36 -150 CURVE SMOOTH",
"-61 -150 OFFCURVE",
"-87 -145 OFFCURVE",
"-104 -124 CURVE",
"-121 -136 LINE",
"-103 -162 OFFCURVE",
"-74 -170 OFFCURVE"
);
},
{
closed = 1;
nodes = (
"255 653 LINE",
"271 730 LINE",
"253 730 LINE",
"237 653 LINE"
);
}
);
width = 355;
},
{
layerId = "A8272220-FCE5-4C48-BDEF-D37440F7149C";
paths = (
{
closed = 1;
nodes = (
"-30 -186 CURVE SMOOTH",
"41 -186 OFFCURVE",
"120 -116 OFFCURVE",
"144 -17 CURVE SMOOTH",
"276 522 LINE",
"192 522 LINE",
"59 -23 LINE SMOOTH",
"47 -72 OFFCURVE",
"12 -108 OFFCURVE",
"-18 -108 CURVE SMOOTH",
"-35 -108 OFFCURVE",
"-53 -102 OFFCURVE",
"-62 -85 CURVE",
"-116 -144 LINE",
"-97 -173 OFFCURVE",
"-67 -186 OFFCURVE"
);
},
{
closed = 1;
nodes = (
"298 620 LINE",
"327 730 LINE",
"243 730 LINE",
"215 620 LINE"
);
}
);
width = 398;
},
{
layerId = "CD86D743-087E-48CD-95ED-391136C80322";
paths = (
{
closed = 1;
nodes = (
"9 -209 CURVE SMOOTH",
"121 -209 OFFCURVE",
"215 -119 OFFCURVE",
"245 12 CURVE SMOOTH",
"365 526 LINE",
"178 526 LINE",
"55 -3 LINE SMOOTH",
"49 -30 OFFCURVE",
"39 -46 OFFCURVE",
"22 -46 CURVE SMOOTH",
"9 -46 OFFCURVE",
"-3 -38 OFFCURVE",
"-8 -26 CURVE",
"-113 -155 LINE",
"-84 -190 OFFCURVE",
"-40 -209 OFFCURVE"
);
},
{
closed = 1;
nodes = (
"377 570 LINE",
"414 730 LINE",
"227 730 LINE",
"190 570 LINE"
);
}
);
width = 462;
}
);
leftKerningGroup = i;
rightKerningGroup = i;
unicode = 006A;
userData = {
org.robofab.fontlab.mark = 0;
};
},
{
glyphname = jdotless;
lastChange = "2016-11-11 06:11:37 +0000";
layers = (
{
anchors = (
{
name = top;
position = "{209, 519}";
}
);
layerId = "DC0D5209-C0CE-4187-A591-293A64199C8F";
paths = (
{
closed = 1;
nodes = (
"-47 -170 CURVE SMOOTH",
"8 -170 OFFCURVE",
"84 -114 OFFCURVE",
"100 -36 CURVE SMOOTH",
"218 519 LINE",
"200 519 LINE",
"82 -36 LINE SMOOTH",
"69 -100 OFFCURVE",
"6 -150 OFFCURVE",
"-44 -150 CURVE SMOOTH",
"-69 -150 OFFCURVE",
"-95 -145 OFFCURVE",
"-112 -124 CURVE",
"-129 -136 LINE",
"-111 -162 OFFCURVE",
"-82 -170 OFFCURVE"
);
}
);
width = 302;
},
{
anchors = (
{
name = top;
position = "{234, 522}";
}
);
layerId = "A8272220-FCE5-4C48-BDEF-D37440F7149C";
paths = (
{
closed = 1;
nodes = (
"-32 -186 CURVE SMOOTH",
"42 -186 OFFCURVE",
"124 -116 OFFCURVE",
"147 -17 CURVE SMOOTH",
"276 522 LINE",
"191 522 LINE",
"62 -23 LINE SMOOTH",
"51 -72 OFFCURVE",
"12 -108 OFFCURVE",
"-21 -108 CURVE SMOOTH",
"-40 -108 OFFCURVE",
"-58 -102 OFFCURVE",
"-69 -85 CURVE",
"-123 -144 LINE",
"-103 -173 OFFCURVE",
"-70 -186 OFFCURVE"
);
}
);
width = 347;
},
{
anchors = (
{
name = top;
position = "{267, 526}";
}
);
layerId = "CD86D743-087E-48CD-95ED-391136C80322";
paths = (
{
closed = 1;
nodes = (
"3 -209 CURVE SMOOTH",
"114 -209 OFFCURVE",
"207 -119 OFFCURVE",
"238 12 CURVE SMOOTH",
"359 526 LINE",
"173 526 LINE",
"48 -3 LINE SMOOTH",
"42 -30 OFFCURVE",
"33 -46 OFFCURVE",
"17 -46 CURVE SMOOTH",
"4 -46 OFFCURVE",
"-7 -38 OFFCURVE",
"-12 -26 CURVE",
"-117 -155 LINE",
"-88 -190 OFFCURVE",
"-45 -209 OFFCURVE"
);
}
);
width = 407;
}
);
leftKerningGroup = i;
rightKerningGroup = i;
unicode = 0237;
userData = {
org.robofab.fontlab.mark = 0;
};
},
{
glyphname = k;
lastChange = "2016-11-11 06:11:37 +0000";
layers = (
{
anchors = (
{
name = bottom;
position = "{254, 0}";
}
);
background = {
anchors = (
{
name = bottom;
position = "{265, 0}";
}
);
paths = (
{
closed = 1;
nodes = (
"490 0 LINE",
"260 311 LINE",
"485 517 LINE",
"458 517 LINE",
"104 196 LINE",
"104 730 LINE",
"84 730 LINE",
"84 0 LINE",
"104 0 LINE",
"104 169 LINE",
"245 297 LINE",
"466 0 LINE"
);
}
);
};
layerId = "DC0D5209-C0CE-4187-A591-293A64199C8F";
paths = (
{
closed = 1;
nodes = (
"465 0 LINE",
"315 311 LINE",
"570 517 LINE",
"545 517 LINE",
"144 196 LINE",
"258 730 LINE",
"239 730 LINE",
"84 0 LINE",
"103 0 LINE",
"139 169 LINE",
"298 297 LINE",
"442 0 LINE"
);
}
);
width = 588;
},
{
anchors = (
{
name = bottom;
position = "{269, 0}";
}
);
background = {
anchors = (
{
name = bottom;
position = "{280, 0}";
}
);
paths = (
{
closed = 1;
nodes = (
"534 0 LINE",
"316 305 LINE",
"524 521 LINE",
"427 521 LINE",
"159 250 LINE",
"159 730 LINE",
"71 730 LINE",
"71 0 LINE",
"159 0 LINE",
"159 161 LINE",
"259 255 LINE",
"439 0 LINE"
);
}
);
};
layerId = "A8272220-FCE5-4C48-BDEF-D37440F7149C";
paths = (
{
closed = 1;
nodes = (
"509 0 LINE",
"373 305 LINE",
"615 521 LINE",
"521 521 LINE",
"214 253 LINE",
"319 730 LINE",
"233 730 LINE",
"71 0 LINE",
"158 0 LINE",
"193 161 LINE",
"304 254 LINE",
"416 0 LINE"
);
}
);
width = 620;
},
{
anchors = (
{
name = bottom;
position = "{286, 0}";
}
);
background = {
anchors = (
{
name = bottom;
position = "{300, 0}";
}
);
paths = (
{
closed = 1;
nodes = (
"596 0 LINE",
"397 296 LINE",
"578 526 LINE",
"378 526 LINE",
"238 331 LINE",
"238 730 LINE",
"48 730 LINE",
"48 0 LINE",
"238 0 LINE",
"238 150 LINE",
"276 192 LINE",
"395 0 LINE"
);
}
);
};
layerId = "CD86D743-087E-48CD-95ED-391136C80322";
paths = (
{
closed = 1;
nodes = (
"565 0 LINE",
"450 296 LINE",
"665 526 LINE",
"467 526 LINE",
"310 331 LINE",
"399 730 LINE",
"211 730 LINE",
"48 0 LINE",
"236 0 LINE",
"270 150 LINE",
"307 192 LINE",
"366 0 LINE"
);
}
);
width = 651;
}
);
leftKerningGroup = h;
rightKerningGroup = k;
unicode = 006B;
userData = {
org.robofab.fontlab.mark = 0;
};
},
{
glyphname = kgreenlandic;
lastChange = "2016-11-11 06:11:37 +0000";
layers = (
{
layerId = "DC0D5209-C0CE-4187-A591-293A64199C8F";
paths = (
{
closed = 1;
nodes = (
"465 0 LINE",
"315 311 LINE",
"570 517 LINE",
"545 517 LINE",
"144 196 LINE",
"213 519 LINE",
"194 519 LINE",
"84 0 LINE",
"103 0 LINE",
"139 169 LINE",
"298 297 LINE",
"442 0 LINE"
);
}
);
width = 588;
},
{
layerId = "A8272220-FCE5-4C48-BDEF-D37440F7149C";
paths = (
{
closed = 1;
nodes = (
"509 0 LINE",
"373 305 LINE",
"615 521 LINE",
"519 521 LINE",
"214 250 LINE",
"273 522 LINE",
"187 522 LINE",
"71 0 LINE",
"158 0 LINE",
"193 161 LINE",
"305 255 LINE",
"416 0 LINE"
);
}
);
width = 620;
},
{
layerId = "CD86D743-087E-48CD-95ED-391136C80322";
paths = (
{
closed = 1;
nodes = (
"565 0 LINE",
"450 296 LINE",
"665 526 LINE",
"467 526 LINE",
"310 331 LINE",
"354 526 LINE",
"166 526 LINE",
"48 0 LINE",
"236 0 LINE",
"270 150 LINE",
"307 192 LINE",
"366 0 LINE"
);
}
);
width = 651;
}
);
unicode = 0138;
userData = {
org.robofab.fontlab.mark = 0;
};
},
{
glyphname = l;
lastChange = "2016-11-11 06:11:37 +0000";
layers = (
{
anchors = (
{
name = bottom;
position = "{133, 0}";
},
{
name = center;
position = "{153, 260}";
},
{
name = top;
position = "{233, 710}";
},
{
name = topright;
position = "{242, 519}";
}
);
layerId = "DC0D5209-C0CE-4187-A591-293A64199C8F";
paths = (
{
closed = 1;
nodes = (
"90 77 LINE SMOOTH",
"80 28 OFFCURVE",
"99 -5 OFFCURVE",
"138 -5 CURVE SMOOTH",
"153 -5 OFFCURVE",
"182 1 OFFCURVE",
"198 7 CURVE",
"196 23 LINE",
"180 18 OFFCURVE",
"160 14 OFFCURVE",
"148 14 CURVE SMOOTH",
"115 14 OFFCURVE",
"98 38 OFFCURVE",
"106 77 CURVE SMOOTH",
"245 730 LINE",
"229 730 LINE"
);
}
);
width = 245;
},
{
anchors = (
{
name = bottom;
position = "{144, 0}";
},
{
name = center;
position = "{176, 261}";
},
{
name = top;
position = "{257, 710}";
},
{
name = topright;
position = "{305, 522}";
}
);
layerId = "A8272220-FCE5-4C48-BDEF-D37440F7149C";
paths = (
{
closed = 1;
nodes = (
"73 103 LINE SMOOTH",
"57 34 OFFCURVE",
"84 -7 OFFCURVE",
"145 -7 CURVE SMOOTH",
"173 -7 OFFCURVE",
"215 2 OFFCURVE",
"245 14 CURVE",
"250 86 LINE",
"234 79 OFFCURVE",
"210 72 OFFCURVE",
"188 72 CURVE SMOOTH",
"167 72 OFFCURVE",
"154 77 OFFCURVE",
"167 135 CURVE SMOOTH",
"304 730 LINE",
"220 730 LINE"
);
}
);
width = 302;
},
{
anchors = (
{
name = bottom;
position = "{154, 0}";
},
{
name = center;
position = "{202, 263}";
},
{
name = top;
position = "{274, 710}";
},
{
name = topright;
position = "{389, 526}";
}
);
background = {
components = (
{
name = periodcentered;
transform = "{1, 0, 0, 1, 245, 61}";
}
);
};
layerId = "CD86D743-087E-48CD-95ED-391136C80322";
paths = (
{
closed = 1;
nodes = (
"44 142 LINE SMOOTH",
"20 44 OFFCURVE",
"58 -10 OFFCURVE",
"150 -10 CURVE SMOOTH",
"197 -10 OFFCURVE",
"254 3 OFFCURVE",
"301 24 CURVE",
"313 164 LINE",
"298 155 OFFCURVE",
"282 149 OFFCURVE",
"273 149 CURVE SMOOTH",
"244 149 OFFCURVE",
"237 170 OFFCURVE",
"246 209 CURVE SMOOTH",
"371 730 LINE",
"186 730 LINE"
);
}
);
width = 367;
}
);
leftKerningGroup = l;
rightKerningGroup = l;
unicode = 006C;
userData = {
org.robofab.fontlab.mark = 0;
};
},
{
glyphname = lcaron;
lastChange = "2016-11-11 06:12:34 +0000";
layers = (
{
background = {
paths = (
{
closed = 1;
nodes = (
"90 28 OFFCURVE",
"122 -5 OFFCURVE",
"169 -5 CURVE",
"187 -5 OFFCURVE",
"220 1 OFFCURVE",
"238 7 CURVE",
"231 23 LINE",
"214 18 OFFCURVE",
"191 14 OFFCURVE",
"176 14 CURVE",
"136 14 OFFCURVE",
"110 38 OFFCURVE",
"110 77 CURVE",
"110 730 LINE",
"90 730 LINE",
"90 77 LINE"
);
},
{
closed = 1;
nodes = (
"224 730 LINE",
"160 657 LINE",
"176 645 LINE",
"258 730 LINE"
);
}
);
};
components = (
{
name = l;
},
{
name = caroncomb.alt;
transform = "{1, 0, 0, 1, 222, 0}";
}
);
layerId = "DC0D5209-C0CE-4187-A591-293A64199C8F";
width = 245;
},
{
background = {
paths = (
{
closed = 1;
nodes = (
"263 730 LINE",
"205 629 LINE",
"263 609 LINE",
"351 730 LINE"
);
},
{
closed = 1;
nodes = (
"73 34 OFFCURVE",
"115 -7 OFFCURVE",
"183 -7 CURVE",
"214 -7 OFFCURVE",
"259 2 OFFCURVE",
"288 14 CURVE",
"274 85 LINE",
"257 78 OFFCURVE",
"235 73 OFFCURVE",
"220 73 CURVE",
"183 73 OFFCURVE",
"161 96 OFFCURVE",
"161 135 CURVE",
"161 730 LINE",
"73 730 LINE",
"73 103 LINE"
);
}
);
};
components = (
{
name = l;
},
{
name = caroncomb.alt;
transform = "{1, 0, 0, 1, 268, 0}";
}
);
layerId = "A8272220-FCE5-4C48-BDEF-D37440F7149C";
width = 302;
},
{
background = {
paths = (
{
closed = 1;
nodes = (
"44 44 OFFCURVE",
"101 -10 OFFCURVE",
"202 -10 CURVE",
"252 -10 OFFCURVE",
"314 3 OFFCURVE",
"359 24 CURVE",
"335 164 LINE",
"319 155 OFFCURVE",
"299 149 OFFCURVE",
"283 149 CURVE",
"251 149 OFFCURVE",
"234 170 OFFCURVE",
"234 209 CURVE",
"234 730 LINE",
"44 730 LINE",
"44 142 LINE"
);
},
{
closed = 1;
nodes = (
"319 729 LINE",
"269 587 LINE",
"389 555 LINE",
"488 729 LINE"
);
}
);
};
components = (
{
name = l;
},
{
name = caroncomb.alt;
transform = "{1, 0, 0, 1, 318, 0}";
}
);
layerId = "CD86D743-087E-48CD-95ED-391136C80322";
width = 367;
}
);
leftKerningGroup = l;
rightKerningGroup = l;
unicode = 013E;
userData = {
org.robofab.fontlab.mark = 0;
};
},
{
glyphname = ldot;
lastChange = "2016-11-11 06:11:37 +0000";
layers = (
{
background = {
paths = (
{
closed = 1;
nodes = (
"236 250 LINE",
"236 333 LINE",
"216 333 LINE",
"216 250 LINE"
);
}
);
};
components = (
{
name = l;
},
{
name = periodcentered;
transform = "{1, 0, 0, 1, 147, 0}";
}
);
layerId = "DC0D5209-C0CE-4187-A591-293A64199C8F";
width = 255;
},
{
background = {
paths = (
{
closed = 1;
nodes = (
"323 245 LINE",
"323 369 LINE",
"249 369 LINE",
"249 245 LINE"
);
}
);
};
components = (
{
name = l;
},
{
name = periodcentered;
transform = "{1, 0, 0, 1, 185, 0}";
}
);
layerId = "A8272220-FCE5-4C48-BDEF-D37440F7149C";
width = 339;
},
{
components = (
{
alignment = -1;
name = l;
},
{
name = periodcentered;
transform = "{1, 0, 0, 1, 245, 1}";
}
);
layerId = "CD86D743-087E-48CD-95ED-391136C80322";
width = 467;
}
);
leftKerningGroup = l;
unicode = 0140;
userData = {
org.robofab.fontlab.mark = 0;
};
},
{
glyphname = lslash;
lastChange = "2016-11-11 06:11:37 +0000";
layers = (
{
background = {
components = (
{
name = l;
transform = "{1, 0, 0, 1, 14, 0}";
}
);
paths = (
{
closed = 1;
nodes = (
"231 504 LINE",
"216 518 LINE",
"16 318 LINE",
"31 304 LINE"
);
}
);
};
components = (
{
name = l;
transform = "{1, 0, 0, 1, -53, 0}";
}
);
layerId = "DC0D5209-C0CE-4187-A591-293A64199C8F";
paths = (
{
closed = 1;
nodes = (
"246 504 LINE",
"235 518 LINE",
"16 318 LINE",
"26 304 LINE"
);
}
);
width = 253;
},
{
background = {
components = (
{
name = l;
transform = "{1, 0, 0, 1, 21, 0}";
}
);
paths = (
{
closed = 1;
nodes = (
"297 473 LINE",
"270 522 LINE",
"8 332 LINE",
"34 283 LINE"
);
}
);
};
components = (
{
name = l;
transform = "{1, 0, 0, 1, -55, 0}";
}
);
layerId = "A8272220-FCE5-4C48-BDEF-D37440F7149C";
paths = (
{
closed = 1;
nodes = (
"302 473 LINE",
"289 522 LINE",
"8 332 LINE",
"20 283 LINE"
);
}
);
width = 308;
},
{
background = {
components = (
{
name = l;
transform = "{1, 0, 0, 1, 28, 0}";
}
);
paths = (
{
closed = 1;
nodes = (
"388 426 LINE",
"345 527 LINE",
"-11 353 LINE",
"32 252 LINE"
);
}
);
};
components = (
{
name = l;
transform = "{1, 0, 0, 1, -53, 0}";
}
);
layerId = "CD86D743-087E-48CD-95ED-391136C80322";
paths = (
{
closed = 1;
nodes = (
"379 426 LINE",
"361 527 LINE",
"-11 353 LINE",
"8 252 LINE"
);
}
);
width = 387;
}
);
leftKerningGroup = l;
rightKerningGroup = l;
unicode = 0142;
userData = {
org.robofab.fontlab.mark = 0;
};
},
{
glyphname = m;
lastChange = "2016-11-11 06:11:37 +0000";
layers = (
{
anchors = (
{
name = bottom;
position = "{442, 0}";
},
{
name = top;
position = "{552, 519}";
}
);
layerId = "DC0D5209-C0CE-4187-A591-293A64199C8F";
paths = (
{
closed = 1;
nodes = (
"867 289 LINE SMOOTH",
"901 450 OFFCURVE",
"868 527 OFFCURVE",
"763 527 CURVE SMOOTH",
"678 527 OFFCURVE",
"602 477 OFFCURVE",
"530 376 CURVE",
"540 468 OFFCURVE",
"494 527 OFFCURVE",
"410 527 CURVE SMOOTH",
"330 527 OFFCURVE",
"248 475 OFFCURVE",
"185 385 CURVE",
"214 519 LINE",
"194 519 LINE",
"84 0 LINE",
"103 0 LINE",
"173 328 LINE",
"225 435 OFFCURVE",
"315 507 OFFCURVE",
"409 507 CURVE SMOOTH",
"501 507 OFFCURVE",
"528 439 OFFCURVE",
"496 289 CURVE SMOOTH",
"435 0 LINE",
"454 0 LINE",
"524 327 LINE",
"573 432 OFFCURVE",
"663 507 OFFCURVE",
"759 507 CURVE SMOOTH",
"851 507 OFFCURVE",
"878 437 OFFCURVE",
"847 289 CURVE SMOOTH",
"786 0 LINE",
"806 0 LINE"
);
}
);
width = 945;
},
{
anchors = (
{
name = bottom;
position = "{449, 0}";
},
{
name = top;
position = "{562, 522}";
}
);
layerId = "A8272220-FCE5-4C48-BDEF-D37440F7149C";
paths = (
{
closed = 1;
nodes = (
"899 312 LINE",
"926 437 OFFCURVE",
"911 531 OFFCURVE",
"795 531 CURVE SMOOTH",
"713 531 OFFCURVE",
"638 487 OFFCURVE",
"576 404 CURVE",
"580 478 OFFCURVE",
"541 531 OFFCURVE",
"457 531 CURVE SMOOTH",
"375 531 OFFCURVE",
"297 487 OFFCURVE",
"240 410 CURVE",
"264 522 LINE",
"185 522 LINE",
"71 0 LINE",
"158 0 LINE",
"227 315 LINE",
"267 397 OFFCURVE",
"339 452 OFFCURVE",
"406 452 CURVE SMOOTH",
"471 452 OFFCURVE",
"494 403 OFFCURVE",
"470 292 CURVE SMOOTH",
"407 0 LINE",
"494 0 LINE",
"563 314 LINE",
"603 395 OFFCURVE",
"674 452 OFFCURVE",
"742 452 CURVE SMOOTH",
"807 452 OFFCURVE",
"831 401 OFFCURVE",
"807 292 CURVE SMOOTH",
"744 0 LINE",
"831 0 LINE"
);
}
);
width = 965;
},
{
anchors = (
{
name = bottom;
position = "{457, 0}";
},
{
name = top;
position = "{571, 526}";
}
);
layerId = "CD86D743-087E-48CD-95ED-391136C80322";
paths = (
{
closed = 1;
nodes = (
"945 346 LINE SMOOTH",
"961 418 OFFCURVE",
"971 536 OFFCURVE",
"837 536 CURVE SMOOTH",
"758 536 OFFCURVE",
"685 502 OFFCURVE",
"638 445 CURVE",
"633 492 OFFCURVE",
"604 536 OFFCURVE",
"521 536 CURVE SMOOTH",
"435 536 OFFCURVE",
"363 505 OFFCURVE",
"316 448 CURVE",
"333 526 LINE",
"163 526 LINE",
"48 0 LINE",
"237 0 LINE",
"302 295 LINE",
"326 339 OFFCURVE",
"370 370 OFFCURVE",
"397 370 CURVE SMOOTH",
"422 370 OFFCURVE",
"440 348 OFFCURVE",
"428 296 CURVE SMOOTH",
"364 0 LINE",
"553 0 LINE",
"618 295 LINE",
"642 339 OFFCURVE",
"686 370 OFFCURVE",
"713 370 CURVE SMOOTH",
"738 370 OFFCURVE",
"756 348 OFFCURVE",
"744 296 CURVE SMOOTH",
"680 0 LINE",
"870 0 LINE"
);
}
);
width = 989;
}
);
leftKerningGroup = n;
rightKerningGroup = n;
unicode = 006D;
userData = {
org.robofab.fontlab.mark = 0;
};
},
{
glyphname = n;
lastChange = "2016-11-11 06:11:37 +0000";
layers = (
{
anchors = (
{
name = bottom;
position = "{268, 0}";
},
{
name = top;
position = "{378, 519}";
}
);
layerId = "DC0D5209-C0CE-4187-A591-293A64199C8F";
paths = (
{
closed = 1;
nodes = (
"523 289 LINE SMOOTH",
"558 452 OFFCURVE",
"529 527 OFFCURVE",
"430 527 CURVE SMOOTH",
"342 527 OFFCURVE",
"243 469 OFFCURVE",
"185 385 CURVE",
"213 519 LINE",
"194 519 LINE",
"84 0 LINE",
"103 0 LINE",
"172 328 LINE",
"221 430 OFFCURVE",
"332 507 OFFCURVE",
"426 507 CURVE SMOOTH",
"513 507 OFFCURVE",
"536 440 OFFCURVE",
"504 289 CURVE SMOOTH",
"443 0 LINE",
"462 0 LINE"
);
}
);
width = 601;
},
{
anchors = (
{
name = bottom;
position = "{280, 0}";
},
{
name = top;
position = "{405, 522}";
}
);
layerId = "A8272220-FCE5-4C48-BDEF-D37440F7149C";
paths = (
{
closed = 1;
nodes = (
"565 312 LINE",
"593 438 OFFCURVE",
"582 531 OFFCURVE",
"469 531 CURVE SMOOTH",
"383 531 OFFCURVE",
"295 483 OFFCURVE",
"241 410 CURVE",
"266 522 LINE",
"187 522 LINE",
"71 0 LINE",
"158 0 LINE",
"228 315 LINE",
"267 394 OFFCURVE",
"350 452 OFFCURVE",
"415 452 CURVE SMOOTH",
"477 452 OFFCURVE",
"498 403 OFFCURVE",
"474 292 CURVE SMOOTH",
"409 0 LINE",
"496 0 LINE"
);
}
);
width = 631;
},
{
anchors = (
{
name = bottom;
position = "{297, 0}";
},
{
name = top;
position = "{436, 526}";
}
);
layerId = "CD86D743-087E-48CD-95ED-391136C80322";
paths = (
{
closed = 1;
nodes = (
"626 346 LINE SMOOTH",
"642 418 OFFCURVE",
"654 536 OFFCURVE",
"519 536 CURVE SMOOTH",
"434 536 OFFCURVE",
"364 505 OFFCURVE",
"317 448 CURVE",
"335 526 LINE",
"165 526 LINE",
"48 0 LINE",
"237 0 LINE",
"303 295 LINE",
"327 339 OFFCURVE",
"369 370 OFFCURVE",
"394 370 CURVE SMOOTH",
"418 370 OFFCURVE",
"438 348 OFFCURVE",
"426 296 CURVE SMOOTH",
"360 0 LINE",
"549 0 LINE"
);
}
);
width = 670;
}
);
leftKerningGroup = n;
rightKerningGroup = n;
unicode = 006E;
userData = {
org.robofab.fontlab.mark = 0;
};
},
{
glyphname = eng;
lastChange = "2016-11-11 06:11:37 +0000";
layers = (
{
layerId = "DC0D5209-C0CE-4187-A591-293A64199C8F";
paths = (
{
closed = 1;
nodes = (
"301 -170 CURVE SMOOTH",
"359 -170 OFFCURVE",
"438 -114 OFFCURVE",
"454 -36 CURVE SMOOTH",
"523 289 LINE SMOOTH",
"558 452 OFFCURVE",
"529 527 OFFCURVE",
"430 527 CURVE SMOOTH",
"342 527 OFFCURVE",
"243 469 OFFCURVE",
"185 385 CURVE",
"213 519 LINE",
"194 519 LINE",
"84 0 LINE",
"103 0 LINE",
"172 328 LINE",
"221 430 OFFCURVE",
"332 507 OFFCURVE",
"426 507 CURVE SMOOTH",
"513 507 OFFCURVE",
"536 440 OFFCURVE",
"504 289 CURVE SMOOTH",
"435 -36 LINE SMOOTH",
"422 -100 OFFCURVE",
"356 -150 OFFCURVE",
"304 -150 CURVE SMOOTH",
"278 -150 OFFCURVE",
"250 -145 OFFCURVE",
"232 -124 CURVE",
"215 -136 LINE",
"233 -162 OFFCURVE",
"265 -170 OFFCURVE"
);
}
);
width = 601;
},
{
layerId = "A8272220-FCE5-4C48-BDEF-D37440F7149C";
paths = (
{
closed = 1;
nodes = (
"301 -186 CURVE SMOOTH",
"382 -186 OFFCURVE",
"470 -116 OFFCURVE",
"492 -17 CURVE SMOOTH",
"565 312 LINE SMOOTH",
"593 438 OFFCURVE",
"582 531 OFFCURVE",
"469 531 CURVE SMOOTH",
"383 531 OFFCURVE",
"295 483 OFFCURVE",
"241 410 CURVE",
"266 522 LINE",
"187 522 LINE",
"71 0 LINE",
"158 0 LINE",
"228 315 LINE",
"267 394 OFFCURVE",
"350 452 OFFCURVE",
"415 452 CURVE SMOOTH",
"477 452 OFFCURVE",
"498 403 OFFCURVE",
"474 292 CURVE SMOOTH",
"404 -23 LINE SMOOTH",
"393 -72 OFFCURVE",
"349 -108 OFFCURVE",
"309 -108 CURVE SMOOTH",
"287 -108 OFFCURVE",
"265 -102 OFFCURVE",
"252 -85 CURVE",
"198 -144 LINE",
"221 -173 OFFCURVE",
"258 -186 OFFCURVE"
);
}
);
width = 631;
},
{
layerId = "CD86D743-087E-48CD-95ED-391136C80322";
paths = (
{
closed = 1;
nodes = (
"305 -209 CURVE SMOOTH",
"419 -209 OFFCURVE",
"522 -119 OFFCURVE",
"551 12 CURVE SMOOTH",
"625 346 LINE SMOOTH",
"641 418 OFFCURVE",
"655 536 OFFCURVE",
"519 536 CURVE SMOOTH",
"434 536 OFFCURVE",
"364 505 OFFCURVE",
"317 448 CURVE",
"335 526 LINE",
"165 526 LINE",
"48 0 LINE",
"237 0 LINE",
"303 295 LINE",
"327 339 OFFCURVE",
"369 370 OFFCURVE",
"394 370 CURVE SMOOTH",
"418 370 OFFCURVE",
"438 348 OFFCURVE",
"426 296 CURVE SMOOTH",
"359 -3 LINE SMOOTH",
"353 -30 OFFCURVE",
"338 -46 OFFCURVE",
"316 -46 CURVE SMOOTH",
"300 -46 OFFCURVE",
"287 -38 OFFCURVE",
"280 -26 CURVE",
"174 -155 LINE",
"206 -190 OFFCURVE",
"253 -209 OFFCURVE"
);
}
);
width = 669;
}
);
leftKerningGroup = n;
rightKerningGroup = n;
unicode = 014B;
userData = {
org.robofab.fontlab.mark = 0;
};
},
{
glyphname = o;
lastChange = "2016-11-11 06:11:37 +0000";
layers = (
{
anchors = (
{
name = bottom;
position = "{231, 0}";
},
{
name = center;
position = "{288, 260}";
},
{
name = ogonek;
position = "{285, 0}";
},
{
name = top;
position = "{343, 519}";
},
{
name = topright;
position = "{458, 481}";
}
);
layerId = "DC0D5209-C0CE-4187-A591-293A64199C8F";
paths = (
{
closed = 1;
nodes = (
"230 -10 CURVE SMOOTH",
"378 -10 OFFCURVE",
"528 142 OFFCURVE",
"528 308 CURVE SMOOTH",
"528 429 OFFCURVE",
"453 527 OFFCURVE",
"344 527 CURVE SMOOTH",
"199 527 OFFCURVE",
"46 376 OFFCURVE",
"46 207 CURVE SMOOTH",
"46 88 OFFCURVE",
"119 -10 OFFCURVE"
);
},
{
closed = 1;
nodes = (
"65 209 CURVE SMOOTH",
"65 365 OFFCURVE",
"207 507 OFFCURVE",
"340 507 CURVE SMOOTH",
"440 507 OFFCURVE",
"509 416 OFFCURVE",
"509 305 CURVE SMOOTH",
"509 150 OFFCURVE",
"368 10 OFFCURVE",
"234 10 CURVE SMOOTH",
"133 10 OFFCURVE",
"65 99 OFFCURVE"
);
}
);
width = 574;
},
{
anchors = (
{
name = bottom;
position = "{236, 0}";
},
{
name = center;
position = "{295, 261}";
},
{
name = ogonek;
position = "{306, 0}";
},
{
name = top;
position = "{351, 522}";
},
{
name = topright;
position = "{470, 458}";
}
);
layerId = "A8272220-FCE5-4C48-BDEF-D37440F7149C";
paths = (
{
closed = 1;
nodes = (
"234 -10 CURVE SMOOTH",
"408 -10 OFFCURVE",
"552 145 OFFCURVE",
"552 312 CURVE SMOOTH",
"552 432 OFFCURVE",
"479 531 OFFCURVE",
"353 531 CURVE SMOOTH",
"182 531 OFFCURVE",
"36 376 OFFCURVE",
"36 207 CURVE SMOOTH",
"36 88 OFFCURVE",
"108 -10 OFFCURVE"
);
},
{
closed = 1;
nodes = (
"126 218 CURVE SMOOTH",
"126 346 OFFCURVE",
"233 455 OFFCURVE",
"336 455 CURVE SMOOTH",
"411 455 OFFCURVE",
"461 388 OFFCURVE",
"461 301 CURVE SMOOTH",
"461 174 OFFCURVE",
"356 66 OFFCURVE",
"251 66 CURVE SMOOTH",
"176 66 OFFCURVE",
"126 131 OFFCURVE"
);
}
);
width = 588;
},
{
anchors = (
{
name = bottom;
position = "{244, 0}";
},
{
name = center;
position = "{301, 263}";
},
{
name = ogonek;
position = "{324, 0}";
},
{
name = top;
position = "{359, 526}";
},
{
name = topright;
position = "{489, 453}";
}
);
layerId = "CD86D743-087E-48CD-95ED-391136C80322";
paths = (
{
closed = 1;
nodes = (
"242 -10 CURVE SMOOTH",
"453 -10 OFFCURVE",
"584 151 OFFCURVE",
"584 314 CURVE SMOOTH",
"584 435 OFFCURVE",
"514 536 OFFCURVE",
"362 536 CURVE SMOOTH",
"150 536 OFFCURVE",
"19 375 OFFCURVE",
"19 212 CURVE SMOOTH",
"19 92 OFFCURVE",
"89 -10 OFFCURVE"
);
},
{
closed = 1;
nodes = (
"216 235 CURVE SMOOTH",
"216 318 OFFCURVE",
"267 376 OFFCURVE",
"326 376 CURVE SMOOTH",
"364 376 OFFCURVE",
"387 343 OFFCURVE",
"387 291 CURVE SMOOTH",
"387 208 OFFCURVE",
"336 150 OFFCURVE",
"277 150 CURVE SMOOTH",
"238 150 OFFCURVE",
"216 183 OFFCURVE"
);
}
);
width = 603;
}
);
leftKerningGroup = o;
rightKerningGroup = o;
unicode = 006F;
userData = {
org.robofab.fontlab.mark = 0;
};
},
{
glyphname = oslash;
lastChange = "2016-11-11 06:11:37 +0000";
layers = (
{
layerId = "DC0D5209-C0CE-4187-A591-293A64199C8F";
paths = (
{
closed = 1;
nodes = (
"378 -10 OFFCURVE",
"528 142 OFFCURVE",
"528 308 CURVE SMOOTH",
"528 429 OFFCURVE",
"453 527 OFFCURVE",
"344 527 CURVE SMOOTH",
"199 527 OFFCURVE",
"46 376 OFFCURVE",
"46 207 CURVE SMOOTH",
"46 88 OFFCURVE",
"119 -10 OFFCURVE",
"230 -10 CURVE SMOOTH"
);
},
{
closed = 1;
nodes = (
"133 10 OFFCURVE",
"65 99 OFFCURVE",
"65 209 CURVE SMOOTH",
"65 365 OFFCURVE",
"207 507 OFFCURVE",
"340 507 CURVE SMOOTH",
"440 507 OFFCURVE",
"509 416 OFFCURVE",
"509 305 CURVE SMOOTH",
"509 150 OFFCURVE",
"368 10 OFFCURVE",
"234 10 CURVE SMOOTH"
);
},
{
closed = 1;
nodes = (
"95 0 LINE",
"125 38 LINE",
"111 51 LINE",
"71 0 LINE"
);
},
{
closed = 1;
nodes = (
"465 466 LINE",
"451 479 LINE",
"111 51 LINE",
"125 38 LINE"
);
},
{
closed = 1;
nodes = (
"507 519 LINE",
"482 519 LINE",
"451 479 LINE",
"465 466 LINE"
);
}
);
width = 574;
},
{
background = {
paths = (
{
closed = 1;
nodes = (
"456 -10 OFFCURVE",
"563 115 OFFCURVE",
"563 260 CURVE SMOOTH",
"563 406 OFFCURVE",
"455 531 OFFCURVE",
"299 531 CURVE SMOOTH",
"144 531 OFFCURVE",
"36 406 OFFCURVE",
"36 260 CURVE SMOOTH",
"36 115 OFFCURVE",
"142 -10 OFFCURVE",
"299 -10 CURVE SMOOTH"
);
},
{
closed = 1;
nodes = (
"203 66 OFFCURVE",
"126 150 OFFCURVE",
"126 259 CURVE SMOOTH",
"126 368 OFFCURVE",
"204 455 OFFCURVE",
"299 455 CURVE SMOOTH",
"395 455 OFFCURVE",
"473 369 OFFCURVE",
"473 261 CURVE SMOOTH",
"473 152 OFFCURVE",
"395 66 OFFCURVE",
"299 66 CURVE SMOOTH"
);
},
{
closed = 1;
nodes = (
"135 -2 LINE",
"188 64 LINE",
"157 94 LINE",
"80 -2 LINE"
);
},
{
closed = 1;
nodes = (
"442 432 LINE",
"408 455 LINE",
"163 98 LINE",
"192 71 LINE"
);
},
{
closed = 1;
nodes = (
"517 524 LINE",
"461 524 LINE",
"412 461 LINE",
"448 437 LINE"
);
}
);
};
layerId = "A8272220-FCE5-4C48-BDEF-D37440F7149C";
paths = (
{
closed = 1;
nodes = (
"432 -10 OFFCURVE",
"576 145 OFFCURVE",
"576 312 CURVE SMOOTH",
"576 432 OFFCURVE",
"503 531 OFFCURVE",
"377 531 CURVE SMOOTH",
"206 531 OFFCURVE",
"60 376 OFFCURVE",
"60 207 CURVE SMOOTH",
"60 88 OFFCURVE",
"132 -10 OFFCURVE",
"258 -10 CURVE SMOOTH"
);
},
{
closed = 1;
nodes = (
"200 66 OFFCURVE",
"151 131 OFFCURVE",
"151 218 CURVE SMOOTH",
"151 346 OFFCURVE",
"257 455 OFFCURVE",
"360 455 CURVE SMOOTH",
"435 455 OFFCURVE",
"485 388 OFFCURVE",
"485 301 CURVE SMOOTH",
"485 174 OFFCURVE",
"380 66 OFFCURVE",
"276 66 CURVE SMOOTH"
);
},
{
closed = 1;
nodes = (
"108 -2 LINE",
"175 64 LINE",
"133 94 LINE",
"36 -2 LINE"
);
},
{
closed = 1;
nodes = (
"500 432 LINE",
"454 455 LINE",
"144 98 LINE",
"185 71 LINE"
);
},
{
closed = 1;
nodes = (
"598 524 LINE",
"525 524 LINE",
"464 461 LINE",
"512 437 LINE"
);
}
);
width = 634;
},
{
background = {
paths = (
{
closed = 1;
nodes = (
"495 -10 OFFCURVE",
"595 119 OFFCURVE",
"595 263 CURVE SMOOTH",
"595 408 OFFCURVE",
"495 536 OFFCURVE",
"307 536 CURVE SMOOTH",
"119 536 OFFCURVE",
"19 408 OFFCURVE",
"19 263 CURVE SMOOTH",
"19 119 OFFCURVE",
"119 -10 OFFCURVE",
"307 -10 CURVE SMOOTH"
);
},
{
closed = 1;
nodes = (
"253 150 OFFCURVE",
"214 193 OFFCURVE",
"214 263 CURVE SMOOTH",
"214 333 OFFCURVE",
"253 376 OFFCURVE",
"307 376 CURVE SMOOTH",
"361 376 OFFCURVE",
"400 333 OFFCURVE",
"400 263 CURVE SMOOTH",
"400 193 OFFCURVE",
"361 150 OFFCURVE",
"307 150 CURVE SMOOTH"
);
},
{
closed = 1;
nodes = (
"114 -6 LINE",
"211 104 LINE",
"159 158 LINE",
"14 -6 LINE"
);
},
{
closed = 1;
nodes = (
"452 381 LINE",
"395 418 LINE",
"174 169 LINE",
"221 121 LINE"
);
},
{
closed = 1;
nodes = (
"591 532 LINE",
"490 532 LINE",
"404 435 LINE",
"467 393 LINE"
);
}
);
};
layerId = "CD86D743-087E-48CD-95ED-391136C80322";
paths = (
{
closed = 1;
nodes = (
"498 -10 OFFCURVE",
"628 151 OFFCURVE",
"628 314 CURVE SMOOTH",
"628 435 OFFCURVE",
"561 536 OFFCURVE",
"413 536 CURVE SMOOTH",
"205 536 OFFCURVE",
"76 375 OFFCURVE",
"76 212 CURVE SMOOTH",
"76 92 OFFCURVE",
"143 -10 OFFCURVE",
"291 -10 CURVE SMOOTH"
);
},
{
closed = 1;
nodes = (
"293 150 OFFCURVE",
"272 183 OFFCURVE",
"272 235 CURVE SMOOTH",
"272 318 OFFCURVE",
"321 376 OFFCURVE",
"377 376 CURVE SMOOTH",
"412 376 OFFCURVE",
"431 343 OFFCURVE",
"431 291 CURVE SMOOTH",
"431 208 OFFCURVE",
"382 150 OFFCURVE",
"326 150 CURVE SMOOTH"
);
},
{
closed = 1;
nodes = (
"109 -6 LINE",
"229 104 LINE",
"183 158 LINE",
"14 -6 LINE"
);
},
{
closed = 1;
nodes = (
"511 381 LINE",
"466 418 LINE",
"210 169 LINE",
"242 121 LINE"
);
},
{
closed = 1;
nodes = (
"680 532 LINE",
"584 532 LINE",
"479 435 LINE",
"539 393 LINE"
);
}
);
width = 699;
}
);
leftKerningGroup = o;
rightKerningGroup = o;
unicode = 00F8;
userData = {
org.robofab.fontlab.mark = 0;
};
},
{
glyphname = oe;
lastChange = "2016-11-11 06:11:37 +0000";
layers = (
{
layerId = "DC0D5209-C0CE-4187-A591-293A64199C8F";
paths = (
{
closed = 1;
nodes = (
"235 -10 CURVE SMOOTH",
"343 -10 OFFCURVE",
"453 68 OFFCURVE",
"509 185 CURVE",
"516 72 OFFCURVE",
"601 -10 OFFCURVE",
"710 -10 CURVE SMOOTH",
"797 -10 OFFCURVE",
"894 42 OFFCURVE",
"938 114 CURVE",
"921 119 LINE",
"882 55 OFFCURVE",
"797 10 OFFCURVE",
"716 10 CURVE SMOOTH",
"594 10 OFFCURVE",
"514 115 OFFCURVE",
"532 248 CURVE",
"995 248 LINE",
"996 252 OFFCURVE",
"1000 255 OFFCURVE",
"1000 303 CURVE SMOOTH",
"1000 441 OFFCURVE",
"931 527 OFFCURVE",
"812 527 CURVE SMOOTH",
"697 527 OFFCURVE",
"591 452 OFFCURVE",
"538 332 CURVE",
"535 449 OFFCURVE",
"460 527 OFFCURVE",
"353 527 CURVE SMOOTH",
"199 527 OFFCURVE",
"46 377 OFFCURVE",
"46 206 CURVE SMOOTH",
"46 85 OFFCURVE",
"122 -10 OFFCURVE"
);
},
{
closed = 1;
nodes = (
"240 10 CURVE SMOOTH",
"136 10 OFFCURVE",
"66 97 OFFCURVE",
"66 208 CURVE SMOOTH",
"66 366 OFFCURVE",
"208 507 OFFCURVE",
"348 507 CURVE SMOOTH",
"451 507 OFFCURVE",
"521 418 OFFCURVE",
"521 305 CURVE SMOOTH",
"521 147 OFFCURVE",
"380 10 OFFCURVE"
);
},
{
closed = 1;
nodes = (
"536 268 LINE",
"572 405 OFFCURVE",
"688 507 OFFCURVE",
"807 507 CURVE SMOOTH",
"927 507 OFFCURVE",
"999 407 OFFCURVE",
"979 268 CURVE"
);
}
);
width = 1035;
},
{
layerId = "A8272220-FCE5-4C48-BDEF-D37440F7149C";
paths = (
{
closed = 1;
nodes = (
"240 -10 CURVE SMOOTH",
"331 -10 OFFCURVE",
"418 45 OFFCURVE",
"486 139 CURVE",
"515 48 OFFCURVE",
"583 -10 OFFCURVE",
"675 -10 CURVE SMOOTH",
"772 -10 OFFCURVE",
"873 43 OFFCURVE",
"926 122 CURVE",
"857 143 LINE",
"826 91 OFFCURVE",
"758 55 OFFCURVE",
"693 55 CURVE SMOOTH",
"600 55 OFFCURVE",
"540 132 OFFCURVE",
"554 231 CURVE",
"975 231 LINE",
"978 239 OFFCURVE",
"987 262 OFFCURVE",
"987 309 CURVE SMOOTH",
"987 443 OFFCURVE",
"912 531 OFFCURVE",
"785 531 CURVE SMOOTH",
"686 531 OFFCURVE",
"599 476 OFFCURVE",
"538 379 CURVE",
"520 473 OFFCURVE",
"453 531 OFFCURVE",
"358 531 CURVE SMOOTH",
"191 531 OFFCURVE",
"36 385 OFFCURVE",
"36 208 CURVE SMOOTH",
"36 83 OFFCURVE",
"116 -10 OFFCURVE"
);
},
{
closed = 1;
nodes = (
"258 66 CURVE SMOOTH",
"179 66 OFFCURVE",
"127 131 OFFCURVE",
"127 219 CURVE SMOOTH",
"127 346 OFFCURVE",
"234 455 OFFCURVE",
"343 455 CURVE SMOOTH",
"422 455 OFFCURVE",
"473 388 OFFCURVE",
"473 300 CURVE SMOOTH",
"473 173 OFFCURVE",
"368 66 OFFCURVE"
);
},
{
closed = 1;
nodes = (
"564 288 LINE",
"592 391 OFFCURVE",
"678 465 OFFCURVE",
"768 465 CURVE SMOOTH",
"858 465 OFFCURVE",
"919 392 OFFCURVE",
"903 288 CURVE"
);
}
);
width = 1015;
},
{
layerId = "CD86D743-087E-48CD-95ED-391136C80322";
paths = (
{
closed = 1;
nodes = (
"247 -10 CURVE SMOOTH",
"314 -10 OFFCURVE",
"363 10 OFFCURVE",
"450 70 CURVE",
"510 11 OFFCURVE",
"553 -10 OFFCURVE",
"621 -10 CURVE SMOOTH",
"734 -10 OFFCURVE",
"841 44 OFFCURVE",
"905 133 CURVE",
"760 179 LINE",
"740 146 OFFCURVE",
"696 122 OFFCURVE",
"655 122 CURVE SMOOTH",
"607 122 OFFCURVE",
"577 157 OFFCURVE",
"585 205 CURVE",
"942 205 LINE",
"952 231 OFFCURVE",
"966 266 OFFCURVE",
"966 314 CURVE SMOOTH",
"966 444 OFFCURVE",
"879 536 OFFCURVE",
"740 536 CURVE SMOOTH",
"666 536 OFFCURVE",
"607 511 OFFCURVE",
"532 450 CURVE",
"491 509 OFFCURVE",
"440 536 OFFCURVE",
"363 536 CURVE SMOOTH",
"175 536 OFFCURVE",
"19 396 OFFCURVE",
"19 211 CURVE SMOOTH",
"19 81 OFFCURVE",
"106 -10 OFFCURVE"
);
},
{
closed = 1;
nodes = (
"283 150 CURVE SMOOTH",
"241 150 OFFCURVE",
"217 184 OFFCURVE",
"217 235 CURVE SMOOTH",
"217 315 OFFCURVE",
"267 376 OFFCURVE",
"332 376 CURVE SMOOTH",
"375 376 OFFCURVE",
"399 342 OFFCURVE",
"399 291 CURVE SMOOTH",
"399 211 OFFCURVE",
"348 150 OFFCURVE"
);
},
{
closed = 1;
nodes = (
"603 319 LINE",
"618 369 OFFCURVE",
"658 401 OFFCURVE",
"705 401 CURVE SMOOTH",
"751 401 OFFCURVE",
"776 369 OFFCURVE",
"771 319 CURVE"
);
}
);
width = 980;
}
);
leftKerningGroup = o;
rightKerningGroup = e;
unicode = 0153;
userData = {
org.robofab.fontlab.mark = 0;
};
},
{
glyphname = p;
lastChange = "2016-11-11 06:11:37 +0000";
layers = (
{
layerId = "DC0D5209-C0CE-4187-A591-293A64199C8F";
paths = (
{
closed = 1;
nodes = (
"347 -10 CURVE SMOOTH",
"507 -10 OFFCURVE",
"638 150 OFFCURVE",
"638 306 CURVE SMOOTH",
"638 419 OFFCURVE",
"570 527 OFFCURVE",
"453 527 CURVE SMOOTH",
"378 527 OFFCURVE",
"291 478 OFFCURVE",
"235 409 CURVE",
"259 519 LINE",
"240 519 LINE",
"84 -213 LINE",
"103 -213 LINE",
"174 119 LINE",
"201 49 OFFCURVE",
"260 -10 OFFCURVE"
);
},
{
closed = 1;
nodes = (
"351 10 CURVE SMOOTH",
"264 10 OFFCURVE",
"200 77 OFFCURVE",
"182 161 CURVE",
"222 348 LINE",
"245 431 OFFCURVE",
"372 507 OFFCURVE",
"448 507 CURVE SMOOTH",
"552 507 OFFCURVE",
"619 412 OFFCURVE",
"619 303 CURVE SMOOTH",
"619 166 OFFCURVE",
"498 10 OFFCURVE"
);
}
);
width = 684;
},
{
layerId = "A8272220-FCE5-4C48-BDEF-D37440F7149C";
paths = (
{
closed = 1;
nodes = (
"382 -10 CURVE SMOOTH",
"535 -10 OFFCURVE",
"669 147 OFFCURVE",
"669 314 CURVE SMOOTH",
"669 431 OFFCURVE",
"602 531 OFFCURVE",
"490 531 CURVE SMOOTH",
"416 531 OFFCURVE",
"341 488 OFFCURVE",
"289 424 CURVE",
"311 522 LINE",
"234 522 LINE",
"71 -213 LINE",
"158 -213 LINE",
"227 103 LINE",
"249 38 OFFCURVE",
"302 -10 OFFCURVE"
);
},
{
closed = 1;
nodes = (
"373 66 CURVE SMOOTH",
"308 66 OFFCURVE",
"259 120 OFFCURVE",
"247 189 CURVE",
"280 338 LINE",
"306 402 OFFCURVE",
"392 455 OFFCURVE",
"450 455 CURVE SMOOTH",
"529 455 OFFCURVE",
"578 385 OFFCURVE",
"578 300 CURVE SMOOTH",
"578 187 OFFCURVE",
"483 66 OFFCURVE"
);
}
);
width = 706;
},
{
layerId = "CD86D743-087E-48CD-95ED-391136C80322";
paths = (
{
closed = 1;
nodes = (
"432 -10 CURVE SMOOTH",
"576 -10 OFFCURVE",
"710 142 OFFCURVE",
"710 321 CURVE SMOOTH",
"710 446 OFFCURVE",
"644 536 OFFCURVE",
"535 536 CURVE SMOOTH",
"461 536 OFFCURVE",
"404 504 OFFCURVE",
"358 447 CURVE",
"375 526 LINE",
"212 526 LINE",
"48 -213 LINE",
"237 -213 LINE",
"301 78 LINE",
"316 21 OFFCURVE",
"362 -10 OFFCURVE"
);
},
{
closed = 1;
nodes = (
"402 150 CURVE SMOOTH",
"367 150 OFFCURVE",
"341 185 OFFCURVE",
"335 231 CURVE",
"355 322 LINE",
"387 358 OFFCURVE",
"413 376 OFFCURVE",
"444 376 CURVE SMOOTH",
"489 376 OFFCURVE",
"513 342 OFFCURVE",
"513 290 CURVE SMOOTH",
"513 216 OFFCURVE",
"458 150 OFFCURVE"
);
}
);
width = 731;
}
);
leftKerningGroup = n;
rightKerningGroup = b;
unicode = 0070;
userData = {
org.robofab.fontlab.mark = 0;
};
},
{
glyphname = thorn;
lastChange = "2016-11-11 06:11:37 +0000";
layers = (
{
layerId = "DC0D5209-C0CE-4187-A591-293A64199C8F";
paths = (
{
closed = 1;
nodes = (
"632 258 CURVE",
"659 386 OFFCURVE",
"605 527 OFFCURVE",
"461 527 CURVE SMOOTH",
"375 527 OFFCURVE",
"299 473 OFFCURVE",
"233 398 CURVE",
"299 710 LINE",
"280 710 LINE",
"84 -213 LINE",
"103 -213 LINE",
"171 108 LINE",
"196 42 OFFCURVE",
"261 -10 OFFCURVE",
"338 -10 CURVE SMOOTH",
"472 -10 OFFCURVE",
"598 117 OFFCURVE"
);
},
{
closed = 1;
nodes = (
"620 308 CURVE SMOOTH",
"620 162 OFFCURVE",
"487 10 OFFCURVE",
"343 10 CURVE SMOOTH",
"266 10 OFFCURVE",
"166 84 OFFCURVE",
"184 169 CURVE SMOOTH",
"224 356 LINE",
"278 435 OFFCURVE",
"363 507 OFFCURVE",
"457 507 CURVE SMOOTH",
"561 507 OFFCURVE",
"620 413 OFFCURVE"
);
}
);
width = 678;
},
{
layerId = "A8272220-FCE5-4C48-BDEF-D37440F7149C";
paths = (
{
closed = 1;
nodes = (
"643 257 CURVE",
"671 389 OFFCURVE",
"614 534 OFFCURVE",
"470 534 CURVE SMOOTH",
"398 534 OFFCURVE",
"345 494 OFFCURVE",
"307 449 CURVE",
"364 710 LINE",
"275 710 LINE",
"71 -213 LINE",
"160 -213 LINE",
"220 60 LINE",
"233 19 OFFCURVE",
"275 -18 OFFCURVE",
"339 -18 CURVE SMOOTH",
"474 -18 OFFCURVE",
"610 112 OFFCURVE"
);
},
{
closed = 1;
nodes = (
"560 303 CURVE SMOOTH",
"560 180 OFFCURVE",
"461 62 OFFCURVE",
"356 62 CURVE SMOOTH",
"298 62 OFFCURVE",
"233 117 OFFCURVE",
"245 173 CURVE SMOOTH",
"283 344 LINE",
"323 403 OFFCURVE",
"381 454 OFFCURVE",
"447 454 CURVE SMOOTH",
"520 454 OFFCURVE",
"560 384 OFFCURVE"
);
}
);
width = 678;
},
{
layerId = "CD86D743-087E-48CD-95ED-391136C80322";
paths = (
{
closed = 1;
nodes = (
"662 305 CURVE SMOOTH",
"662 424 OFFCURVE",
"597 544 OFFCURVE",
"472 544 CURVE SMOOTH",
"421 544 OFFCURVE",
"402 525 OFFCURVE",
"405 525 CURVE",
"446 710 LINE",
"252 710 LINE",
"48 -213 LINE",
"242 -213 LINE",
"287 -13 LINE",
"283 -15 OFFCURVE",
"294 -31 OFFCURVE",
"339 -31 CURVE SMOOTH",
"494 -31 OFFCURVE",
"662 131 OFFCURVE"
);
},
{
closed = 1;
nodes = (
"467 292 CURVE SMOOTH",
"467 207 OFFCURVE",
"419 139 OFFCURVE",
"369 139 CURVE SMOOTH",
"339 139 OFFCURVE",
"326 166 OFFCURVE",
"328 179 CURVE",
"362 327 LINE",
"381 356 OFFCURVE",
"398 374 OFFCURVE",
"423 374 CURVE SMOOTH",
"454 374 OFFCURVE",
"467 338 OFFCURVE"
);
}
);
width = 680;
}
);
leftKerningGroup = h;
rightKerningGroup = b;
unicode = 00FE;
userData = {
org.robofab.fontlab.mark = 0;
};
},
{
glyphname = q;
lastChange = "2016-11-11 06:11:37 +0000";
layers = (
{
layerId = "DC0D5209-C0CE-4187-A591-293A64199C8F";
paths = (
{
closed = 1;
nodes = (
"224 -10 CURVE SMOOTH",
"301 -10 OFFCURVE",
"380 35 OFFCURVE",
"452 119 CURVE",
"382 -213 LINE",
"401 -213 LINE",
"556 519 LINE",
"537 519 LINE",
"514 409 LINE",
"489 475 OFFCURVE",
"425 527 OFFCURVE",
"347 527 CURVE SMOOTH",
"197 527 OFFCURVE",
"46 371 OFFCURVE",
"46 205 CURVE SMOOTH",
"46 93 OFFCURVE",
"108 -10 OFFCURVE"
);
},
{
closed = 1;
nodes = (
"228 10 CURVE SMOOTH",
"126 10 OFFCURVE",
"65 101 OFFCURVE",
"65 208 CURVE SMOOTH",
"65 353 OFFCURVE",
"197 507 OFFCURVE",
"343 507 CURVE SMOOTH",
"426 507 OFFCURVE",
"510 431 OFFCURVE",
"501 348 CURVE",
"461 161 LINE",
"407 82 OFFCURVE",
"322 10 OFFCURVE"
);
}
);
width = 640;
},
{
layerId = "A8272220-FCE5-4C48-BDEF-D37440F7149C";
paths = (
{
closed = 1;
nodes = (
"205 -10 CURVE SMOOTH",
"280 -10 OFFCURVE",
"351 29 OFFCURVE",
"411 103 CURVE",
"341 -213 LINE",
"428 -213 LINE",
"590 522 LINE",
"513 522 LINE",
"492 423 LINE",
"469 486 OFFCURVE",
"413 531 OFFCURVE",
"337 531 CURVE SMOOTH",
"186 531 OFFCURVE",
"37 378 OFFCURVE",
"37 202 CURVE SMOOTH",
"37 87 OFFCURVE",
"98 -10 OFFCURVE"
);
},
{
closed = 1;
nodes = (
"253 66 CURVE SMOOTH",
"174 66 OFFCURVE",
"128 134 OFFCURVE",
"128 218 CURVE SMOOTH",
"128 335 OFFCURVE",
"229 455 OFFCURVE",
"339 455 CURVE SMOOTH",
"403 455 OFFCURVE",
"464 396 OFFCURVE",
"460 328 CURVE",
"428 178 LINE",
"382 116 OFFCURVE",
"321 66 OFFCURVE"
);
}
);
width = 661;
},
{
layerId = "CD86D743-087E-48CD-95ED-391136C80322";
paths = (
{
closed = 1;
nodes = (
"179 -10 CURVE SMOOTH",
"250 -10 OFFCURVE",
"310 21 OFFCURVE",
"350 78 CURVE",
"286 -214 LINE",
"475 -214 LINE",
"638 526 LINE",
"474 526 LINE",
"457 445 LINE",
"434 502 OFFCURVE",
"392 536 OFFCURVE",
"318 536 CURVE SMOOTH",
"162 536 OFFCURVE",
"21 390 OFFCURVE",
"21 203 CURVE SMOOTH",
"21 80 OFFCURVE",
"81 -10 OFFCURVE"
);
},
{
closed = 1;
nodes = (
"288 150 CURVE SMOOTH",
"244 150 OFFCURVE",
"218 184 OFFCURVE",
"218 236 CURVE SMOOTH",
"218 310 OFFCURVE",
"273 376 OFFCURVE",
"330 376 CURVE SMOOTH",
"365 376 OFFCURVE",
"391 344 OFFCURVE",
"398 298 CURVE",
"377 204 LINE",
"348 168 OFFCURVE",
"319 150 OFFCURVE"
);
}
);
width = 686;
}
);
leftKerningGroup = d;
rightKerningGroup = a.alt;
unicode = 0071;
userData = {
org.robofab.fontlab.mark = 0;
};
},
{
glyphname = r;
lastChange = "2016-11-11 06:11:37 +0000";
layers = (
{
anchors = (
{
name = bottom;
position = "{93, 0}";
},
{
name = top;
position = "{276, 519}";
}
);
layerId = "DC0D5209-C0CE-4187-A591-293A64199C8F";
paths = (
{
closed = 1;
nodes = (
"391 519 LINE",
"384 519 OFFCURVE",
"372 518 OFFCURVE",
"361 517 CURVE SMOOTH",
"299 511 OFFCURVE",
"231 458 OFFCURVE",
"184 385 CURVE",
"212 519 LINE",
"194 519 LINE",
"84 0 LINE",
"102 0 LINE",
"171 328 LINE",
"218 431 OFFCURVE",
"299 495 OFFCURVE",
"387 499 CURVE"
);
}
);
width = 408;
},
{
anchors = (
{
name = bottom;
position = "{110, 0}";
},
{
name = top;
position = "{315, 522}";
}
);
layerId = "A8272220-FCE5-4C48-BDEF-D37440F7149C";
paths = (
{
closed = 1;
nodes = (
"434 525 LINE",
"428 526 OFFCURVE",
"421 526 OFFCURVE",
"410 526 CURVE SMOOTH",
"355 526 OFFCURVE",
"292 473 OFFCURVE",
"245 401 CURVE",
"273 522 LINE",
"195 522 LINE",
"71 0 LINE",
"156 0 LINE",
"232 322 LINE",
"272 398 OFFCURVE",
"341 443 OFFCURVE",
"412 445 CURVE"
);
}
);
width = 450;
},
{
anchors = (
{
name = bottom;
position = "{135, 0}";
},
{
name = top;
position = "{327, 526}";
}
);
layerId = "CD86D743-087E-48CD-95ED-391136C80322";
paths = (
{
closed = 1;
nodes = (
"499 535 LINE",
"495 536 OFFCURVE",
"492 536 OFFCURVE",
"480 536 CURVE SMOOTH",
"426 536 OFFCURVE",
"366 496 OFFCURVE",
"318 426 CURVE",
"341 526 LINE",
"170 526 LINE",
"48 0 LINE",
"235 0 LINE",
"307 312 LINE",
"341 349 OFFCURVE",
"399 364 OFFCURVE",
"459 364 CURVE"
);
}
);
width = 510;
}
);
leftKerningGroup = n;
rightKerningGroup = r;
unicode = 0072;
userData = {
org.robofab.fontlab.mark = 0;
};
},
{
glyphname = s;
lastChange = "2016-11-11 06:11:37 +0000";
layers = (
{
anchors = (
{
name = bottom;
position = "{207, 0}";
},
{
name = top;
position = "{322, 519}";
}
);
background = {
anchors = (
{
name = bottom;
position = "{235, 0}";
},
{
name = top;
position = "{240, 519}";
}
);
paths = (
{
closed = 1;
nodes = (
"235 -10 CURVE SMOOTH",
"351 -10 OFFCURVE",
"428 48 OFFCURVE",
"428 139 CURVE SMOOTH",
"428 229 OFFCURVE",
"352 248 OFFCURVE",
"228 277 CURVE SMOOTH",
"126 301 OFFCURVE",
"81 314 OFFCURVE",
"81 383 CURVE SMOOTH",
"81 470 OFFCURVE",
"154 507 OFFCURVE",
"240 507 CURVE SMOOTH",
"306 507 OFFCURVE",
"370 485 OFFCURVE",
"395 444 CURVE",
"413 452 LINE",
"390 495 OFFCURVE",
"328 527 OFFCURVE",
"244 527 CURVE SMOOTH",
"146 527 OFFCURVE",
"61 483 OFFCURVE",
"61 380 CURVE SMOOTH",
"61 297 OFFCURVE",
"116 283 OFFCURVE",
"227 257 CURVE SMOOTH",
"343 230 OFFCURVE",
"408 211 OFFCURVE",
"408 136 CURVE SMOOTH",
"408 57 OFFCURVE",
"337 10 OFFCURVE",
"235 10 CURVE SMOOTH",
"161 10 OFFCURVE",
"105 35 OFFCURVE",
"52 87 CURVE",
"37 74 LINE",
"89 17 OFFCURVE",
"156 -10 OFFCURVE"
);
}
);
};
layerId = "DC0D5209-C0CE-4187-A591-293A64199C8F";
paths = (
{
closed = 1;
nodes = (
"329 -10 OFFCURVE",
"420 61 OFFCURVE",
"420 162 CURVE SMOOTH",
"420 232 OFFCURVE",
"356 251 OFFCURVE",
"259 277 CURVE SMOOTH",
"186 297 OFFCURVE",
"147 311 OFFCURVE",
"147 362 CURVE SMOOTH",
"147 461 OFFCURVE",
"233 507 OFFCURVE",
"326 507 CURVE SMOOTH",
"387 507 OFFCURVE",
"443 485 OFFCURVE",
"457 444 CURVE",
"476 452 LINE",
"463 495 OFFCURVE",
"412 527 OFFCURVE",
"334 527 CURVE SMOOTH",
"228 527 OFFCURVE",
"127 472 OFFCURVE",
"127 355 CURVE SMOOTH",
"127 294 OFFCURVE",
"173 279 OFFCURVE",
"253 257 CURVE SMOOTH",
"344 232 OFFCURVE",
"400 214 OFFCURVE",
"400 155 CURVE SMOOTH",
"400 67 OFFCURVE",
"317 10 OFFCURVE",
"209 10 CURVE SMOOTH",
"139 10 OFFCURVE",
"92 35 OFFCURVE",
"54 87 CURVE",
"37 74 LINE",
"74 17 OFFCURVE",
"131 -10 OFFCURVE",
"204 -10 CURVE SMOOTH"
);
}
);
width = 519;
},
{
anchors = (
{
name = bottom;
position = "{219, 0}";
},
{
name = top;
position = "{337, 522}";
}
);
background = {
anchors = (
{
name = bottom;
position = "{257, 0}";
},
{
name = top;
position = "{251, 522}";
}
);
paths = (
{
closed = 1;
nodes = (
"383 -10 OFFCURVE",
"464 52 OFFCURVE",
"464 149 CURVE SMOOTH",
"464 238 OFFCURVE",
"398 266 OFFCURVE",
"259 299 CURVE SMOOTH",
"170 321 OFFCURVE",
"136 332 OFFCURVE",
"136 381 CURVE SMOOTH",
"136 441 OFFCURVE",
"187 467 OFFCURVE",
"251 467 CURVE SMOOTH",
"308 467 OFFCURVE",
"365 448 OFFCURVE",
"409 409 CURVE",
"449 462 LINE",
"402 503 OFFCURVE",
"331 531 OFFCURVE",
"253 531 CURVE SMOOTH",
"142 531 OFFCURVE",
"53 474 OFFCURVE",
"53 369 CURVE SMOOTH",
"53 287 OFFCURVE",
"106 263 OFFCURVE",
"232 232 CURVE SMOOTH",
"332 208 OFFCURVE",
"379 193 OFFCURVE",
"379 141 CURVE SMOOTH",
"379 87 OFFCURVE",
"330 55 OFFCURVE",
"255 55 CURVE SMOOTH",
"188 55 OFFCURVE",
"127 79 OFFCURVE",
"66 125 CURVE",
"28 66 LINE",
"86 17 OFFCURVE",
"174 -10 OFFCURVE",
"257 -10 CURVE SMOOTH"
);
}
);
};
layerId = "A8272220-FCE5-4C48-BDEF-D37440F7149C";
paths = (
{
closed = 1;
nodes = (
"350 -10 OFFCURVE",
"448 62 OFFCURVE",
"448 173 CURVE SMOOTH",
"448 247 OFFCURVE",
"387 270 OFFCURVE",
"297 300 CURVE SMOOTH",
"239 320 OFFCURVE",
"205 334 OFFCURVE",
"205 373 CURVE SMOOTH",
"205 441 OFFCURVE",
"269 462 OFFCURVE",
"326 462 CURVE SMOOTH",
"382 462 OFFCURVE",
"423 441 OFFCURVE",
"453 399 CURVE",
"506 460 LINE",
"474 507 OFFCURVE",
"419 531 OFFCURVE",
"347 531 CURVE SMOOTH",
"220 531 OFFCURVE",
"120 462 OFFCURVE",
"120 350 CURVE SMOOTH",
"120 287 OFFCURVE",
"166 256 OFFCURVE",
"247 229 CURVE SMOOTH",
"314 207 OFFCURVE",
"360 199 OFFCURVE",
"360 154 CURVE SMOOTH",
"360 94 OFFCURVE",
"304 60 OFFCURVE",
"230 60 CURVE SMOOTH",
"172 60 OFFCURVE",
"121 82 OFFCURVE",
"77 138 CURVE",
"30 76 LINE",
"69 19 OFFCURVE",
"136 -10 OFFCURVE",
"218 -10 CURVE SMOOTH"
);
}
);
width = 540;
},
{
anchors = (
{
name = bottom;
position = "{229, 0}";
},
{
name = top;
position = "{343, 526}";
}
);
background = {
anchors = (
{
name = bottom;
position = "{263, 0}";
},
{
name = top;
position = "{246, 526}";
}
);
paths = (
{
closed = 1;
nodes = (
"265 -10 CURVE SMOOTH",
"400 -10 OFFCURVE",
"484 57 OFFCURVE",
"484 165 CURVE SMOOTH",
"484 251 OFFCURVE",
"435 292 OFFCURVE",
"282 333 CURVE SMOOTH",
"220 349 OFFCURVE",
"203 359 OFFCURVE",
"203 379 CURVE SMOOTH",
"203 397 OFFCURVE",
"219 406 OFFCURVE",
"242 406 CURVE SMOOTH",
"281 406 OFFCURVE",
"321 389 OFFCURVE",
"386 347 CURVE",
"458 461 LINE",
"387 522 OFFCURVE",
"320 537 OFFCURVE",
"242 537 CURVE SMOOTH",
"117 537 OFFCURVE",
"27 460 OFFCURVE",
"27 352 CURVE SMOOTH",
"27 273 OFFCURVE",
"77 238 OFFCURVE",
"225 195 CURVE SMOOTH",
"284 178 OFFCURVE",
"301 166 OFFCURVE",
"301 148 CURVE SMOOTH",
"301 131 OFFCURVE",
"288 123 OFFCURVE",
"261 123 CURVE SMOOTH",
"210 123 OFFCURVE",
"148 148 OFFCURVE",
"83 192 CURVE",
"18 78 LINE",
"79 21 OFFCURVE",
"174 -10 OFFCURVE"
);
}
);
};
layerId = "CD86D743-087E-48CD-95ED-391136C80322";
paths = (
{
closed = 1;
nodes = (
"371 -10 OFFCURVE",
"471 72 OFFCURVE",
"471 196 CURVE SMOOTH",
"471 268 OFFCURVE",
"423 298 OFFCURVE",
"323 333 CURVE SMOOTH",
"291 345 OFFCURVE",
"276 353 OFFCURVE",
"276 370 CURVE SMOOTH",
"276 391 OFFCURVE",
"288 402 OFFCURVE",
"314 402 CURVE SMOOTH",
"344 402 OFFCURVE",
"378 386 OFFCURVE",
"435 345 CURVE",
"531 461 LINE",
"480 518 OFFCURVE",
"416 537 OFFCURVE",
"352 537 CURVE SMOOTH",
"195 537 OFFCURVE",
"93 442 OFFCURVE",
"93 325 CURVE SMOOTH",
"93 254 OFFCURVE",
"144 229 OFFCURVE",
"236 190 CURVE SMOOTH",
"268 177 OFFCURVE",
"282 169 OFFCURVE",
"282 154 CURVE SMOOTH",
"282 136 OFFCURVE",
"274 127 OFFCURVE",
"248 127 CURVE SMOOTH",
"204 127 OFFCURVE",
"153 152 OFFCURVE",
"101 195 CURVE",
"11 78 LINE",
"56 21 OFFCURVE",
"138 -10 OFFCURVE",
"224 -10 CURVE SMOOTH"
);
}
);
width = 555;
},
{
anchors = (
{
name = bottom;
position = "{254, 0}";
},
{
name = top;
position = "{248, 522}";
}
);
associatedMasterId = "A8272220-FCE5-4C48-BDEF-D37440F7149C";
background = {
anchors = (
{
name = bottom;
position = "{254, 0}";
},
{
name = top;
position = "{248, 522}";
}
);
paths = (
{
closed = 1;
nodes = (
"254 -10 CURVE SMOOTH",
"380 -10 OFFCURVE",
"461 52 OFFCURVE",
"461 149 CURVE SMOOTH",
"461 238 OFFCURVE",
"395 266 OFFCURVE",
"256 299 CURVE SMOOTH",
"167 321 OFFCURVE",
"133 332 OFFCURVE",
"133 381 CURVE SMOOTH",
"133 441 OFFCURVE",
"184 467 OFFCURVE",
"248 467 CURVE SMOOTH",
"305 467 OFFCURVE",
"362 448 OFFCURVE",
"406 409 CURVE",
"446 462 LINE",
"399 503 OFFCURVE",
"328 531 OFFCURVE",
"250 531 CURVE SMOOTH",
"139 531 OFFCURVE",
"50 474 OFFCURVE",
"50 369 CURVE SMOOTH",
"50 287 OFFCURVE",
"103 263 OFFCURVE",
"229 232 CURVE SMOOTH",
"329 208 OFFCURVE",
"376 193 OFFCURVE",
"376 141 CURVE SMOOTH",
"376 87 OFFCURVE",
"327 55 OFFCURVE",
"252 55 CURVE SMOOTH",
"185 55 OFFCURVE",
"124 79 OFFCURVE",
"63 125 CURVE",
"25 66 LINE",
"83 17 OFFCURVE",
"171 -10 OFFCURVE"
);
}
);
};
layerId = "EA7832BE-6C31-4896-AA32-F87B1EB94137";
name = "Regular Aug 24 16, 03:50";
paths = (
{
closed = 1;
nodes = (
"254 -10 CURVE SMOOTH",
"380 -10 OFFCURVE",
"461 52 OFFCURVE",
"461 149 CURVE SMOOTH",
"461 238 OFFCURVE",
"395 266 OFFCURVE",
"256 299 CURVE SMOOTH",
"167 321 OFFCURVE",
"133 332 OFFCURVE",
"133 381 CURVE SMOOTH",
"133 441 OFFCURVE",
"184 467 OFFCURVE",
"248 467 CURVE SMOOTH",
"305 467 OFFCURVE",
"362 448 OFFCURVE",
"406 409 CURVE",
"446 462 LINE",
"399 503 OFFCURVE",
"328 531 OFFCURVE",
"250 531 CURVE SMOOTH",
"139 531 OFFCURVE",
"50 474 OFFCURVE",
"50 369 CURVE SMOOTH",
"50 287 OFFCURVE",
"103 263 OFFCURVE",
"229 232 CURVE SMOOTH",
"329 208 OFFCURVE",
"376 193 OFFCURVE",
"376 141 CURVE SMOOTH",
"376 87 OFFCURVE",
"327 55 OFFCURVE",
"252 55 CURVE SMOOTH",
"185 55 OFFCURVE",
"124 79 OFFCURVE",
"63 125 CURVE",
"25 66 LINE",
"83 17 OFFCURVE",
"171 -10 OFFCURVE"
);
}
);
width = 494;
}
);
leftKerningGroup = s;
rightKerningGroup = s;
unicode = 0073;
userData = {
org.robofab.fontlab.mark = 0;
};
},
{
glyphname = germandbls;
lastChange = "2016-11-11 06:11:37 +0000";
layers = (
{
layerId = "DC0D5209-C0CE-4187-A591-293A64199C8F";
paths = (
{
closed = 1;
nodes = (
"220 -6 LINE",
"414 1 OFFCURVE",
"524 95 OFFCURVE",
"524 245 CURVE SMOOTH",
"524 326 OFFCURVE",
"481 385 OFFCURVE",
"399 404 CURVE",
"475 419 OFFCURVE",
"548 500 OFFCURVE",
"548 584 CURVE SMOOTH",
"548 658 OFFCURVE",
"492 714 OFFCURVE",
"409 714 CURVE SMOOTH",
"306 714 OFFCURVE",
"218 632 OFFCURVE",
"192 509 CURVE SMOOTH",
"84 0 LINE",
"103 0 LINE",
"211 509 LINE SMOOTH",
"235 621 OFFCURVE",
"310 694 OFFCURVE",
"403 694 CURVE SMOOTH",
"478 694 OFFCURVE",
"528 644 OFFCURVE",
"528 576 CURVE SMOOTH",
"528 486 OFFCURVE",
"444 413 OFFCURVE",
"350 413 CURVE SMOOTH",
"335 413 LINE",
"331 393 LINE",
"347 393 LINE SMOOTH",
"445 393 OFFCURVE",
"504 332 OFFCURVE",
"504 241 CURVE SMOOTH",
"504 102 OFFCURVE",
"400 16 OFFCURVE",
"224 13 CURVE"
);
}
);
width = 594;
},
{
layerId = "A8272220-FCE5-4C48-BDEF-D37440F7149C";
paths = (
{
closed = 1;
nodes = (
"231 -6 LINE",
"403 0 OFFCURVE",
"543 87 OFFCURVE",
"543 250 CURVE SMOOTH",
"543 324 OFFCURVE",
"508 386 OFFCURVE",
"441 402 CURVE",
"504 420 OFFCURVE",
"570 500 OFFCURVE",
"570 582 CURVE SMOOTH",
"570 661 OFFCURVE",
"512 714 OFFCURVE",
"425 714 CURVE SMOOTH",
"312 714 OFFCURVE",
"212 633 OFFCURVE",
"186 517 CURVE SMOOTH",
"71 0 LINE",
"155 0 LINE",
"266 503 LINE SMOOTH",
"282 574 OFFCURVE",
"328 638 OFFCURVE",
"404 638 CURVE SMOOTH",
"448 638 OFFCURVE",
"484 613 OFFCURVE",
"484 561 CURVE SMOOTH",
"484 490 OFFCURVE",
"429 437 OFFCURVE",
"360 437 CURVE SMOOTH",
"344 437 LINE",
"325 357 LINE",
"343 357 LINE SMOOTH",
"412 357 OFFCURVE",
"454 313 OFFCURVE",
"454 245 CURVE SMOOTH",
"454 129 OFFCURVE",
"366 77 OFFCURVE",
"250 75 CURVE"
);
}
);
width = 605;
},
{
layerId = "CD86D743-087E-48CD-95ED-391136C80322";
paths = (
{
closed = 1;
nodes = (
"240 -6 LINE",
"379 -6 OFFCURVE",
"562 50 OFFCURVE",
"562 256 CURVE SMOOTH",
"562 327 OFFCURVE",
"535 380 OFFCURVE",
"491 403 CURVE",
"535 426 OFFCURVE",
"587 498 OFFCURVE",
"587 577 CURVE SMOOTH",
"587 664 OFFCURVE",
"526 714 OFFCURVE",
"433 714 CURVE SMOOTH",
"308 714 OFFCURVE",
"191 635 OFFCURVE",
"167 529 CURVE SMOOTH",
"48 0 LINE",
"227 0 LINE",
"338 494 LINE SMOOTH",
"341 507 OFFCURVE",
"346 554 OFFCURVE",
"377 554 CURVE SMOOTH",
"371 554 OFFCURVE",
"399 554 OFFCURVE",
"399 521 CURVE SMOOTH",
"399 497 OFFCURVE",
"390 473 OFFCURVE",
"364 473 CURVE SMOOTH",
"344 473 LINE",
"305 303 LINE",
"326 303 LINE SMOOTH",
"335 303 OFFCURVE",
"365 288 OFFCURVE",
"365 249 CURVE SMOOTH",
"365 197 OFFCURVE",
"322 168 OFFCURVE",
"280 168 CURVE"
);
}
);
width = 606;
}
);
leftKerningGroup = h;
unicode = 00DF;
userData = {
org.robofab.fontlab.mark = 0;
};
},
{
glyphname = schwa;
lastChange = "2016-11-11 06:11:37 +0000";
layers = (
{
layerId = "DC0D5209-C0CE-4187-A591-293A64199C8F";
paths = (
{
closed = 1;
nodes = (
"364 -10 OFFCURVE",
"511 137 OFFCURVE",
"511 306 CURVE SMOOTH",
"511 429 OFFCURVE",
"436 527 OFFCURVE",
"325 527 CURVE SMOOTH",
"239 527 OFFCURVE",
"145 474 OFFCURVE",
"103 403 CURVE",
"120 398 LINE",
"161 462 OFFCURVE",
"244 507 OFFCURVE",
"320 507 CURVE SMOOTH",
"434 507 OFFCURVE",
"507 403 OFFCURVE",
"488 269 CURVE",
"37 269 LINE",
"36 265 OFFCURVE",
"36 262 OFFCURVE",
"35 258 CURVE",
"4 109 OFFCURVE",
"84 -10 OFFCURVE",
"215 -10 CURVE SMOOTH"
);
},
{
closed = 1;
nodes = (
"102 10 OFFCURVE",
"32 110 OFFCURVE",
"53 249 CURVE",
"484 249 LINE",
"448 112 OFFCURVE",
"335 10 OFFCURVE",
"219 10 CURVE SMOOTH"
);
}
);
width = 557;
},
{
layerId = "A8272220-FCE5-4C48-BDEF-D37440F7149C";
paths = (
{
closed = 1;
nodes = (
"394 -10 OFFCURVE",
"537 142 OFFCURVE",
"537 312 CURVE SMOOTH",
"537 433 OFFCURVE",
"463 531 OFFCURVE",
"337 531 CURVE SMOOTH",
"236 531 OFFCURVE",
"139 475 OFFCURVE",
"90 399 CURVE",
"160 378 LINE",
"192 429 OFFCURVE",
"258 464 OFFCURVE",
"318 464 CURVE SMOOTH",
"403 464 OFFCURVE",
"459 393 OFFCURVE",
"445 290 CURVE",
"36 290 LINE",
"33 283 OFFCURVE",
"29 268 OFFCURVE",
"27 260 CURVE",
"-3 113 OFFCURVE",
"71 -10 OFFCURVE",
"220 -10 CURVE SMOOTH"
);
},
{
closed = 1;
nodes = (
"149 56 OFFCURVE",
"90 128 OFFCURVE",
"106 232 CURVE",
"433 232 LINE",
"405 130 OFFCURVE",
"323 56 OFFCURVE",
"236 56 CURVE SMOOTH"
);
}
);
width = 573;
},
{
layerId = "CD86D743-087E-48CD-95ED-391136C80322";
paths = (
{
closed = 1;
nodes = (
"449 -10 OFFCURVE",
"580 153 OFFCURVE",
"580 318 CURVE SMOOTH",
"580 436 OFFCURVE",
"508 536 OFFCURVE",
"357 536 CURVE SMOOTH",
"233 536 OFFCURVE",
"133 477 OFFCURVE",
"73 393 CURVE",
"224 347 LINE",
"242 380 OFFCURVE",
"284 400 OFFCURVE",
"321 400 CURVE SMOOTH",
"358 400 OFFCURVE",
"392 377 OFFCURVE",
"383 321 CURVE",
"39 321 LINE",
"28 295 OFFCURVE",
"14 260 OFFCURVE",
"14 212 CURVE SMOOTH",
"14 91 OFFCURVE",
"84 -10 OFFCURVE",
"236 -10 CURVE SMOOTH"
);
},
{
closed = 1;
nodes = (
"228 125 OFFCURVE",
"207 156 OFFCURVE",
"213 207 CURVE",
"362 207 LINE",
"345 156 OFFCURVE",
"311 125 OFFCURVE",
"269 125 CURVE SMOOTH"
);
}
);
width = 599;
}
);
rightKerningGroup = o;
unicode = 0259;
userData = {
org.robofab.fontlab.mark = 0;
};
},
{
glyphname = t;
lastChange = "2016-11-11 06:11:37 +0000";
layers = (
{
anchors = (
{
name = bottom;
position = "{90, 0}";
},
{
name = center;
position = "{103, 309}";
},
{
name = top;
position = "{171, 710}";
},
{
name = topright;
position = "{209, 519}";
}
);
layerId = "DC0D5209-C0CE-4187-A591-293A64199C8F";
paths = (
{
closed = 1;
nodes = (
"175 40 LINE",
"173 38 OFFCURVE",
"136 15 OFFCURVE",
"94 15 CURVE SMOOTH",
"62 15 OFFCURVE",
"38 36 OFFCURVE",
"44 75 CURVE",
"134 499 LINE",
"247 499 LINE",
"251 519 LINE",
"138 519 LINE",
"176 700 LINE",
"158 700 LINE",
"120 519 LINE",
"52 519 LINE",
"48 499 LINE",
"116 499 LINE",
"26 75 LINE SMOOTH",
"16 27 OFFCURVE",
"46 -5 OFFCURVE",
"90 -5 CURVE SMOOTH",
"140 -5 OFFCURVE",
"181 23 OFFCURVE",
"182 24 CURVE"
);
}
);
width = 260;
},
{
anchors = (
{
name = bottom;
position = "{112, 0}";
},
{
name = center;
position = "{136, 261}";
},
{
name = top;
position = "{212, 710}";
},
{
name = topright;
position = "{273, 522}";
}
);
layerId = "A8272220-FCE5-4C48-BDEF-D37440F7149C";
paths = (
{
closed = 1;
nodes = (
"234 96 LINE",
"223 90 OFFCURVE",
"190 74 OFFCURVE",
"159 74 CURVE SMOOTH",
"131 74 OFFCURVE",
"110 91 OFFCURVE",
"118 129 CURVE SMOOTH",
"188 453 LINE",
"295 453 LINE",
"312 522 LINE",
"205 522 LINE",
"244 696 LINE",
"157 696 LINE",
"118 522 LINE",
"53 522 LINE",
"37 453 LINE",
"103 453 LINE",
"25 102 LINE SMOOTH",
"8 27 OFFCURVE",
"51 -7 OFFCURVE",
"111 -7 CURVE SMOOTH",
"162 -7 OFFCURVE",
"213 16 OFFCURVE",
"237 26 CURVE"
);
}
);
width = 323;
},
{
anchors = (
{
name = bottom;
position = "{131, 0}";
},
{
name = center;
position = "{169, 263}";
},
{
name = top;
position = "{242, 710}";
},
{
name = topright;
position = "{354, 526}";
}
);
layerId = "CD86D743-087E-48CD-95ED-391136C80322";
paths = (
{
closed = 1;
nodes = (
"306 179 LINE",
"279 169 OFFCURVE",
"257 162 OFFCURVE",
"243 162 CURVE SMOOTH",
"223 162 OFFCURVE",
"215 174 OFFCURVE",
"223 209 CURVE SMOOTH",
"263 383 LINE",
"350 383 LINE",
"382 526 LINE",
"295 526 LINE",
"333 691 LINE",
"145 691 LINE",
"107 526 LINE",
"51 526 LINE",
"19 383 LINE",
"75 383 LINE",
"20 142 LINE SMOOTH",
"-6 28 OFFCURVE",
"51 -11 OFFCURVE",
"130 -11 CURVE SMOOTH",
"182 -11 OFFCURVE",
"245 6 OFFCURVE",
"303 29 CURVE"
);
}
);
width = 388;
}
);
leftKerningGroup = t;
rightKerningGroup = t;
unicode = 0074;
userData = {
org.robofab.fontlab.mark = 0;
};
},
{
glyphname = tbar;
lastChange = "2016-11-11 06:11:37 +0000";
layers = (
{
background = {
components = (
{
name = t;
transform = "{1, 0, 0, 1, 1, 0}";
}
);
paths = (
{
closed = 1;
nodes = (
"237 299 LINE",
"237 319 LINE",
"27 319 LINE",
"27 299 LINE"
);
}
);
};
components = (
{
name = t;
transform = "{1, 0, 0, 1, -59, 0}";
}
);
layerId = "DC0D5209-C0CE-4187-A591-293A64199C8F";
paths = (
{
closed = 1;
nodes = (
"212 299 LINE",
"216 319 LINE",
"31 319 LINE",
"27 299 LINE"
);
}
);
width = 297;
},
{
background = {
components = (
{
name = t;
transform = "{1, 0, 0, 1, 1, 0}";
}
);
paths = (
{
closed = 1;
nodes = (
"289 272 LINE",
"289 328 LINE",
"36 328 LINE",
"36 272 LINE"
);
}
);
};
components = (
{
name = t;
transform = "{1, 0, 0, 1, -56, 0}";
}
);
layerId = "A8272220-FCE5-4C48-BDEF-D37440F7149C";
paths = (
{
closed = 1;
nodes = (
"262 272 LINE",
"276 328 LINE",
"50 328 LINE",
"36 272 LINE"
);
}
);
width = 353;
},
{
background = {
components = (
{
name = t;
transform = "{1, 0, 0, 1, 1, 0}";
}
);
paths = (
{
closed = 1;
nodes = (
"368 227 LINE",
"368 336 LINE",
"27 336 LINE",
"27 227 LINE"
);
}
);
};
components = (
{
name = t;
transform = "{1, 0, 0, 1, -46, 0}";
}
);
layerId = "CD86D743-087E-48CD-95ED-391136C80322";
paths = (
{
closed = 1;
nodes = (
"341 227 LINE",
"366 336 LINE",
"52 336 LINE",
"27 227 LINE"
);
}
);
width = 424;
}
);
leftKerningGroup = t;
rightKerningGroup = t;
unicode = 0167;
userData = {
org.robofab.fontlab.mark = 0;
};
},
{
glyphname = tcaron;
lastChange = "2016-11-11 06:12:34 +0000";
layers = (
{
background = {
paths = (
{
closed = 1;
nodes = (
"273 38 OFFCURVE",
"237 15 OFFCURVE",
"191 15 CURVE",
"156 15 OFFCURVE",
"124 36 OFFCURVE",
"121 75 CURVE",
"121 499 LINE",
"246 499 LINE",
"246 519 LINE",
"121 519 LINE",
"121 700 LINE",
"101 700 LINE",
"101 519 LINE",
"26 519 LINE",
"26 499 LINE",
"101 499 LINE",
"101 75 LINE",
"101 27 OFFCURVE",
"143 -5 OFFCURVE",
"191 -5 CURVE",
"246 -5 OFFCURVE",
"285 23 OFFCURVE",
"286 24 CURVE",
"275 40 LINE"
);
},
{
closed = 1;
nodes = (
"264 730 LINE",
"200 657 LINE",
"216 645 LINE",
"298 730 LINE"
);
}
);
};
components = (
{
name = t;
},
{
name = caroncomb.alt;
transform = "{1, 0, 0, 1, 189, 0}";
}
);
layerId = "DC0D5209-C0CE-4187-A591-293A64199C8F";
width = 260;
},
{
background = {
paths = (
{
closed = 1;
nodes = (
"302 730 LINE",
"244 629 LINE",
"302 609 LINE",
"390 730 LINE"
);
},
{
closed = 1;
nodes = (
"310 90 OFFCURVE",
"278 74 OFFCURVE",
"243 74 CURVE",
"212 74 OFFCURVE",
"186 91 OFFCURVE",
"184 129 CURVE",
"184 453 LINE",
"301 453 LINE",
"301 522 LINE",
"184 522 LINE",
"184 696 LINE",
"96 696 LINE",
"96 522 LINE",
"25 522 LINE",
"25 453 LINE",
"96 453 LINE",
"96 102 LINE",
"96 27 OFFCURVE",
"150 -7 OFFCURVE",
"214 -7 CURVE",
"270 -7 OFFCURVE",
"319 16 OFFCURVE",
"341 26 CURVE",
"320 96 LINE"
);
}
);
};
components = (
{
name = t;
},
{
name = caroncomb.alt;
transform = "{1, 0, 0, 1, 236, 0}";
}
);
layerId = "A8272220-FCE5-4C48-BDEF-D37440F7149C";
width = 323;
},
{
background = {
paths = (
{
closed = 1;
nodes = (
"359 169 OFFCURVE",
"334 162 OFFCURVE",
"315 162 CURVE",
"290 162 OFFCURVE",
"274 174 OFFCURVE",
"274 209 CURVE",
"274 383 LINE",
"377 383 LINE",
"377 526 LINE",
"274 526 LINE",
"274 691 LINE",
"84 691 LINE",
"84 526 LINE",
"19 526 LINE",
"19 383 LINE",
"84 383 LINE",
"84 142 LINE",
"84 28 OFFCURVE",
"156 -11 OFFCURVE",
"242 -11 CURVE",
"300 -11 OFFCURVE",
"364 6 OFFCURVE",
"417 29 CURVE",
"383 179 LINE"
);
},
{
closed = 1;
nodes = (
"354 730 LINE",
"304 588 LINE",
"424 556 LINE",
"523 730 LINE"
);
}
);
};
components = (
{
name = t;
},
{
name = caroncomb.alt;
transform = "{1, 0, 0, 1, 283, 0}";
}
);
layerId = "CD86D743-087E-48CD-95ED-391136C80322";
width = 388;
}
);
leftKerningGroup = t;
rightKerningGroup = t;
unicode = 0165;
userData = {
org.robofab.fontlab.mark = 0;
};
},
{
glyphname = u;
lastChange = "2016-11-11 06:11:37 +0000";
layers = (
{
anchors = (
{
name = bottom;
position = "{224, 0}";
},
{
name = ogonek;
position = "{434, 0}";
},
{
name = top;
position = "{332, 519}";
},
{
name = topright;
position = "{572, 481}";
}
);
layerId = "DC0D5209-C0CE-4187-A591-293A64199C8F";
paths = (
{
closed = 1;
nodes = (
"45 71 OFFCURVE",
"82 -10 OFFCURVE",
"185 -10 CURVE SMOOTH",
"273 -10 OFFCURVE",
"367 45 OFFCURVE",
"428 132 CURVE",
"409 40 LINE SMOOTH",
"405 23 OFFCURVE",
"410 7 OFFCURVE",
"421 2 CURVE SMOOTH",
"424 1 OFFCURVE",
"426 0 OFFCURVE",
"434 0 CURVE",
"438 20 LINE",
"429 20 OFFCURVE",
"425 28 OFFCURVE",
"427 40 CURVE SMOOTH",
"529 519 LINE",
"510 519 LINE",
"440 189 LINE",
"389 85 OFFCURVE",
"284 10 OFFCURVE",
"189 10 CURVE SMOOTH",
"96 10 OFFCURVE",
"66 81 OFFCURVE",
"97 228 CURVE SMOOTH",
"159 519 LINE",
"140 519 LINE",
"78 228 LINE SMOOTH"
);
}
);
width = 598;
},
{
anchors = (
{
name = bottom;
position = "{247, 7}";
},
{
name = ogonek;
position = "{482, 0}";
},
{
name = top;
position = "{351, 522}";
},
{
name = topright;
position = "{572, 457}";
}
);
background = {
anchors = (
{
name = bottom;
position = "{304, 7}";
},
{
name = ogonek;
position = "{553, 0}";
},
{
name = top;
position = "{294, 522}";
},
{
name = topright;
position = "{542, 457}";
}
);
paths = (
{
closed = 1;
nodes = (
"66 65 OFFCURVE",
"123 -10 OFFCURVE",
"232 -10 CURVE SMOOTH",
"322 -10 OFFCURVE",
"403 34 OFFCURVE",
"449 112 CURVE",
"451 51 LINE SMOOTH",
"452 20 OFFCURVE",
"479 -3 OFFCURVE",
"513 -3 CURVE SMOOTH",
"524 -3 OFFCURVE",
"533 -3 OFFCURVE",
"553 0 CURVE",
"553 76 LINE",
"533 77 OFFCURVE",
"525 86 OFFCURVE",
"525 108 CURVE SMOOTH",
"525 522 LINE",
"437 522 LINE",
"437 195 LINE",
"406 115 OFFCURVE",
"337 66 OFFCURVE",
"265 66 CURVE SMOOTH",
"191 66 OFFCURVE",
"154 119 OFFCURVE",
"154 226 CURVE SMOOTH",
"154 522 LINE",
"66 522 LINE",
"66 209 LINE SMOOTH"
);
}
);
};
layerId = "A8272220-FCE5-4C48-BDEF-D37440F7149C";
paths = (
{
closed = 1;
nodes = (
"34 65 OFFCURVE",
"71 -10 OFFCURVE",
"174 -10 CURVE SMOOTH",
"259 -10 OFFCURVE",
"344 34 OFFCURVE",
"405 112 CURVE",
"394 51 LINE SMOOTH",
"388 20 OFFCURVE",
"409 -3 OFFCURVE",
"442 -3 CURVE SMOOTH",
"453 -3 OFFCURVE",
"462 -3 OFFCURVE",
"482 0 CURVE",
"498 68 LINE",
"479 69 OFFCURVE",
"473 78 OFFCURVE",
"478 100 CURVE SMOOTH",
"570 522 LINE",
"484 522 LINE",
"411 195 LINE",
"365 115 OFFCURVE",
"291 66 OFFCURVE",
"224 66 CURVE SMOOTH",
"156 66 OFFCURVE",
"134 119 OFFCURVE",
"157 226 CURVE SMOOTH",
"222 522 LINE",
"135 522 LINE",
"66 209 LINE SMOOTH"
);
}
);
width = 618;
},
{
anchors = (
{
name = bottom;
position = "{256, 0}";
},
{
name = ogonek;
position = "{539, 0}";
},
{
name = top;
position = "{372, 526}";
},
{
name = topright;
position = "{613, 456}";
}
);
layerId = "CD86D743-087E-48CD-95ED-391136C80322";
paths = (
{
closed = 1;
nodes = (
"16 57 OFFCURVE",
"56 -10 OFFCURVE",
"154 -10 CURVE SMOOTH",
"235 -10 OFFCURVE",
"303 17 OFFCURVE",
"363 82 CURVE",
"363 63 LINE SMOOTH",
"363 14 OFFCURVE",
"395 -10 OFFCURVE",
"458 -10 CURVE SMOOTH",
"477 -10 OFFCURVE",
"503 -7 OFFCURVE",
"539 0 CURVE",
"574 160 LINE",
"548 162 OFFCURVE",
"542 174 OFFCURVE",
"550 210 CURVE SMOOTH",
"620 526 LINE",
"433 526 LINE",
"361 204 LINE",
"322 159 OFFCURVE",
"296 150 OFFCURVE",
"274 150 CURVE SMOOTH",
"245 150 OFFCURVE",
"231 177 OFFCURVE",
"241 223 CURVE SMOOTH",
"308 526 LINE",
"120 526 LINE",
"43 180 LINE SMOOTH"
);
}
);
width = 650;
}
);
leftKerningGroup = u;
rightKerningGroup = u;
unicode = 0075;
userData = {
org.robofab.fontlab.mark = 0;
};
},
{
glyphname = v;
lastChange = "2016-11-11 06:11:37 +0000";
layers = (
{
background = {
paths = (
{
closed = 1;
nodes = (
"269 0 LINE",
"495 519 LINE",
"473 519 LINE",
"260 29 LINE",
"47 519 LINE",
"25 519 LINE",
"251 0 LINE"
);
}
);
};
layerId = "DC0D5209-C0CE-4187-A591-293A64199C8F";
paths = (
{
closed = 1;
nodes = (
"146 0 LINE",
"470 519 LINE",
"449 519 LINE",
"143 29 LINE",
"46 519 LINE",
"25 519 LINE",
"129 0 LINE"
);
}
);
width = 495;
},
{
background = {
paths = (
{
closed = 1;
nodes = (
"316 0 LINE",
"522 522 LINE",
"438 522 LINE",
"272 77 LINE",
"107 522 LINE",
"16 522 LINE",
"222 0 LINE"
);
}
);
};
layerId = "A8272220-FCE5-4C48-BDEF-D37440F7149C";
paths = (
{
closed = 1;
nodes = (
"189 0 LINE",
"497 522 LINE",
"412 522 LINE",
"164 84 LINE",
"107 522 LINE",
"16 522 LINE",
"94 0 LINE"
);
}
);
width = 514;
},
{
background = {
paths = (
{
closed = 1;
nodes = (
"385 0 LINE",
"562 526 LINE",
"385 526 LINE",
"290 149 LINE",
"196 526 LINE",
"1 526 LINE",
"178 0 LINE"
);
}
);
};
layerId = "CD86D743-087E-48CD-95ED-391136C80322";
paths = (
{
closed = 1;
nodes = (
"256 0 LINE",
"537 526 LINE",
"361 526 LINE",
"199 169 LINE",
"195 526 LINE",
"1 526 LINE",
"50 0 LINE"
);
}
);
width = 538;
}
);
unicode = 0076;
userData = {
org.robofab.fontlab.mark = 0;
};
},
{
glyphname = w;
lastChange = "2016-11-11 06:11:37 +0000";
layers = (
{
anchors = (
{
name = top;
position = "{385, 519}";
}
);
background = {
anchors = (
{
name = top;
position = "{397, 519}";
}
);
paths = (
{
closed = 1;
nodes = (
"533 29 LINE",
"408 316 LINE",
"495 518 LINE",
"474 518 LINE",
"397 342 LINE",
"320 518 LINE",
"299 518 LINE",
"386 316 LINE",
"261 29 LINE",
"47 519 LINE",
"25 519 LINE",
"252 0 LINE",
"270 0 LINE",
"397 291 LINE",
"524 0 LINE",
"542 0 LINE",
"769 519 LINE",
"747 519 LINE"
);
}
);
};
layerId = "DC0D5209-C0CE-4187-A591-293A64199C8F";
paths = (
{
closed = 1;
nodes = (
"412 29 LINE",
"352 316 LINE",
"479 518 LINE",
"459 518 LINE",
"347 342 LINE",
"310 518 LINE",
"290 518 LINE",
"331 316 LINE",
"149 29 LINE",
"46 519 LINE",
"25 519 LINE",
"134 0 LINE",
"151 0 LINE",
"336 291 LINE",
"397 0 LINE",
"414 0 LINE",
"744 519 LINE",
"723 519 LINE"
);
}
);
width = 769;
},
{
anchors = (
{
name = top;
position = "{398, 522}";
}
);
background = {
anchors = (
{
name = top;
position = "{410, 522}";
}
);
paths = (
{
closed = 1;
nodes = (
"546 87 LINE",
"458 304 LINE",
"547 521 LINE",
"474 521 LINE",
"410 354 LINE",
"346 521 LINE",
"273 521 LINE",
"363 304 LINE",
"275 87 LINE",
"95 522 LINE",
"11 522 LINE",
"233 0 LINE",
"306 0 LINE",
"410 255 LINE",
"515 0 LINE",
"588 0 LINE",
"810 522 LINE",
"725 522 LINE"
);
}
);
};
layerId = "A8272220-FCE5-4C48-BDEF-D37440F7149C";
paths = (
{
closed = 1;
nodes = (
"435 87 LINE",
"401 301 LINE",
"533 521 LINE",
"457 521 LINE",
"361 355 LINE",
"338 521 LINE",
"262 521 LINE",
"299 301 LINE",
"173 87 LINE",
"94 522 LINE",
"11 522 LINE",
"112 0 LINE",
"188 0 LINE",
"337 246 LINE",
"381 0 LINE",
"457 0 LINE",
"785 522 LINE",
"701 522 LINE"
);
}
);
width = 796;
},
{
anchors = (
{
name = top;
position = "{419, 526}";
}
);
background = {
anchors = (
{
name = top;
position = "{431, 526}";
}
);
paths = (
{
closed = 1;
nodes = (
"566 173 LINE",
"533 286 LINE",
"627 526 LINE",
"476 526 LINE",
"431 372 LINE",
"386 526 LINE",
"235 526 LINE",
"329 286 LINE",
"296 173 LINE",
"169 526 LINE",
"-10 526 LINE",
"205 0 LINE",
"360 0 LINE",
"431 200 LINE",
"502 0 LINE",
"657 0 LINE",
"872 526 LINE",
"693 526 LINE"
);
}
);
};
layerId = "CD86D743-087E-48CD-95ED-391136C80322";
paths = (
{
closed = 1;
nodes = (
"475 178 LINE",
"470 296 LINE",
"613 526 LINE",
"461 526 LINE",
"385 372 LINE",
"376 526 LINE",
"224 526 LINE",
"267 296 LINE",
"210 178 LINE",
"168 526 LINE",
"-10 526 LINE",
"83 0 LINE",
"237 0 LINE",
"348 200 LINE",
"371 0 LINE",
"525 0 LINE",
"847 526 LINE",
"669 526 LINE"
);
}
);
width = 837;
}
);
leftKerningGroup = w;
rightKerningGroup = w;
unicode = 0077;
userData = {
org.robofab.fontlab.mark = 0;
};
},
